<svg width="135" height="136" viewBox="0 0 135 136" fill="none" xmlns="http://www.w3.org/2000/svg">
<path d="M0 50.7786C0.710183 40.3625 4.14273 31.3669 10.2977 23.7916C16.4526 16.098 24.6197 10.239 34.799 6.21459C45.0966 2.07186 56.6963 0.000488281 69.5979 0.000488281C81.9077 0.000488281 92.6197 1.89431 101.734 5.68195C110.966 9.35123 118.127 14.5001 123.217 21.1284C128.306 27.7568 130.851 35.4504 130.851 44.2094C130.851 50.9561 129.017 57.2886 125.347 63.2068C121.678 69.0066 115.937 74.7472 108.125 80.4287C100.313 85.9918 90.0748 91.8508 77.4099 98.0057L40.8355 116.293L39.4151 106.883H134.58V136H2.84073V110.434L60.0104 78.2981C68.8877 73.2085 75.7528 68.9474 80.6057 65.5148C85.577 61.9639 89.0688 58.7089 91.0809 55.7498C93.2115 52.7907 94.2768 49.6541 94.2768 46.3399C94.2768 42.6706 93.2707 39.534 91.2585 36.93C89.3647 34.2076 86.4647 32.0771 82.5587 30.5383C78.6527 28.9996 73.859 28.2302 68.1775 28.2302C61.0757 28.2302 55.2759 29.2955 50.7781 31.4261C46.2802 33.4383 42.9069 36.1606 40.658 39.5932C38.409 42.9074 37.0479 46.6358 36.5744 50.7786H0Z" fill="#373AE5"/>
</svg>
