<svg width="134" height="136" viewBox="0 0 134 136" fill="none" xmlns="http://www.w3.org/2000/svg">
<path d="M3.30435 44.8701C4 36.6382 6.95652 29.1599 12.1739 22.4353C17.3913 15.5947 24.9275 10.1454 34.7826 6.08745C44.6377 2.02948 56.6377 0.000488281 70.7826 0.000488281C82.8406 0.000488281 93.3333 1.50774 102.261 4.52223C111.304 7.53672 118.261 11.7686 123.13 17.2179C128.116 22.6672 130.609 29.1019 130.609 36.5222C130.609 42.3193 128.812 47.6527 125.217 52.5222C121.739 57.3918 116.174 61.2759 108.522 64.1744C100.986 66.957 91.1304 68.2903 78.9565 68.1744V64.5222C90.3189 64.0585 100.058 64.8701 108.174 66.957C116.29 69.044 122.493 72.4643 126.783 77.2179C131.188 81.9715 133.391 88.0005 133.391 95.3048C133.391 103.189 130.841 110.203 125.739 116.348C120.638 122.493 113.217 127.305 103.478 130.783C93.8551 134.261 82.029 136 68 136C54.4348 136 42.6087 134.145 32.5217 130.435C22.4348 126.725 14.5507 121.45 8.86957 114.609C3.30435 107.653 0.347826 99.5367 0 90.2614H35.8261C36.7536 96.0585 39.7681 100.522 44.8696 103.653C50.087 106.783 57.7971 108.348 68 108.348C77.2754 108.348 84.3478 106.957 89.2174 104.174C94.2029 101.392 96.6957 97.5077 96.6957 92.5222C96.6957 89.6237 95.8841 87.1889 94.2609 85.2179C92.7536 83.2469 90.029 81.7976 86.087 80.8701C82.1449 79.8266 76.6377 79.3048 69.5652 79.3048H47.1304V54.957H69.5652C78.7246 54.957 85.1015 53.7396 88.6957 51.3048C92.4058 48.8701 94.2609 45.6237 94.2609 41.5657C94.2609 37.1599 92.116 33.7396 87.8261 31.3048C83.6522 28.8701 77.3333 27.6527 68.8696 27.6527C59.8261 27.6527 52.8696 29.1599 48 32.1744C43.1304 35.1889 40.2319 39.4208 39.3044 44.8701H3.30435Z" fill="#373AE5"/>
</svg>
