<svg width="549" height="439" viewBox="0 0 549 439" fill="none" xmlns="http://www.w3.org/2000/svg">
<g clip-path="url(#clip0_370_772)">
<path d="M71.8684 295.588L0 439H136.083L144.297 331.208L145.23 182.202L92.2156 163.739L82.322 182.761L70.7484 208.497C61.4148 229.011 59.7348 252.323 65.8949 273.955L71.8684 295.588Z" fill="#7CA0FC"/>
<path d="M414.232 443H550L420.192 296.598L426.151 274.705C432.297 252.43 430.435 228.823 421.309 207.881L409.576 181.419L399.892 162L347 180.848L347.931 332.961L414.232 443Z" fill="#7CA0FC"/>
<g filter="url(#filter0_d_370_772)">
<path d="M382.051 148.074L480.053 206.819L431.145 11.0029L372.344 108.911L382.051 148.074Z" fill="#FFBE11"/>
</g>
<g filter="url(#filter1_d_370_772)">
<path d="M304.835 1.11869L108.83 49.9793C87.176 55.3876 73.9223 77.207 79.3358 98.84L128.244 294.656C133.657 316.289 155.498 329.529 177.151 324.121L373.156 275.261C394.81 269.852 407.877 248.033 402.65 226.4L353.742 30.5843C348.329 8.95131 326.488 -4.10306 304.835 1.11869ZM257.233 185.931L230.353 219.873L217.472 168.588L204.592 117.303L244.353 134.646L284.114 151.99L257.233 185.931Z" fill="#FFBE11"/>
</g>
<path d="M257.233 185.931L230.166 219.873L217.472 168.588L204.592 117.303L244.353 134.646L284.114 151.99L257.233 185.931Z" fill="white"/>
<path d="M424.864 239.268C423.557 222.671 406.944 185.932 406.384 184.44L398.17 166.35C397.61 165.231 396.49 164.672 395.37 165.045L348.329 181.829C347.395 182.202 346.089 182.388 346.089 183.321C345.902 187.61 347.209 196.562 355.236 200.292L338.622 206.446C337.689 206.819 338.622 207.565 338.622 208.684C338.622 209.243 340.675 221.738 351.689 224.535C352.062 227.519 353.556 233.673 357.102 237.403C359.342 239.641 363.449 240.76 366.623 240.947C366.623 244.676 367.369 250.644 372.036 253.442C376.516 256.239 391.823 253.442 398.543 251.95C396.49 254.747 392.383 259.782 393.503 267.801C393.69 268.92 426.357 257.358 424.864 239.268Z" fill="#7CA0FC"/>
<path d="M351.129 226.027C350.943 226.027 350.756 226.027 350.756 226.027C338.996 223.23 336.569 207.378 336.569 206.632C336.382 205.7 336.942 204.954 337.876 204.581L405.077 181.642C406.011 181.269 407.131 181.829 407.504 182.761C407.877 183.694 407.317 184.813 406.384 185.186L340.676 207.564C341.422 211.294 344.222 220.432 351.689 222.297C352.623 222.484 353.369 223.603 352.996 224.535C352.623 225.468 351.876 226.027 351.129 226.027Z" fill="#414141"/>
<path d="M355.983 201.969C355.796 201.969 355.609 201.969 355.609 201.969C343.476 199.172 343.662 183.134 343.662 182.574C343.662 181.828 344.222 181.082 344.969 180.896L398.544 161.874C399.477 161.501 400.597 162.06 400.97 162.993C401.344 163.925 400.784 165.044 399.85 165.417L347.582 183.88C347.769 187.236 349.076 196.561 356.543 198.426C357.476 198.612 358.223 199.731 357.849 200.664C357.663 201.41 356.916 201.969 355.983 201.969Z" fill="#414141"/>
<path d="M366.063 242.251C354.302 242.251 350.382 230.689 349.822 224.348C349.822 223.416 350.196 222.67 351.129 222.483L415.344 201.41C416.277 201.037 417.397 201.596 417.771 202.529C418.144 203.461 417.584 204.58 416.651 204.953L353.929 225.467C354.489 229.197 356.916 238.522 366.249 238.522C366.436 238.522 366.623 238.522 366.809 238.522C367.743 238.522 368.676 239.267 368.676 240.386C368.676 241.505 367.929 242.251 366.809 242.251C366.436 242.251 366.249 242.251 366.063 242.251Z" fill="#414141"/>
<path d="M393.876 269.106C392.943 269.106 392.196 268.36 392.01 267.428C391.263 261.46 392.943 256.984 395.183 254C387.53 255.865 376.143 257.917 371.102 254.746C364.569 250.83 364.569 243.184 365.502 239.827C365.689 239.268 366.249 238.708 366.809 238.522L418.517 224.162C419.45 223.975 420.57 224.535 420.757 225.467C420.944 226.4 420.384 227.519 419.45 227.705L368.862 241.692C368.489 243.743 368.489 248.779 372.969 251.576C378.196 254.746 395.183 250.27 401.343 248.406C402.277 248.033 403.21 248.592 403.583 249.525C403.957 250.457 403.583 251.389 402.837 251.949C402.463 252.135 394.436 256.798 395.743 267.055C395.93 267.987 395.183 268.92 394.063 269.106C394.063 268.92 393.876 269.106 393.876 269.106Z" fill="#414141"/>
<path d="M65.7085 239.268C67.0152 222.671 83.629 185.932 84.189 184.44L92.4025 166.35C92.9625 165.231 94.0826 164.672 95.2026 165.045L144.297 182.575C145.23 182.948 144.67 184.253 144.857 185.186C145.044 189.475 143.737 194.324 135.524 199.732L148.964 205.327C149.897 205.7 152.324 206.073 152.324 207.192C152.324 207.751 150.271 221.925 139.257 224.722C138.884 227.706 137.204 234.419 133.47 238.149C131.23 240.387 126.937 240.947 123.763 241.133C123.763 244.863 123.39 250.271 118.91 253.255C114.43 256.052 99.8694 253.815 93.1492 252.136C94.6426 254.933 98.0027 262.766 96.8826 267.615C96.696 268.92 64.4018 257.358 65.7085 239.268Z" fill="#7CA0FC"/>
<path d="M139.256 225.841C138.509 225.841 137.762 225.468 137.576 224.722C137.202 223.789 137.762 222.67 138.696 222.297C149.523 218.194 150.643 210.548 150.643 207.751L84.5612 185.186C83.6278 184.813 83.0678 183.88 83.4412 182.761C83.8145 181.829 84.7479 181.269 85.8679 181.642L153.07 204.581C153.816 204.767 154.19 205.327 154.376 206.073C154.376 206.259 156.056 219.686 140.189 225.654C139.816 225.841 139.443 225.841 139.256 225.841Z" fill="#414141"/>
<path d="M134.03 201.783C133.096 201.783 132.35 201.223 132.163 200.291C131.976 199.358 132.536 198.239 133.47 198.053C140.937 196.375 142.617 187.236 142.99 183.693L92.2155 165.417C91.2821 165.044 90.7221 163.925 91.0955 162.993C91.4688 162.06 92.5888 161.501 93.5222 161.874L145.603 180.709C146.35 180.896 146.91 181.642 146.91 182.574C146.91 183.32 146.35 198.985 134.403 201.783C134.217 201.783 134.217 201.783 134.03 201.783Z" fill="#414141"/>
<path d="M124.51 242.251C124.324 242.251 123.95 242.251 123.764 242.251C122.644 242.251 121.897 241.319 121.897 240.386C121.897 239.267 122.83 238.522 123.764 238.522C133.471 238.895 136.084 229.197 136.644 225.467L73.9225 204.953C72.9892 204.58 72.4291 203.648 72.8025 202.529C73.1758 201.596 74.1092 201.037 75.2292 201.41L139.444 222.483C140.191 222.67 140.751 223.602 140.751 224.348C140.377 230.502 136.271 242.251 124.51 242.251Z" fill="#414141"/>
<path d="M96.8832 269.106H96.6965C95.7632 268.92 95.0165 267.987 95.0165 267.055C96.3232 256.611 88.2963 252.135 87.923 251.949C87.1763 251.576 86.803 250.457 87.1763 249.525C87.5497 248.592 88.483 248.219 89.4164 248.406C95.5765 250.27 112.564 254.56 117.79 251.576C122.27 248.965 122.271 243.93 121.897 241.692L71.3093 227.705C70.3759 227.519 69.8159 226.4 70.0026 225.467C70.1892 224.535 71.3093 223.975 72.2426 224.162L123.951 238.522C124.511 238.708 125.071 239.268 125.257 239.827C126.191 243.37 126.191 250.83 119.657 254.746C114.617 257.73 103.043 255.865 95.5765 254C97.8166 256.984 99.4966 261.46 98.7499 267.428C98.5633 268.36 97.8166 269.106 96.8832 269.106Z" fill="#414141"/>
</g>
<defs>
<filter id="filter0_d_370_772" x="342.344" y="-8.99707" width="167.709" height="255.815" filterUnits="userSpaceOnUse" color-interpolation-filters="sRGB">
<feFlood flood-opacity="0" result="BackgroundImageFix"/>
<feColorMatrix in="SourceAlpha" type="matrix" values="0 0 0 0 0 0 0 0 0 0 0 0 0 0 0 0 0 0 127 0" result="hardAlpha"/>
<feOffset dy="10"/>
<feGaussianBlur stdDeviation="15"/>
<feComposite in2="hardAlpha" operator="out"/>
<feColorMatrix type="matrix" values="0 0 0 0 1 0 0 0 0 0.745098 0 0 0 0 0.0666667 0 0 0 0.3 0"/>
<feBlend mode="normal" in2="BackgroundImageFix" result="effect1_dropShadow_370_772"/>
<feBlend mode="normal" in="SourceGraphic" in2="effect1_dropShadow_370_772" result="shape"/>
</filter>
<filter id="filter1_d_370_772" x="48.125" y="-20.0303" width="385.676" height="385.361" filterUnits="userSpaceOnUse" color-interpolation-filters="sRGB">
<feFlood flood-opacity="0" result="BackgroundImageFix"/>
<feColorMatrix in="SourceAlpha" type="matrix" values="0 0 0 0 0 0 0 0 0 0 0 0 0 0 0 0 0 0 127 0" result="hardAlpha"/>
<feOffset dy="10"/>
<feGaussianBlur stdDeviation="15"/>
<feComposite in2="hardAlpha" operator="out"/>
<feColorMatrix type="matrix" values="0 0 0 0 1 0 0 0 0 0.745098 0 0 0 0 0.0666667 0 0 0 0.3 0"/>
<feBlend mode="normal" in2="BackgroundImageFix" result="effect1_dropShadow_370_772"/>
<feBlend mode="normal" in="SourceGraphic" in2="effect1_dropShadow_370_772" result="shape"/>
</filter>
<clipPath id="clip0_370_772">
<rect width="549" height="439" fill="white"/>
</clipPath>
</defs>
</svg>
