<svg width="362" height="295" viewBox="0 0 362 295" fill="none" xmlns="http://www.w3.org/2000/svg">
<g clip-path="url(#clip0_370_295)">
<path d="M-23.8831 293.601C-29.4063 290.612 -32.4369 284.164 -30.8267 277.746L14.4183 78.0053C15.3305 74.311 17.6285 71.2114 20.8025 69.3613C24.0415 67.3912 27.9067 66.8456 31.4181 67.8148L302.257 135.557C305.953 136.472 309.056 138.771 310.909 141.945C312.881 145.183 313.43 149.047 312.462 152.557L267.152 333.557C266.24 337.251 263.942 340.351 260.768 342.201C257.529 344.171 253.664 344.717 250.152 343.748L-20.6865 294.865C-21.7769 294.585 -22.9225 294.12 -23.8831 293.601ZM304.155 139.221C303.315 138.767 302.409 138.432 301.439 138.217L30.785 70.4193C27.754 69.71 24.7488 70.1004 22.1946 71.6655C19.6404 73.2306 17.7319 75.6103 17.0242 78.6397L-28.2857 278.5C-28.9934 281.529 -28.601 284.534 -27.0337 287.088C-25.4664 289.642 -22.9645 291.616 -20.0535 292.26L250.721 341.263C253.752 341.972 256.757 341.582 259.311 340.017C261.865 338.452 263.839 335.952 264.481 333.043L309.791 152.042C311.057 146.833 308.598 141.625 304.155 139.221Z" fill="white"/>
<path d="M29.18 90.025C28.2194 89.5053 27.3887 88.7456 26.8078 87.811C25.8765 86.3765 25.6852 84.7219 26.104 83.0872C27.0065 79.6978 30.4305 77.6727 33.7017 78.512C35.3373 78.9316 36.6483 79.9511 37.5796 81.3856C38.5109 82.8201 38.7022 84.4747 38.2834 86.1094C37.3809 89.4988 33.957 91.5239 30.6858 90.6846C30.0205 90.4798 29.5402 90.2199 29.18 90.025ZM33.854 81.3863C33.6138 81.2563 33.3737 81.1264 33.0686 81.1165C31.1279 80.6869 29.2585 81.8469 28.7099 83.7216C28.4957 84.6914 28.6514 85.5512 29.1121 86.4209C29.5729 87.2906 30.3485 87.8653 31.3188 88.0801C33.2595 88.5097 35.1289 87.3496 35.6775 85.475C35.8918 84.5052 35.7361 83.6454 35.2753 82.7757C34.8697 82.0909 34.3342 81.6461 33.854 81.3863Z" fill="white"/>
<path d="M45.1761 94.0264C44.2155 93.5067 43.3848 92.747 42.8039 91.8123C41.8726 90.3778 41.6813 88.7232 42.1001 87.0885C43.0026 83.6992 46.4265 81.6741 49.6978 82.5133C51.3334 82.9329 52.6444 83.9525 53.5757 85.387C54.507 86.8215 54.6983 88.476 54.2795 90.1107C53.377 93.5001 49.9531 95.5252 46.6818 94.686C46.1366 94.5461 45.6564 94.2862 45.1761 94.0264ZM49.85 85.3876C49.6099 85.2577 49.3698 85.1277 48.9446 85.0528C47.004 84.6233 45.1346 85.7833 44.586 87.658C44.1574 89.5976 45.3191 91.467 47.1948 92.0165C49.1355 92.4461 51.0049 91.286 51.5535 89.4114C51.7678 88.4416 51.6121 87.5818 51.1513 86.7121C50.8658 86.0923 50.4504 85.7124 49.85 85.3876Z" fill="white"/>
<path d="M61.2922 98.0927C58.7707 96.7284 57.5183 93.8793 58.1611 90.9699C58.5799 89.3352 59.599 88.0253 61.0335 87.0953C62.468 86.1653 64.1232 85.975 65.7588 86.3947C69.15 87.2989 71.1781 90.7227 70.3405 93.9921C69.438 97.3815 66.0141 99.4066 62.7429 98.5673C62.1327 98.5474 61.7725 98.3525 61.2922 98.0927ZM65.9662 89.4539C65.7261 89.324 65.4859 89.1941 65.1809 89.1841C64.2105 88.9693 63.3505 89.1244 62.4807 89.5845C61.6109 90.0445 61.0365 90.8194 60.8222 91.7892C60.3936 93.7289 61.5553 95.5982 63.4311 96.1478C64.4014 96.3626 65.2614 96.2074 66.1312 95.7474C67.001 95.2874 67.5755 94.5124 67.7897 93.5426C68.0884 91.843 67.287 90.1685 65.9662 89.4539Z" fill="white"/>
<path d="M41.8472 275.26L-6.74612 249.745C-16.5368 244.603 -20.242 232.516 -15.1687 222.853L10.4473 174.359C15.5855 164.576 27.6746 160.88 37.3452 165.957L85.9385 191.473C95.7292 196.615 99.4344 208.701 94.3611 218.365L68.8651 266.923C63.6069 276.641 51.6379 280.403 41.8472 275.26Z" fill="#82A1F0"/>
<path d="M62.2107 238.196L65.9759 231.237L59.9918 227.379C60.745 224.839 61.073 222.225 61.031 219.72L67.8951 217.075L65.6337 209.492L58.6237 210.973C57.4166 208.614 55.8947 206.549 53.873 204.835L56.8982 198.096L49.814 194.263L45.9581 200.243C43.4171 199.488 40.8014 199.159 38.296 199.199L35.6451 192.336L28.0606 194.592L29.5464 201.6C27.187 202.805 25.1228 204.325 23.4091 206.345L16.9057 203.447L13.0757 210.526L18.8196 214.254C18.0665 216.793 17.7385 219.408 17.7804 221.912L10.9164 224.558L13.1777 232.141L20.1877 230.66C21.3948 233.019 22.9167 235.083 24.9384 236.798L22.043 243.297L29.1272 247.129L32.8533 241.39C35.3944 242.144 38.01 242.474 40.5154 242.434L43.1663 249.296L50.8709 247.106L49.3851 240.098C51.7445 238.892 53.8087 237.372 55.5224 235.353L62.2107 238.196ZM33.461 231.947C27.2173 228.569 24.9008 220.801 28.2764 214.562C31.6521 208.323 39.4215 206.012 45.6653 209.39C51.909 212.769 54.2255 220.536 50.8498 226.775C47.4742 233.015 39.7047 235.325 33.461 231.947Z" fill="white"/>
<path d="M303.668 229.085L194.66 169.633L174.446 165.989L188.428 180.97L297.437 240.422C301.827 238.33 304.359 233.758 303.668 229.085Z" fill="white"/>
<path d="M303.674 229.085L194.665 169.633L188.591 180.895L297.599 240.347C301.833 238.33 304.365 233.757 303.674 229.085Z" fill="#82A1F2"/>
<path d="M297.074 241.464C296.958 241.423 296.958 241.423 296.842 241.382L187.834 181.929C187.718 181.888 187.602 181.847 187.527 181.691L173.545 166.71C173.164 166.314 173.096 165.769 173.376 165.348C173.656 164.926 174.167 164.586 174.63 164.75L194.844 168.394C194.96 168.435 195.076 168.476 195.191 168.517L304.2 227.969C304.547 228.092 304.813 228.447 304.806 228.835C305.68 234.093 302.786 239.319 298.007 241.404C297.694 241.553 297.421 241.587 297.074 241.464ZM189.191 179.936L297.587 238.911C300.921 237.226 302.894 233.497 302.495 229.84L194.14 170.749L177.878 167.724L189.191 179.936Z" fill="#82A1F2"/>
<path d="M150.221 209.443C154.076 210.917 156.822 214.241 157.72 218.197L170.108 279.663C170.762 282.856 170.113 285.953 168.297 288.604C166.48 291.254 163.791 293.036 160.713 293.733L99.2195 306.083C97.0208 306.581 94.6949 306.36 92.592 305.557C88.7368 304.083 85.9907 300.759 85.0928 296.803L72.8666 235.265C72.2129 232.072 72.8612 228.975 74.6778 226.324C76.4944 223.674 79.1839 221.892 82.262 221.195L143.755 208.845C145.792 208.419 148.118 208.64 150.221 209.443ZM151.114 207.109C148.66 206.171 145.939 205.933 143.067 206.441L81.5741 218.792C73.7483 220.349 68.7107 227.923 70.2729 235.745L82.6605 297.211C83.6687 302.279 87.1434 306.15 91.6995 307.891C94.1528 308.829 96.8739 309.067 99.7459 308.559L161.239 296.208C169.065 294.651 174.102 287.077 172.54 279.255L160.153 217.789C159.144 212.721 155.553 208.806 151.114 207.109Z" fill="white"/>
<path d="M82.7772 297.255L79.935 283.324L84.9726 275.751C88.6951 270.216 96.2426 268.686 101.782 272.409C107.015 275.881 114.24 274.496 117.712 269.267L137.361 239.582C142.059 232.547 151.482 230.664 158.523 235.362L164.413 239.22L172.423 279.21C173.986 287.032 168.948 294.606 161.122 296.164L99.6289 308.514C91.92 310.116 84.3395 305.078 82.7772 297.255Z" fill="white"/>
<path d="M88.1679 203.118L105.794 180.331L123.346 157.504L94.5671 156.677L65.7149 155.811L80.1833 171.2L61.4771 180.076L66.6691 191.108L85.3754 182.232L88.1679 203.118Z" fill="white"/>
<path d="M215.818 219.752L150.42 179.907C141.24 174.308 129.313 177.24 123.713 186.412C118.45 194.958 120.747 205.968 128.501 211.888L137.772 217.616L195.647 252.837C204.826 258.435 216.754 255.503 222.354 246.331C227.843 237.14 224.907 225.22 215.818 219.752Z" fill="#F3C02A"/>
<path d="M143.216 196.655L141.812 198.958L202.792 236.087L204.195 233.784L143.216 196.655Z" fill="white"/>
</g>
<defs>
<clipPath id="clip0_370_295">
<rect width="351.26" height="282.794" fill="white" transform="translate(52.5703) rotate(28.4154)"/>
</clipPath>
</defs>
</svg>
