<svg width="318" height="286" viewBox="0 0 318 286" fill="none" xmlns="http://www.w3.org/2000/svg">
<path d="M28.6757 274.386C29.2741 274.327 29.9805 274.137 30.6868 273.946L305.057 190.946C307.763 190.197 309.884 188.421 311.205 185.879C312.537 183.457 312.745 180.664 311.876 177.976L258.655 8.4072C257.44 4.66894 253.842 2.49199 250.549 3.41951L-31.4364 88.8584C-34.717 89.9053 -36.5064 93.8193 -35.2917 97.5576L17.9407 267.246C19.3693 271.928 24.0078 274.846 28.6757 274.386ZM251.982 5.68953C253.897 5.50067 255.737 7.00705 256.44 9.22849L309.66 178.798C310.339 180.78 310.072 182.977 309.16 184.755C308.14 186.664 306.462 188.035 304.463 188.594L30.104 271.713C25.9974 272.962 21.5374 270.629 20.2874 266.532L-33.0765 96.7363C-33.8026 94.276 -32.853 91.6505 -30.8536 91.0917L251.275 5.87975C251.503 5.73674 251.742 5.71314 251.982 5.68953Z" fill="white"/>
<path d="M239.766 22.3073C240.302 24.0629 242.083 24.9723 243.844 24.437C245.604 23.9018 246.516 22.1239 245.98 20.3683C245.444 18.6126 243.663 17.7033 241.903 18.2385C240.143 18.7738 239.111 20.5635 239.766 22.3073Z" fill="#7CA0FC"/>
<path d="M230.62 25.1384C231.155 26.894 232.937 27.8034 234.697 27.2681C236.457 26.7328 237.369 24.955 236.834 23.1993C236.298 21.4437 234.516 20.5343 232.756 21.0696C230.996 21.6049 230.084 23.3827 230.62 25.1384Z" fill="#7CA0FC"/>
<path d="M221.471 27.9694C222.007 29.725 223.789 30.6344 225.549 30.0992C227.309 29.5639 228.221 27.786 227.685 26.0304C227.15 24.2748 225.368 23.3654 223.608 23.9006C221.968 24.4241 220.947 26.3332 221.471 27.9694Z" fill="#7CA0FC"/>
<path d="M52.4601 251.646L58.0539 240.967L47.472 235.379L46.3556 237.539L54.8929 242.002L50.4156 250.521L52.4601 251.646Z" fill="#7CA0FC"/>
<path d="M36.5116 256.594L37.628 254.435L29.0907 249.972L33.5681 241.452L31.5235 240.328L25.9297 251.007L36.5116 256.594Z" fill="#7CA0FC"/>
<path d="M-0.806974 90.6487L1.41797 97.748L-0.877868 98.4652L-3.10281 91.3658L-0.806974 90.6487Z" fill="#7CA0FC"/>
<path d="M2.35626 92.2929L3.07422 94.583L-4.0428 96.8068L-4.76076 94.5167L2.35626 92.2929Z" fill="#7CA0FC"/>
<path d="M285.267 259.43L288.557 252.354C295.368 251.562 301.478 247.342 304.372 241.149C309.186 231.15 304.873 219.278 294.972 214.467C290.153 212.169 284.685 211.865 279.668 213.686C274.651 215.507 270.528 219.048 268.235 223.976C265.221 230.181 265.7 237.488 269.412 243.271L265.991 250.239L285.267 259.43ZM287.005 250.096L284.099 256.17L269.259 249.073L272.165 242.999L271.747 242.438C268.213 237.24 267.674 230.542 270.375 224.85C272.369 220.554 275.928 217.43 280.49 215.895C284.932 214.372 289.79 214.617 293.976 216.615C302.729 220.815 306.542 231.29 302.339 240.144C299.637 245.836 294.09 249.638 287.735 250.144L287.005 250.096Z" fill="#FCCC42"/>
<path d="M278.797 256.331C279.276 256.284 279.611 256.009 279.815 255.627C279.923 255.496 284.055 245.926 287.285 239.459C288.996 239.652 290.791 239.475 292.3 238.843C294.276 238.046 295.69 236.46 296.112 234.609C296.45 233.129 295.447 231.54 293.809 230.858C292.935 230.582 289.957 229.791 287.269 234.397C286.849 235.041 286.441 235.804 286.045 236.687C285.171 236.412 284.406 236.005 283.51 235.491C283.258 235.395 282.995 235.18 282.852 234.953C284.222 231.683 285.387 228.795 285.581 227.088C285.776 225.381 284.212 223.003 282.322 222.225C281.437 221.83 279.081 221.219 276.826 224.093C275.963 225.143 275.745 226.611 276.041 228.391C276.528 230.874 278.008 233.622 279.895 235.606C277.325 241.405 273.891 248.254 272.163 251.56C271.863 252.192 272.053 252.897 272.687 253.196C273.321 253.495 274.027 253.305 274.327 252.672C274.639 252.159 278.697 244.284 281.867 237.22C281.999 237.328 282.13 237.435 282.262 237.543C283.158 238.057 284.055 238.572 285.048 238.835C281.818 245.303 277.975 254.121 277.782 254.622C277.482 255.255 277.792 255.948 278.426 256.247C278.438 256.366 278.677 256.343 278.797 256.331ZM292.213 233.065C292.453 233.041 292.692 233.018 292.824 233.125C293.446 233.305 293.756 233.998 293.648 234.129C293.395 235.239 292.639 236.158 291.358 236.646C290.544 236.967 289.598 237.181 288.509 237.168C288.821 236.655 289.133 236.142 289.325 235.64C290.261 234.101 291.256 233.159 292.213 233.065ZM280.356 224.348C280.715 224.313 281.086 224.397 281.218 224.504C282.354 224.995 283.093 226.369 283.021 226.858C282.779 228.088 282.046 230.451 280.868 233.219C279.626 231.654 278.588 229.707 278.304 228.047C278.078 226.984 278.235 226.125 278.547 225.612C279.302 224.693 279.997 224.383 280.356 224.348Z" fill="white"/>
<path d="M275.403 268.481L264.999 263.479C263.218 262.569 262.407 260.479 263.308 258.582L267.618 249.597L284.491 257.698L280.18 266.683C279.399 268.569 277.184 269.39 275.403 268.481Z" fill="white"/>
<path d="M265.633 252.855L283.963 261.608L283.183 263.232L264.853 254.479L265.633 252.855Z" fill="white"/>
<path d="M267.238 249.22L285.568 257.973L284.789 259.596L266.459 250.843L267.238 249.22Z" fill="white"/>
<path d="M11.6222 113.287L50.2023 54.7461C50.2023 54.7461 59.3203 55.2937 58.8456 60.2836C58.3591 65.1542 52.177 91.9262 52.177 91.9262C52.177 91.9262 11.1357 118.158 11.6222 113.287Z" fill="#7CA0FC"/>
<path d="M116.427 101.263C116.448 95.3537 60.1351 85.5956 60.1351 85.5956C60.1351 85.5956 39.2209 90.4312 31.6256 95.5205C23.8988 100.502 16.8902 105.413 11.7437 113.275C6.59724 121.137 -7.03914 139.723 -7.03914 139.723L65.4728 115.21L89.6167 111.262C89.6167 111.262 116.158 112.02 116.427 101.263Z" fill="#7CA0FC"/>
<path d="M24.9866 100.515C25.226 100.492 25.3457 100.48 25.5733 100.337C36.3432 93.126 53.7276 88.0358 53.8473 88.024C54.434 87.8455 54.8538 87.2013 54.6635 86.4967C54.4849 85.9115 53.8394 85.4929 53.133 85.6831C52.4267 85.8734 35.2817 90.94 24.1644 98.3057C23.6013 98.7229 23.4326 99.4629 23.8505 100.025C24.1252 100.359 24.5078 100.563 24.9866 100.515Z" fill="white"/>
<path d="M-107.687 162.515L-17.6774 154.395C-17.6774 154.395 -12.2956 141.567 1.77453 128.605C6.42468 124.288 12.1638 119.985 18.9076 116.065C33.2093 107.903 45.2096 102.138 53.317 98.5653C60.1432 95.4808 68.184 96.1346 74.616 100.082L117.727 126.695C117.727 126.695 117.56 140.938 105.848 138.596C100.799 137.647 67.3332 126.721 67.3332 126.721C67.3332 126.721 44.712 136.306 42.966 150.464C41.3397 164.61 51.6506 160.097 57.6488 158.42C61.7673 157.291 67.4623 195.43 42.6455 208.487C28.6322 215.897 -67.7164 229.585 -100.211 239.541L-107.806 162.526L-107.687 162.515Z" fill="#7CA0FC"/>
<path d="M93.2058 112.114C93.5648 112.078 93.9121 111.923 94.1162 111.542C94.4281 111.029 94.3457 110.193 93.7119 109.894C85.4748 104.798 65.8199 92.9924 62.0232 94.9341C58.5738 96.7211 28.528 109.45 28.1807 109.605C27.6058 109.903 27.3056 110.535 27.496 111.24C27.7942 111.813 28.428 112.112 29.1344 111.922C30.4156 111.434 59.5275 99.0383 63.0848 97.1202C65.1921 96.4301 79.9828 104.255 92.3444 111.957C92.727 112.161 92.9664 112.137 93.2058 112.114Z" fill="white"/>
<path d="M130.37 197.304L71.5934 231.192L97.3566 165.234L62.0767 128.566L121.435 134.889L160.306 96.4537L160.531 150.203L215.536 162.622L160.349 188.801L162.442 249.239L130.37 197.304Z" fill="#FCCC42"/>
<path d="M57.432 158.683C61.3837 157.087 85.6531 149.51 93.1936 148.766C96.9039 148.4 102.635 148.92 107.372 150.382C105.734 149.7 113.472 152.192 108.999 150.945C113.029 152.597 115.801 154.976 114.552 158.234C111.764 165.502 94.5145 168.288 84.963 176.825C75.2919 185.374 61.8733 202.492 35.4475 211.488C28.0837 214.022 14.0212 214.806 -1.66012 217.559C-9.31058 212.285 -13.9433 205.749 -14.6616 198.465C-16.6183 179.85 53.4685 160.159 57.432 158.683Z" fill="#7CA0FC"/>
<path d="M169.13 116.079L252.434 107.864L252.669 110.252L169.365 118.467L169.13 116.079Z" fill="white"/>
<path d="M155.687 125.603L253.234 115.983L253.47 118.371L155.923 127.992L155.687 125.603Z" fill="white"/>
<path d="M198.391 129.711L254.047 124.222L254.282 126.61L198.627 132.099L198.391 129.711Z" fill="white"/>
<path d="M203.941 78.1649L249.064 73.7148L249.771 80.879L204.648 85.329L203.941 78.1649Z" fill="white"/>
<path d="M191.019 92.9426L250.385 87.0879L251.091 94.2521L191.725 100.107L191.019 92.9426Z" fill="white"/>
<path d="M255.23 244.067L257.624 243.83C255.821 226.768 249.455 203.886 229.023 191.553C218.873 185.441 208.081 183.853 200.96 183.952C200.615 182.901 200.15 181.862 199.565 180.835C191.008 166.367 169.855 171.226 161.066 174.022L161.78 176.363C178.998 170.807 192.015 172.899 197.397 182.134C197.827 182.815 198.125 183.388 198.435 184.081C196.52 184.27 195.096 184.531 194.173 184.983C187.551 187.686 183.847 191.789 183.696 196.385C183.655 199.644 185.517 202.596 188.543 203.864C191.7 205.241 195.135 204.54 198.012 201.846C202.003 198.197 202.827 191.846 201.675 186.293C208.317 186.241 218.39 187.9 227.763 193.486C243.209 203.055 252.779 220.437 255.23 244.067ZM199.281 186.529C200.66 191.939 199.275 197.501 196.399 200.196C194.301 202.211 191.811 202.698 189.539 201.717C187.399 200.843 186.098 198.68 186.113 196.388C186.131 192.89 189.415 189.431 195.115 187.181C195.941 186.979 197.366 186.718 199.281 186.529Z" fill="white"/>
<path d="M175.491 178.145C175.731 178.122 176.078 177.967 176.306 177.824C176.521 177.562 176.725 177.18 176.57 176.833L175.112 168.176C175.077 167.818 174.802 167.483 174.42 167.28C174.037 167.076 173.678 167.112 173.331 167.267L160.634 174.547C160.179 174.833 159.986 175.334 160.034 175.812C160.081 176.289 160.607 176.72 161.097 176.792L175.252 178.169C175.372 178.157 175.491 178.145 175.491 178.145ZM173.135 170.179L174.035 175.637L165.253 174.815L173.135 170.179Z" fill="white"/>
</svg>
