<svg width="321" height="287" viewBox="0 0 321 287" fill="none" xmlns="http://www.w3.org/2000/svg">
<path d="M28.6757 275.386C29.2741 275.327 29.9805 275.137 30.6868 274.946L305.057 191.946C307.763 191.197 309.884 189.421 311.205 186.879C312.537 184.457 312.745 181.664 311.876 178.976L258.655 9.4072C257.44 5.66894 253.842 3.49199 250.549 4.41951L-31.4364 89.8584C-34.717 90.9053 -36.5064 94.8193 -35.2917 98.5576L17.9407 268.246C19.3693 272.928 24.0078 275.846 28.6757 275.386ZM251.982 6.68953C253.897 6.50067 255.737 8.00705 256.44 10.2285L309.66 179.798C310.339 181.78 310.072 183.977 309.16 185.755C308.14 187.664 306.462 189.035 304.463 189.594L30.104 272.713C25.9974 273.962 21.5374 271.629 20.2874 267.532L-33.0765 97.7363C-33.8026 95.276 -32.853 92.6505 -30.8536 92.0917L251.275 6.87975C251.503 6.73674 251.742 6.71314 251.982 6.68953Z" fill="white"/>
<path d="M239.766 23.3073C240.302 25.0629 242.083 25.9723 243.844 25.437C245.604 24.9018 246.516 23.1239 245.98 21.3683C245.444 19.6126 243.663 18.7033 241.903 19.2385C240.143 19.7738 239.111 21.5635 239.766 23.3073Z" fill="#7CA0FC"/>
<path d="M230.62 26.1384C231.155 27.894 232.937 28.8034 234.697 28.2681C236.457 27.7328 237.369 25.955 236.834 24.1993C236.298 22.4437 234.516 21.5343 232.756 22.0696C230.996 22.6049 230.084 24.3827 230.62 26.1384Z" fill="#7CA0FC"/>
<path d="M221.471 28.9694C222.007 30.725 223.789 31.6344 225.549 31.0992C227.309 30.5639 228.221 28.786 227.685 27.0304C227.15 25.2748 225.368 24.3654 223.608 24.9006C221.968 25.4241 220.947 27.3332 221.471 28.9694Z" fill="#7CA0FC"/>
<path d="M52.4601 252.646L58.0539 241.967L47.472 236.379L46.3556 238.539L54.8929 243.002L50.4156 251.521L52.4601 252.646Z" fill="#7CA0FC"/>
<path d="M36.5116 257.594L37.628 255.435L29.0907 250.972L33.5681 242.452L31.5235 241.328L25.9297 252.007L36.5116 257.594Z" fill="#7CA0FC"/>
<path d="M-0.806974 91.6487L1.41797 98.748L-0.877868 99.4652L-3.10281 92.3658L-0.806974 91.6487Z" fill="#7CA0FC"/>
<path d="M2.35626 93.2929L3.07422 95.583L-4.0428 97.8068L-4.76076 95.5167L2.35626 93.2929Z" fill="#7CA0FC"/>
<path d="M285.267 260.43L288.557 253.354C295.368 252.562 301.478 248.342 304.372 242.149C309.186 232.15 304.873 220.278 294.972 215.467C290.153 213.169 284.685 212.865 279.668 214.686C274.651 216.507 270.528 220.048 268.235 224.976C265.221 231.181 265.7 238.488 269.412 244.271L265.991 251.239L285.267 260.43ZM287.005 251.096L284.099 257.17L269.259 250.073L272.165 243.999L271.747 243.438C268.213 238.24 267.674 231.542 270.375 225.85C272.369 221.554 275.928 218.43 280.49 216.895C284.932 215.372 289.79 215.617 293.976 217.615C302.729 221.815 306.542 232.29 302.339 241.144C299.637 246.836 294.09 250.638 287.735 251.144L287.005 251.096Z" fill="#FCCC42"/>
<path d="M278.797 257.331C279.276 257.284 279.611 257.009 279.815 256.627C279.923 256.496 284.055 246.926 287.285 240.459C288.996 240.652 290.791 240.475 292.3 239.843C294.276 239.046 295.69 237.46 296.112 235.609C296.45 234.129 295.447 232.54 293.809 231.858C292.935 231.582 289.957 230.791 287.269 235.397C286.849 236.041 286.441 236.804 286.045 237.687C285.171 237.412 284.406 237.005 283.51 236.491C283.258 236.395 282.995 236.18 282.852 235.953C284.222 232.683 285.387 229.795 285.581 228.088C285.776 226.381 284.212 224.003 282.322 223.225C281.437 222.83 279.081 222.219 276.826 225.093C275.963 226.143 275.745 227.611 276.041 229.391C276.528 231.874 278.008 234.622 279.895 236.606C277.325 242.405 273.891 249.254 272.163 252.56C271.863 253.192 272.053 253.897 272.687 254.196C273.321 254.495 274.027 254.305 274.327 253.672C274.639 253.159 278.697 245.284 281.867 238.22C281.999 238.328 282.13 238.435 282.262 238.543C283.158 239.057 284.055 239.572 285.048 239.835C281.818 246.303 277.975 255.121 277.782 255.622C277.482 256.255 277.792 256.948 278.426 257.247C278.438 257.366 278.677 257.343 278.797 257.331ZM292.213 234.065C292.453 234.041 292.692 234.018 292.824 234.125C293.446 234.305 293.756 234.998 293.648 235.129C293.395 236.239 292.639 237.158 291.358 237.646C290.544 237.967 289.598 238.181 288.509 238.168C288.821 237.655 289.133 237.142 289.325 236.64C290.261 235.101 291.256 234.159 292.213 234.065ZM280.356 225.348C280.715 225.313 281.086 225.397 281.218 225.504C282.354 225.995 283.093 227.369 283.021 227.858C282.779 229.088 282.046 231.451 280.868 234.219C279.626 232.654 278.588 230.707 278.304 229.047C278.078 227.984 278.235 227.125 278.547 226.612C279.302 225.693 279.997 225.383 280.356 225.348Z" fill="white"/>
<path d="M275.403 269.481L264.999 264.479C263.218 263.569 262.407 261.479 263.308 259.582L267.618 250.597L284.491 258.698L280.18 267.683C279.399 269.569 277.184 270.39 275.403 269.481Z" fill="white"/>
<path d="M265.633 253.855L283.963 262.608L283.183 264.232L264.853 255.479L265.633 253.855Z" fill="white"/>
<path d="M267.238 250.22L285.568 258.973L284.789 260.596L266.459 251.843L267.238 250.22Z" fill="white"/>
<path d="M11.6222 114.287L50.2023 55.7461C50.2023 55.7461 59.3203 56.2937 58.8456 61.2836C58.3591 66.1542 52.177 92.9262 52.177 92.9262C52.177 92.9262 11.1357 119.158 11.6222 114.287Z" fill="#7CA0FC"/>
<path d="M116.427 102.263C116.448 96.3537 60.1351 86.5956 60.1351 86.5956C60.1351 86.5956 39.2209 91.4312 31.6256 96.5205C23.8988 101.502 16.8902 106.413 11.7437 114.275C6.59724 122.137 -7.03914 140.723 -7.03914 140.723L65.4728 116.21L89.6167 112.262C89.6167 112.262 116.158 113.02 116.427 102.263Z" fill="#7CA0FC"/>
<path d="M24.9866 101.515C25.226 101.492 25.3457 101.48 25.5733 101.337C36.3432 94.126 53.7276 89.0358 53.8473 89.024C54.434 88.8455 54.8538 88.2013 54.6635 87.4967C54.4849 86.9115 53.8394 86.4929 53.133 86.6831C52.4267 86.8734 35.2817 91.94 24.1644 99.3057C23.6013 99.7229 23.4326 100.463 23.8505 101.025C24.1252 101.359 24.5078 101.563 24.9866 101.515Z" fill="white"/>
<path d="M-107.687 163.515L-17.6774 155.395C-17.6774 155.395 -12.2956 142.567 1.77453 129.605C6.42468 125.288 12.1638 120.985 18.9076 117.065C33.2093 108.903 45.2096 103.138 53.317 99.5653C60.1432 96.4808 68.184 97.1346 74.616 101.082L117.727 127.695C117.727 127.695 117.56 141.938 105.848 139.596C100.799 138.647 67.3332 127.721 67.3332 127.721C67.3332 127.721 44.712 137.306 42.966 151.464C41.3397 165.61 51.6506 161.097 57.6488 159.42C61.7673 158.291 67.4623 196.43 42.6455 209.487C28.6322 216.897 -67.7164 230.585 -100.211 240.541L-107.806 163.526L-107.687 163.515Z" fill="#7CA0FC"/>
<path d="M93.2058 113.114C93.5648 113.078 93.9121 112.923 94.1162 112.542C94.4281 112.029 94.3457 111.193 93.7119 110.894C85.4748 105.798 65.8199 93.9924 62.0232 95.9341C58.5738 97.7211 28.528 110.45 28.1807 110.605C27.6058 110.903 27.3056 111.535 27.496 112.24C27.7942 112.813 28.428 113.112 29.1344 112.922C30.4156 112.434 59.5275 100.038 63.0848 98.1202C65.1921 97.4301 79.9828 105.255 92.3444 112.957C92.727 113.161 92.9664 113.137 93.2058 113.114Z" fill="white"/>
<path d="M130.37 198.304L71.5934 232.192L97.3566 166.234L62.0767 129.566L121.435 135.889L160.306 97.4537L160.531 151.203L215.536 163.622L160.349 189.801L162.442 250.239L130.37 198.304Z" fill="#FCCC42"/>
<path d="M57.432 159.683C61.3837 158.087 85.6531 150.51 93.1936 149.766C96.9039 149.4 102.635 149.92 107.372 151.382C105.734 150.7 113.472 153.192 108.999 151.945C113.029 153.597 115.801 155.976 114.552 159.234C111.764 166.502 94.5145 169.288 84.963 177.825C75.2919 186.374 61.8733 203.492 35.4475 212.488C28.0837 215.022 14.0212 215.806 -1.66012 218.559C-9.31058 213.285 -13.9433 206.749 -14.6616 199.465C-16.6183 180.85 53.4685 161.159 57.432 159.683Z" fill="#7CA0FC"/>
<path d="M169.13 117.079L252.434 108.864L252.669 111.252L169.365 119.467L169.13 117.079Z" fill="white"/>
<path d="M155.687 126.603L253.234 116.983L253.47 119.371L155.923 128.992L155.687 126.603Z" fill="white"/>
<path d="M198.391 130.711L254.047 125.222L254.282 127.61L198.627 133.099L198.391 130.711Z" fill="white"/>
<path d="M203.941 79.1649L249.064 74.7148L249.771 81.879L204.648 86.329L203.941 79.1649Z" fill="white"/>
<path d="M191.019 93.9426L250.385 88.0879L251.091 95.2521L191.725 101.107L191.019 93.9426Z" fill="white"/>
<path d="M255.23 245.067L257.624 244.83C255.821 227.768 249.455 204.886 229.023 192.553C218.873 186.441 208.081 184.853 200.96 184.952C200.615 183.901 200.15 182.862 199.565 181.835C191.008 167.367 169.855 172.226 161.066 175.022L161.78 177.363C178.998 171.807 192.015 173.899 197.397 183.134C197.827 183.815 198.125 184.388 198.435 185.081C196.52 185.27 195.096 185.531 194.173 185.983C187.551 188.686 183.847 192.789 183.696 197.385C183.655 200.644 185.517 203.596 188.543 204.864C191.7 206.241 195.135 205.54 198.012 202.846C202.003 199.197 202.827 192.846 201.675 187.293C208.317 187.241 218.39 188.9 227.763 194.486C243.209 204.055 252.779 221.437 255.23 245.067ZM199.281 187.529C200.66 192.939 199.275 198.501 196.399 201.196C194.301 203.211 191.811 203.698 189.539 202.717C187.399 201.843 186.098 199.68 186.113 197.388C186.131 193.89 189.415 190.431 195.115 188.181C195.941 187.979 197.366 187.718 199.281 187.529Z" fill="white"/>
<path d="M175.491 179.145C175.731 179.122 176.078 178.967 176.306 178.824C176.521 178.562 176.725 178.18 176.57 177.833L175.112 169.176C175.077 168.818 174.802 168.483 174.42 168.28C174.037 168.076 173.678 168.112 173.331 168.267L160.634 175.547C160.179 175.833 159.986 176.334 160.034 176.812C160.081 177.289 160.607 177.72 161.097 177.792L175.252 179.169C175.372 179.157 175.491 179.145 175.491 179.145ZM173.135 171.179L174.035 176.637L165.253 175.815L173.135 171.179Z" fill="white"/>
</svg>
