<svg width="332" height="267" viewBox="0 0 332 267" fill="none" xmlns="http://www.w3.org/2000/svg">
<path d="M252.114 74.4866C263.693 68.5532 268.271 54.3556 262.338 42.7755C256.405 31.1953 242.209 26.6176 230.63 32.5511C219.051 38.4845 214.473 52.682 220.406 64.2622C226.339 75.8424 240.535 80.42 252.114 74.4866Z" fill="#414141"/>
<path d="M129.721 176.745L128.906 176.648C105.459 172.33 71.61 129.359 71.61 129.359C55.691 89.4602 95.6137 47.455 119.9 41.7208C156.467 32.9588 269.103 60.4938 254.428 120.487L129.721 176.745Z" fill="#7CA0FC"/>
<path d="M286.18 97.5791C307.198 113.413 317.778 138.631 315.753 163.651C301.154 170.299 283.764 174.609 265.104 175.699C255.716 176.237 246.657 175.988 237.928 174.952L246.807 150.863C253.596 115.549 240.803 103.997 218.17 80.8893C218.17 80.8893 257.051 72.52 286.18 97.5791Z" fill="#7CA0FC"/>
<path d="M197.061 120.524C196.828 120.496 196.711 120.482 196.479 120.455C191.488 119.744 187.197 117.11 184.25 113.101C179.676 106.892 180.945 98.19 187.153 93.6151L213.796 73.9958C213.242 73.6939 212.818 73.2894 212.394 72.885C210.287 70.7463 209.106 67.773 209.218 64.8354C209.345 61.7814 210.738 58.9957 213.095 57.0328C216.885 53.9414 222.322 53.8785 226.119 56.6901C229.8 59.4878 231.356 64.2761 229.9 68.5888L245.455 89.6759C245.866 90.1967 245.783 90.8951 245.262 91.3055L210.327 117.141C206.579 119.883 201.833 121.09 197.061 120.524ZM220.785 56.8832C218.573 56.6207 216.265 57.173 214.559 58.623C212.722 60.1756 211.645 62.2905 211.471 64.7487C211.311 67.0905 212.212 69.4403 213.909 71.0581C214.655 71.7369 215.414 72.2992 216.317 72.6425C216.653 72.8003 216.961 73.191 217.036 73.554C217.11 73.917 216.939 74.3688 216.548 74.6766L188.473 95.4243C183.306 99.1785 182.203 106.484 186.073 111.665C188.726 115.167 192.462 117.499 196.755 118.127C201.048 118.754 205.417 117.739 208.919 115.085L242.826 89.9539L227.564 69.3739C227.373 68.9971 227.298 68.634 227.456 68.2987C228.815 64.8008 227.758 60.78 224.72 58.5307C223.653 57.5777 222.298 57.0628 220.785 56.8832Z" fill="#414141"/>
<path d="M242.843 242.937C242.843 242.937 261.039 220.898 222.696 219.77C184.352 218.642 141.661 210.387 115.63 195.021C69.3919 167.931 29.1883 105.909 122.438 76.0179C215.689 46.1267 274.978 112.421 281.5 141.997C288.124 171.703 300.915 229.999 242.843 242.937Z" fill="#F3C02A"/>
<path d="M242.39 216.914C242.157 216.886 242.041 216.873 241.822 216.728L241.282 216.31C239.441 214.911 238.526 212.678 238.789 210.466C238.954 209.07 239.586 207.728 240.539 206.661L237.327 206.87C235.903 206.937 234.691 206.203 234.131 204.956C233.571 203.709 233.867 202.21 234.806 201.259L230.151 200.706C228.754 200.54 227.687 199.587 227.257 198.238C226.827 196.888 227.225 195.519 228.267 194.698L225.488 194.25C224.324 194.112 223.476 193.303 223.004 192.303C222.533 191.303 222.685 190.022 223.377 189.16L223.651 188.839C224.92 187.101 226.948 185.925 229.098 185.708L239.124 184.773L253.267 175.002L253.474 173.256L244.737 173.281C242.498 173.252 240.211 172.626 238.371 171.227L238.152 171.083C236.955 170.233 236.306 168.739 236.602 167.24C236.781 165.727 237.864 164.557 239.33 164.141L250.009 160.687C257.858 158.195 266.321 158.492 273.959 161.759C275.816 161.035 283.31 157.557 283.765 148.758C283.834 148.176 284.368 147.649 284.964 147.602C288.134 147.742 316.33 148.846 317.42 160.544C318.185 169.015 312.274 177.049 300.367 183.898C292.138 188.587 283.912 191.27 282.576 191.584L243.219 216.894C242.87 216.853 242.623 216.942 242.39 216.914ZM244.143 204.138C244.608 204.193 244.93 204.467 245.121 204.844C245.299 205.337 245.113 205.905 244.723 206.213L242.626 207.971C241.714 208.689 241.241 209.695 241.116 210.743C240.95 212.139 241.497 213.503 242.578 214.339L281.312 189.309C281.442 189.206 281.558 189.22 281.558 189.22C281.921 189.145 316.312 178.826 314.818 160.589C314.101 152.713 294.561 150.276 285.763 149.821C284.506 160.414 274.19 163.793 274.06 163.896C273.813 163.984 273.464 163.943 273.245 163.799L272.91 163.641C265.84 160.559 257.856 160.202 250.486 162.632L239.807 166.086C239.198 166.25 238.78 166.79 238.711 167.372C238.641 167.954 238.805 168.564 239.359 168.866L239.578 169.01C240.995 170.004 242.816 170.574 244.589 170.549L254.62 170.559C254.969 170.601 255.305 170.759 255.51 171.019C255.715 171.279 255.79 171.642 255.749 171.992L255.204 175.586C255.162 175.935 255.018 176.154 254.758 176.36L240.197 186.671C240.066 186.774 239.82 186.863 239.587 186.835L229.199 187.845C227.644 188.014 226.37 188.807 225.403 189.991L225.129 190.313C224.855 190.634 224.93 190.997 225.018 191.244C225.121 191.374 225.312 191.751 225.661 191.792L230.988 192.661C231.453 192.716 231.761 193.106 231.952 193.483C232.013 193.963 231.958 194.428 231.567 194.736L229.614 196.275C229.094 196.685 229.257 197.295 229.243 197.411C229.346 197.541 229.51 198.151 230.208 198.234L237.308 199.077C237.773 199.132 238.095 199.406 238.272 199.899C238.464 200.276 238.278 200.844 238.004 201.166L236.4 202.746C235.996 203.17 236.173 203.664 236.159 203.78C236.262 203.91 236.439 204.404 237.152 204.37L243.924 203.993C244.026 204.124 244.026 204.124 244.143 204.138Z" fill="#414141"/>
<path d="M242.391 216.914C242.158 216.886 242.042 216.873 241.823 216.729L241.282 216.31C239.442 214.911 238.527 212.678 238.789 210.466C238.955 209.07 239.587 207.728 240.539 206.661L237.328 206.87C235.904 206.937 234.692 206.203 234.132 204.956C233.572 203.709 233.868 202.21 234.807 201.259L230.152 200.706C228.755 200.54 227.688 199.587 227.258 198.238C226.828 196.888 227.226 195.519 228.268 194.699L225.488 194.251C224.325 194.112 223.476 193.303 223.005 192.303C222.534 191.303 222.686 190.022 223.378 189.16L223.652 188.839C224.921 187.101 226.949 185.925 229.099 185.708L239.125 184.773L253.268 175.002L253.475 173.256L244.738 173.281C242.499 173.252 240.212 172.626 238.372 171.227L238.153 171.083C236.956 170.233 236.307 168.739 236.603 167.24C236.782 165.727 237.865 164.557 239.331 164.141L250.01 160.687C257.873 158.079 266.438 158.505 274.077 161.773L274.412 161.931C274.966 162.233 275.246 162.856 275.061 163.424C274.759 163.979 274.136 164.259 273.568 164.073L273.232 163.915C266.162 160.833 258.179 160.476 250.808 162.906L240.13 166.36C239.52 166.524 239.102 167.065 239.033 167.647C238.964 168.229 239.128 168.838 239.682 169.14L239.901 169.284C241.317 170.279 243.138 170.849 244.911 170.823L254.943 170.834C255.292 170.875 255.627 171.033 255.832 171.293C256.037 171.554 256.112 171.917 256.071 172.266L255.526 175.86C255.485 176.21 255.341 176.429 255.08 176.634L240.198 186.671C240.067 186.774 239.821 186.863 239.588 186.835L229.2 187.845C227.645 188.014 226.371 188.807 225.404 189.991L225.13 190.313C224.856 190.634 224.93 190.997 225.019 191.244C225.122 191.374 225.313 191.751 225.662 191.792L230.989 192.661C231.454 192.716 231.762 193.107 231.953 193.483C232.014 193.963 231.959 194.428 231.568 194.736L229.615 196.275C229.094 196.685 229.258 197.295 229.244 197.411C229.347 197.541 229.511 198.151 230.209 198.234L237.309 199.077C237.774 199.132 238.096 199.406 238.273 199.9C238.465 200.276 238.279 200.845 238.005 201.166L236.401 202.746C235.997 203.17 236.174 203.664 236.16 203.78C236.263 203.91 236.44 204.404 237.152 204.37L243.925 203.994C244.404 203.932 244.958 204.234 245.136 204.728C245.314 205.221 245.128 205.789 244.737 206.097L242.64 207.854C241.729 208.573 241.255 209.579 241.131 210.626C240.965 212.023 241.512 213.386 242.593 214.223L281.326 189.193C281.847 188.782 282.648 188.995 282.942 189.502C283.352 190.023 283.139 190.824 282.632 191.118L243.145 216.531C242.871 216.853 242.624 216.942 242.391 216.914Z" fill="#414141"/>
<path d="M230.827 195.002C230.245 194.933 229.835 194.413 229.788 193.817C229.857 193.235 230.391 192.708 230.987 192.661L243.812 193.003L249.464 190.132C250.087 189.852 250.772 190.051 251.052 190.675C251.332 191.298 251.133 191.983 250.509 192.263L244.611 195.222C244.48 195.325 244.248 195.297 244.001 195.386L230.827 195.002Z" fill="#414141"/>
<path d="M237.148 201.419C236.566 201.35 236.142 200.945 236.095 200.349C236.048 199.753 236.596 199.11 237.192 199.063L251.914 198.332C252.51 198.284 253.153 198.833 253.2 199.429C253.248 200.024 252.699 200.668 252.104 200.715L237.381 201.446C237.279 201.316 237.265 201.432 237.148 201.419Z" fill="#414141"/>
<path d="M243.868 206.466C243.286 206.397 242.862 205.992 242.814 205.396C242.767 204.8 243.315 204.157 243.911 204.11L255.1 203.313C255.696 203.266 256.339 203.815 256.387 204.41C256.434 205.006 255.885 205.649 255.29 205.697L244.1 206.493C243.998 206.363 243.868 206.466 243.868 206.466Z" fill="#414141"/>
<path d="M221.495 70.7784L221.378 70.7645C220.81 70.5791 220.414 69.9418 220.483 69.3598C220.978 67.1758 220.836 65.3884 220.057 63.9974C218.868 62.0856 216.568 61.5765 216.568 61.5765C215.999 61.3911 215.473 60.8564 215.672 60.1718C215.741 59.5898 216.392 59.0769 217.077 59.2762C217.193 59.29 220.294 60.0122 222.099 62.7053C223.288 64.6171 223.594 67.0142 222.899 69.8827C222.7 70.5673 222.077 70.8474 221.495 70.7784Z" fill="#414141"/>
<path d="M257.923 64.424C265.687 64.6745 272.183 58.5834 272.434 50.819C272.685 43.0547 266.594 36.5574 258.831 36.3069C251.067 36.0563 244.57 42.1475 244.32 49.9119C244.069 57.6762 250.159 64.1735 257.923 64.424Z" fill="#414141"/>
<path d="M246.055 97.5378C237.792 96.5569 230.527 90.1467 226.716 80.4872C226.436 79.8637 226.752 79.1929 227.375 78.9128C227.998 78.6327 228.669 78.9484 228.949 79.5718C232.732 89.4641 240.621 95.5943 249.05 95.1784C254.631 94.8965 259.715 91.8407 263.404 86.6127C267.224 81.2821 269.114 74.306 268.69 66.9372C268.383 59.5822 265.768 52.7795 261.507 47.9063C257.246 43.033 251.881 40.5075 246.416 40.8031C237.987 41.2191 230.687 48.0252 227.931 58.3217C227.745 58.8899 227.108 59.2864 226.54 59.1009C225.972 58.9154 225.575 58.2782 225.761 57.71C228.861 46.51 236.955 38.9719 246.446 38.5639C252.739 38.2485 258.775 41.0898 263.446 46.4839C268.001 51.8642 270.794 59.1601 271.162 66.9945C271.531 74.8289 269.455 82.3732 265.464 88.1556C261.342 94.0406 255.635 97.3765 249.342 97.6919C248.164 97.6701 247.103 97.6622 246.055 97.5378Z" fill="#414141"/>
<path d="M264.808 61.8726C264.26 62.5157 265.258 64.0507 266.982 65.4358C268.706 66.8208 270.527 67.3911 270.959 66.7341C271.391 66.0772 270.509 64.556 268.785 63.171C267.061 61.7859 265.357 61.2295 264.808 61.8726Z" fill="#414141"/>
<path d="M245.197 62.0237C245.203 62.9687 247.475 63.7106 250.221 63.4464C252.954 63.2985 255.07 62.3694 255.064 61.4244C255.059 60.4794 252.786 59.7375 250.04 60.0017C247.308 60.1495 245.075 61.0649 245.197 62.0237Z" fill="#414141"/>
<path d="M258.945 75.4597C258.596 75.4183 258.261 75.2604 258.069 74.8836C257.659 74.3627 257.872 73.5617 258.379 73.2678C259.016 72.8713 259.332 72.2005 259.299 71.4883L258.997 65.0783C258.95 64.4825 259.498 63.8394 260.094 63.792C260.69 63.7447 261.333 64.2932 261.38 64.889L261.682 71.299C261.735 72.8398 260.973 74.284 259.685 75.1934C259.425 75.3986 259.178 75.4874 258.945 75.4597Z" fill="#414141"/>
<path d="M248.832 69.1835C248.599 69.1559 248.38 69.0118 248.161 68.8678C247.621 68.4495 247.587 67.7373 248.122 67.2106C250.693 64.4466 253.198 65.2162 254.162 66.0389C254.703 66.4572 254.736 67.1694 254.318 67.71C253.9 68.2505 253.188 68.284 252.647 67.8658C252.428 67.7217 251.32 67.118 249.818 68.8284C249.558 69.0336 249.181 69.2249 248.832 69.1835Z" fill="#414141"/>
<path d="M267.872 70.8534C267.406 70.7981 266.969 70.51 266.907 70.0306C266.819 69.784 266.361 68.6673 264.067 69.1032C263.457 69.267 262.8 68.8349 262.637 68.2252C262.473 67.6156 262.905 66.9586 263.515 66.7949C267.261 66.0592 268.786 68.1288 269.113 69.3481C269.277 69.9577 268.845 70.6147 268.235 70.7784C268.105 70.881 267.988 70.8672 267.872 70.8534Z" fill="#414141"/>
<path d="M255.237 79.8592C253.608 79.6657 252.554 78.5964 252.172 77.8427C251.891 77.2193 252.207 76.5485 252.714 76.2546C253.338 75.9744 254.008 76.2901 254.302 76.7972C254.391 77.0438 255.095 78.0717 257.328 77.1564C257.952 76.8763 258.622 77.192 258.902 77.8154C259.182 78.4389 258.867 79.1096 258.243 79.3897C257.01 79.8336 256.052 79.9559 255.237 79.8592Z" fill="#414141"/>
<path d="M231.753 44.0203L234.785 52.2888L231.43 64.639L223.366 62.9736L224.801 45.91L231.753 44.0203Z" fill="#414141"/>
<path d="M61.4888 206.655L68.2632 204.272C76.1543 201.431 80.6838 198.073 80.4197 195.327C80.2916 193.423 77.4413 188.599 54.2268 184.309C19.4562 177.939 0.834877 161.8 -1.22685 136.413C-2.72093 118.175 26.5026 92.724 48.5835 87.6724C66.7741 83.5755 91.573 85.4568 113.264 92.6352C138.146 100.782 154.729 114.201 159.772 130.381C165.082 147.301 163.471 161.865 154.982 173.723C148.481 182.749 134.294 194.876 103.242 201.931C84.8043 206.117 68.8292 206.464 68.7128 206.45L61.4888 206.655ZM85.1397 88.9426C72.1041 87.3953 59.4294 87.7794 49.1219 90.0971C38.8143 92.4148 26.2831 99.5443 16.4545 108.765C6.09115 118.513 0.541236 128.478 1.14238 136.34C3.1095 160.536 21.1154 175.893 54.6057 182.112C73.0897 185.486 82.2606 189.762 82.6725 195.24C82.9563 198.815 79.427 201.702 75.152 203.909C91.8333 202.584 135.6 196.801 152.997 172.543C161.055 161.342 162.582 147.476 157.539 131.296C150.005 107.266 116.565 92.6728 85.1397 88.9426Z" fill="#414141"/>
<path d="M212.694 144.926C208.853 144.47 205.028 141.891 202.101 138.71C198.826 140.446 193.415 142.283 187.337 139.791C184.64 138.645 182.478 136.971 180.94 135.018C180.303 135.415 179.665 135.811 179.042 136.091C173.562 138.51 171.483 136.138 171.277 135.878L173.114 134.325C173.114 134.325 174.386 135.539 178.243 133.872C178.736 133.694 179.243 133.4 179.75 133.106C178.869 131.585 178.35 129.989 178.297 128.448C178.108 126.065 178.808 124.141 180.213 123.246C181.227 122.658 182.939 122.153 185.492 123.518C186.6 124.122 187.174 125.253 187.139 126.547C186.993 128.772 185.25 131.516 182.996 133.61C184.226 135.172 186.053 136.687 188.414 137.676C193.37 139.681 197.883 138.446 200.651 137.004C199.933 136.092 199.345 135.078 198.874 134.078C197.166 130.57 197.059 127.488 198.821 125.573C200.597 123.541 202.932 122.756 205.438 123.525C208.046 124.425 209.995 126.899 210.142 129.631C210.243 131.768 207.98 134.923 204.492 137.46L204.362 137.562C207.186 140.613 211.039 142.958 214.367 142.763C218.044 142.61 220.407 141.592 221.573 139.723C216.632 137.602 215.991 135.047 216.04 133.637C216.159 131.644 218.009 129.975 220.146 129.875C222.632 129.816 224.6 133.118 224.72 136.084C224.767 136.679 224.671 137.494 224.588 138.193C226.525 138.777 228.942 139.3 232.07 139.789L231.794 142.117C228.535 141.73 225.9 141.063 223.846 140.465C222.639 142.683 220.034 144.734 214.556 145.147C213.755 144.933 213.159 144.981 212.694 144.926ZM203.792 125.455C202.629 125.316 201.512 125.774 200.545 126.958C199.579 128.141 199.679 130.278 200.902 132.902C201.387 133.786 201.975 134.8 202.577 135.698C202.707 135.595 202.837 135.493 202.953 135.506C206.051 133.277 207.649 130.752 207.643 129.807C207.501 128.019 206.284 126.341 204.58 125.784C204.258 125.51 204.025 125.482 203.792 125.455ZM220.116 132.114C219.055 132.106 218.26 132.838 218.163 133.653C218.169 134.598 219.064 136.002 222.096 137.307C222.138 136.957 222.193 136.492 222.118 136.129C222.134 134.006 220.814 132.197 220.116 132.114ZM182.608 124.947C182.142 124.891 181.779 124.966 181.402 125.158C180.751 125.671 180.38 126.807 180.564 128.245C180.672 129.32 181.013 130.423 181.587 131.554C183.438 129.885 184.631 127.784 184.681 126.373C184.75 125.791 184.531 125.647 184.312 125.503C183.641 125.187 183.073 125.002 182.608 124.947Z" fill="#414141"/>
<path d="M-38.2741 271.539L129.675 291.475L98.4158 260.497C86.3772 248.562 70.6295 241.027 53.8557 239.154L7.84054 234.046L9.94304 240.198L-34.3167 239.193L-38.1577 271.553L-38.2741 271.539Z" fill="#1D1D1B"/>
<path d="M-9.01013 219.888C-9.01013 219.888 -18.7512 217.433 -20.5539 212.733C-22.3429 207.917 -21.8513 202.782 -24.8397 199.122C-27.8281 195.462 -40.8796 196.038 -23.7568 172.101C-6.51766 148.179 22.5707 107.957 27.7281 126.157C32.8717 144.473 29.0559 152.756 29.4088 155.748C29.7618 158.741 42.7172 177.867 48.4119 186.57C54.1065 195.273 54.3823 199.909 53.2456 206.502C51.063 217.929 40.6248 227.314 30.086 234.562C19.5473 241.81 -4.03773 231.692 -9.01013 219.888Z" fill="#1D1D1B"/>
<path d="M13.9104 204.784C6.2287 203.872 3.13234 192.173 1.1919 181.673C0.558908 178.057 2.25369 174.717 4.20889 171.171C6.17791 167.51 8.17456 163.615 7.36405 159.506C7.28911 159.143 7.47459 158.575 7.735 158.369C8.25582 157.959 8.94034 158.158 9.05673 158.172C11.4318 159.044 15.1663 156.419 17.2496 154.777C24.3084 149.005 29.0059 142.244 29.0197 142.128C29.2939 141.806 29.6707 141.615 30.1363 141.67C30.6018 141.725 30.9234 141.999 31.1147 142.376C33.1699 147.932 38.8444 162.77 41.2173 165.649C44.1032 169.179 49.9046 173.999 50.021 174.013C50.1235 174.143 50.3425 174.287 50.3149 174.52C50.4036 174.766 52.2064 179.466 48.1402 184.885C47.866 185.207 47.4892 185.398 47.0237 185.343C46.9073 185.329 39.849 184.137 34.9958 189.227C33.6523 190.602 32.2811 192.21 31.0264 193.831C27.1595 198.566 23.1625 203.404 16.5262 204.623C15.5536 204.861 14.7251 204.881 13.9104 204.784ZM9.93047 160.755C10.1314 165.028 8.14856 168.806 6.32357 172.249C4.6426 175.472 3.10565 178.477 3.60259 181.251C5.54302 191.751 8.72814 203.697 16.2068 202.342C22.1171 201.273 25.5795 196.962 29.3161 192.33C30.5709 190.708 31.942 189.1 33.4157 187.623C38.2551 182.649 44.7394 182.711 46.8344 182.96C49.2414 179.586 48.6557 176.565 48.4032 175.709C47.2197 174.742 42.1777 170.485 39.497 167.215C37.0215 164.207 31.6882 150.471 29.7079 145.278C27.7607 147.762 23.9077 152.38 18.802 156.614C15.2727 159.5 12.2721 160.915 9.93047 160.755Z" fill="#1D1D1B"/>
<path d="M29.4184 145.716C29.302 145.702 29.1856 145.689 29.1856 145.689C28.6175 145.503 28.2348 144.749 28.5367 144.195C31.1391 137.186 31.0312 129.146 28.4435 122.11C28.1634 121.487 28.4791 120.816 29.0886 120.653C29.712 120.372 30.3827 120.688 30.5464 121.298C33.4281 128.84 33.4669 137.462 30.679 145.04C30.5073 145.491 30.0003 145.785 29.4184 145.716Z" fill="#1D1D1B"/>
<path d="M32.781 204.899C37.2729 204.842 42.4455 202.033 45.2569 198.236L45.4929 208.179C45.5498 212.671 38.3571 215.595 36.43 211.943L32.781 204.899Z" fill="white"/>
<path d="M23.9419 176.937C23.2435 176.854 22.8471 176.217 22.9161 175.635C23.1096 174.005 24.1316 172.356 25.6664 171.358C27.2012 170.36 29.0162 169.985 30.618 170.411C31.1861 170.597 31.5826 171.234 31.5135 171.816C31.328 172.384 30.6908 172.781 30.1088 172.712C29.0752 172.471 27.9862 172.696 26.9722 173.284C25.9444 173.988 25.3683 174.864 25.2439 175.911C25.161 176.61 24.6402 177.02 23.9419 176.937Z" fill="#414141"/>
<path d="M21.0705 166.327C20.7214 166.285 20.3998 166.011 20.2085 165.634C19.9284 165.011 20.1277 164.326 20.7511 164.046C22.3885 163.178 24.2173 162.687 26.0184 162.429C26.6141 162.381 27.271 162.813 27.3183 163.409C27.3656 164.005 26.9335 164.662 26.3378 164.709C24.7695 164.995 23.1873 165.398 21.6801 166.163C21.5361 166.382 21.3033 166.354 21.0705 166.327Z" fill="#414141"/>
<path d="M27.4633 266.594C7.22753 262.067 -10.6624 253.687 -24.6462 242.23C-24.8513 241.97 -25.0565 241.709 -25.015 241.36C-24.9736 241.011 -24.9321 240.662 -24.6717 240.456C-16.4331 232.699 -13.8335 208.81 -13.4328 205.434C-15.4151 202.248 -25.2302 185.501 -22.9099 179.875C-22.4226 178.752 -21.6275 178.02 -20.5248 177.679C-15.6343 176.253 -5.69229 182.981 -4.49492 183.831C-4.17338 184.105 -3.98206 184.482 -4.02351 184.831C-4.06496 185.181 -5.30194 215.488 1.96102 223.905C9.1214 232.192 31.6243 229.551 31.8571 229.578C32.2201 229.504 32.6718 229.675 32.8769 229.936C33.0821 230.196 33.2596 230.689 33.1018 231.025C33.0879 231.141 28.9028 245.517 28.793 265.335C28.7515 265.684 28.5937 266.02 28.3333 266.225C28.1754 266.56 27.8125 266.635 27.4633 266.594ZM-22.1664 241.226C-8.90066 251.772 7.86685 259.664 26.4732 263.997C26.7839 248.453 29.3986 236.369 30.3754 232.118C24.7669 232.632 6.97698 233.354 0.124316 225.458C-7.24121 216.911 -6.65151 190.067 -6.44801 185.37C-10.3755 182.661 -17.1574 179.141 -19.9587 179.871C-20.4519 180.048 -20.7123 180.254 -20.884 180.705C-22.3736 184.306 -15.7659 197.248 -11.316 204.505C-11.2272 204.752 -11.1385 204.998 -11.1661 205.231C-11.1879 206.409 -13.4602 231.518 -22.1664 241.226Z" fill="#1D1D1B"/>
<path d="M103.192 165.569C102.959 165.541 102.726 165.514 102.624 165.383C100.434 163.943 90.1492 151.154 89.0209 149.722L78.9253 139.316C69.6502 129.953 64.9914 119.484 65.1539 108.172C65.3052 88.0046 80.9974 70.1545 90.319 61.2275C90.5933 60.906 91.0726 60.8448 91.4218 60.8863C91.5382 60.9001 99.5473 63.0312 107.398 65.4977C122.868 70.403 124.16 72.445 124.213 73.9858C124.247 74.6981 123.903 75.6016 122.061 76.2092C97.3068 83.8945 89.756 101.767 87.8875 107.565C91.9967 106.754 96.4057 107.396 100.067 109.365L113.309 116.13C114.096 116.46 114.479 117.214 114.499 118.042C114.552 119.583 113.516 121.349 112.488 122.053C110.809 123.27 107.359 122.507 104.299 121.435L121.481 139.764C123.676 142.15 124.502 144.136 124.035 146.087C123.822 146.888 123.273 147.532 122.52 147.914C121.663 148.167 120.849 148.07 119.959 147.61L115.026 144.428C118.261 147.999 121.817 151.844 123.048 153.407C124.792 155.621 124.701 157.38 124.707 158.325L124.693 158.442C124.699 159.387 124.123 160.263 123.239 160.748C122.369 161.117 121.321 160.993 120.576 160.314L109.876 151.017L114.758 157.617C115.784 158.919 116.186 160.501 116.109 162.145L116.013 162.959C115.888 164.007 115.326 164.766 114.34 165.122C113.353 165.477 112.32 165.236 111.69 164.571L105.049 157.881L105.254 158.141C105.753 158.909 107.236 161.327 106.173 163.326C104.863 165.413 104.253 165.577 103.89 165.652C103.555 165.494 103.425 165.597 103.192 165.569ZM91.3644 63.3583C82.2893 72.1965 67.625 89.3423 67.4067 108.085C67.2107 118.685 71.7059 128.544 80.5568 137.503L90.755 148.039C94.6666 152.871 100.951 160.581 103.291 162.748C103.435 162.529 103.709 162.207 103.853 161.988C104.025 161.536 103.683 160.433 102.993 159.289L94.6038 147.434C94.3099 146.927 94.3928 146.228 94.7973 145.804C95.3181 145.394 95.9 145.463 96.4405 145.881L112.973 162.717C112.973 162.717 113.075 162.847 113.205 162.744C113.322 162.758 113.336 162.642 113.349 162.525L113.446 161.71C113.571 160.663 113.229 159.56 112.614 158.779L101.209 143.496C100.798 142.975 100.868 142.393 101.388 141.983C101.793 141.559 102.505 141.525 102.929 141.93L121.872 158.343C121.872 158.343 121.974 158.473 122.105 158.371C122.235 158.268 122.235 158.268 122.249 158.152L122.276 157.919C122.243 157.207 122.381 156.043 121.136 154.596C118.88 151.732 107.054 138.996 106.835 138.852C106.411 138.448 106.378 137.735 106.782 137.311C107.186 136.887 107.796 136.723 108.35 137.025L121.18 145.276C121.399 145.42 121.516 145.434 121.529 145.318C121.529 145.318 121.646 145.332 121.674 145.099C121.873 144.414 121.676 143.092 119.685 140.968L98.6262 118.519C98.2021 118.115 98.1548 117.519 98.573 116.978C98.8611 116.54 99.587 116.39 100.025 116.678C104.371 118.847 109.936 120.688 111.107 119.764C111.875 119.265 112.26 118.013 112.171 117.766L99.0449 111.014C95.5888 109.305 91.7618 108.733 88.0018 109.585L86.5498 109.885C86.1868 109.96 85.7213 109.905 85.53 109.528C85.2084 109.254 85.1335 108.891 85.1887 108.425C85.2164 108.192 90.6588 83.2234 121.55 73.5517C121.667 73.5655 121.797 73.4629 121.797 73.4629C119.416 71.6458 104.761 66.8371 91.3644 63.3583Z" fill="#414141"/>
</svg>
