<svg width="359" height="294" viewBox="0 0 359 294" fill="none" xmlns="http://www.w3.org/2000/svg">
<path d="M-23.8831 292.601C-29.4063 289.612 -32.4369 283.164 -30.8267 276.746L14.4183 77.0053C15.3305 73.311 17.6285 70.2114 20.8025 68.3613C24.0415 66.3912 27.9067 65.8456 31.4181 66.8148L302.257 134.557C305.953 135.472 309.056 137.771 310.909 140.945C312.881 144.183 313.43 148.047 312.462 151.557L267.152 332.557C266.24 336.251 263.942 339.351 260.768 341.201C257.529 343.171 253.664 343.717 250.152 342.748L-20.6865 293.865C-21.7769 293.585 -22.9225 293.12 -23.8831 292.601ZM304.155 138.221C303.315 137.767 302.409 137.432 301.439 137.217L30.785 69.4193C27.754 68.71 24.7488 69.1004 22.1946 70.6655C19.6404 72.2306 17.7319 74.6103 17.0242 77.6397L-28.2857 277.5C-28.9934 280.529 -28.601 283.534 -27.0337 286.088C-25.4664 288.642 -22.9645 290.616 -20.0535 291.26L250.721 340.263C253.752 340.972 256.757 340.582 259.311 339.017C261.865 337.452 263.839 334.952 264.481 332.043L309.791 151.042C311.057 145.833 308.598 140.625 304.155 138.221Z" fill="white"/>
<path d="M29.18 89.025C28.2194 88.5053 27.3887 87.7456 26.8078 86.811C25.8765 85.3765 25.6852 83.7219 26.104 82.0872C27.0065 78.6978 30.4305 76.6727 33.7017 77.512C35.3373 77.9316 36.6483 78.9511 37.5796 80.3856C38.5109 81.8201 38.7022 83.4747 38.2834 85.1094C37.3809 88.4988 33.957 90.5239 30.6858 89.6846C30.0205 89.4798 29.5402 89.2199 29.18 89.025ZM33.854 80.3863C33.6138 80.2563 33.3737 80.1264 33.0686 80.1165C31.1279 79.6869 29.2585 80.8469 28.7099 82.7216C28.4957 83.6914 28.6514 84.5512 29.1121 85.4209C29.5729 86.2906 30.3485 86.8653 31.3188 87.0801C33.2595 87.5097 35.1289 86.3496 35.6775 84.475C35.8918 83.5052 35.7361 82.6454 35.2753 81.7757C34.8697 81.0909 34.3342 80.6461 33.854 80.3863Z" fill="white"/>
<path d="M45.1761 93.0264C44.2155 92.5067 43.3848 91.747 42.8039 90.8123C41.8726 89.3778 41.6813 87.7232 42.1001 86.0885C43.0026 82.6992 46.4265 80.6741 49.6978 81.5133C51.3334 81.9329 52.6444 82.9525 53.5757 84.387C54.507 85.8215 54.6983 87.476 54.2795 89.1107C53.377 92.5001 49.9531 94.5252 46.6818 93.686C46.1366 93.5461 45.6564 93.2862 45.1761 93.0264ZM49.85 84.3876C49.6099 84.2577 49.3698 84.1277 48.9446 84.0528C47.004 83.6233 45.1346 84.7833 44.586 86.658C44.1574 88.5976 45.3191 90.467 47.1948 91.0165C49.1355 91.4461 51.0049 90.286 51.5535 88.4114C51.7678 87.4416 51.6121 86.5818 51.1513 85.7121C50.8658 85.0923 50.4504 84.7124 49.85 84.3876Z" fill="white"/>
<path d="M61.2922 97.0927C58.7707 95.7284 57.5183 92.8793 58.1611 89.9699C58.5799 88.3352 59.599 87.0253 61.0335 86.0953C62.468 85.1653 64.1232 84.975 65.7588 85.3947C69.15 86.2989 71.1781 89.7227 70.3405 92.9921C69.438 96.3815 66.0141 98.4066 62.7429 97.5673C62.1327 97.5474 61.7725 97.3525 61.2922 97.0927ZM65.9662 88.4539C65.7261 88.324 65.4859 88.1941 65.1809 88.1841C64.2105 87.9693 63.3505 88.1244 62.4807 88.5845C61.6109 89.0445 61.0365 89.8194 60.8222 90.7892C60.3936 92.7289 61.5553 94.5982 63.4311 95.1478C64.4014 95.3626 65.2614 95.2074 66.1312 94.7474C67.001 94.2874 67.5755 93.5124 67.7897 92.5426C68.0884 90.843 67.287 89.1685 65.9662 88.4539Z" fill="white"/>
<path d="M41.8472 274.26L-6.74612 248.745C-16.5368 243.603 -20.242 231.516 -15.1687 221.853L10.4473 173.359C15.5855 163.576 27.6746 159.88 37.3452 164.957L85.9385 190.473C95.7292 195.615 99.4344 207.701 94.3611 217.365L68.8651 265.923C63.6069 275.641 51.6379 279.403 41.8472 274.26Z" fill="#82A1F0"/>
<path d="M62.2107 237.196L65.9759 230.237L59.9918 226.379C60.745 223.839 61.073 221.225 61.031 218.72L67.8951 216.075L65.6337 208.492L58.6237 209.973C57.4166 207.614 55.8947 205.549 53.873 203.835L56.8982 197.096L49.814 193.263L45.9581 199.243C43.4171 198.488 40.8014 198.159 38.296 198.199L35.6451 191.336L28.0606 193.592L29.5464 200.6C27.187 201.805 25.1228 203.325 23.4091 205.345L16.9057 202.447L13.0757 209.526L18.8196 213.254C18.0665 215.793 17.7385 218.408 17.7804 220.912L10.9164 223.558L13.1777 231.141L20.1877 229.66C21.3948 232.019 22.9167 234.083 24.9384 235.798L22.043 242.297L29.1272 246.129L32.8533 240.39C35.3944 241.144 38.01 241.474 40.5154 241.434L43.1663 248.296L50.8709 246.106L49.3851 239.098C51.7445 237.892 53.8087 236.372 55.5224 234.353L62.2107 237.196ZM33.461 230.947C27.2173 227.569 24.9008 219.801 28.2764 213.562C31.6521 207.323 39.4215 205.012 45.6653 208.39C51.909 211.769 54.2255 219.536 50.8498 225.775C47.4742 232.015 39.7047 234.325 33.461 230.947Z" fill="white"/>
<path d="M303.668 228.085L194.66 168.633L174.446 164.989L188.428 179.97L297.437 239.422C301.827 237.33 304.359 232.758 303.668 228.085Z" fill="white"/>
<path d="M303.674 228.085L194.665 168.633L188.591 179.895L297.599 239.347C301.833 237.33 304.365 232.757 303.674 228.085Z" fill="#82A1F2"/>
<path d="M297.074 240.464C296.958 240.423 296.958 240.423 296.842 240.382L187.834 180.929C187.718 180.888 187.602 180.847 187.527 180.691L173.545 165.71C173.164 165.314 173.096 164.769 173.376 164.348C173.656 163.926 174.167 163.586 174.63 163.75L194.844 167.394C194.96 167.435 195.076 167.476 195.191 167.517L304.2 226.969C304.547 227.092 304.813 227.447 304.806 227.835C305.68 233.093 302.786 238.319 298.007 240.404C297.694 240.553 297.421 240.587 297.074 240.464ZM189.191 178.936L297.587 237.911C300.921 236.226 302.894 232.497 302.495 228.84L194.14 169.749L177.878 166.724L189.191 178.936Z" fill="#82A1F2"/>
<path d="M150.221 208.443C154.076 209.917 156.822 213.241 157.72 217.197L170.108 278.663C170.762 281.856 170.113 284.953 168.297 287.604C166.48 290.254 163.791 292.036 160.713 292.733L99.2195 305.083C97.0208 305.581 94.6949 305.36 92.592 304.557C88.7368 303.083 85.9907 299.759 85.0928 295.803L72.8666 234.265C72.2129 231.072 72.8612 227.975 74.6778 225.324C76.4944 222.674 79.1839 220.892 82.262 220.195L143.755 207.845C145.792 207.419 148.118 207.64 150.221 208.443ZM151.114 206.109C148.66 205.171 145.939 204.933 143.067 205.441L81.5741 217.792C73.7483 219.349 68.7107 226.923 70.2729 234.745L82.6605 296.211C83.6687 301.279 87.1434 305.15 91.6995 306.891C94.1528 307.829 96.8739 308.067 99.7459 307.559L161.239 295.208C169.065 293.651 174.102 286.077 172.54 278.255L160.153 216.789C159.144 211.721 155.553 207.806 151.114 206.109Z" fill="white"/>
<path d="M82.7772 296.255L79.935 282.324L84.9726 274.751C88.6951 269.216 96.2426 267.686 101.782 271.409C107.015 274.881 114.24 273.496 117.712 268.267L137.361 238.582C142.059 231.547 151.482 229.664 158.523 234.362L164.413 238.22L172.423 278.21C173.986 286.032 168.948 293.606 161.122 295.164L99.6289 307.514C91.92 309.116 84.3395 304.078 82.7772 296.255Z" fill="white"/>
<path d="M88.1679 202.118L105.794 179.331L123.346 156.504L94.5671 155.677L65.7149 154.811L80.1833 170.2L61.4771 179.076L66.6691 190.108L85.3754 181.232L88.1679 202.118Z" fill="white"/>
<path d="M215.818 218.752L150.42 178.907C141.24 173.308 129.313 176.24 123.713 185.412C118.45 193.958 120.747 204.968 128.501 210.888L137.772 216.616L195.647 251.837C204.826 257.435 216.754 254.503 222.354 245.331C227.843 236.14 224.907 224.22 215.818 218.752Z" fill="#F3C02A"/>
<path d="M143.216 195.655L141.812 197.958L202.792 235.087L204.195 232.784L143.216 195.655Z" fill="white"/>
</svg>
