<svg width="311" height="261" viewBox="0 0 311 261" fill="none" xmlns="http://www.w3.org/2000/svg">
<path d="M58.2374 172.547L10.1669 218.832L-5.42383 210.622L58.2374 172.547Z" fill="#FCCC42"/>
<path d="M39.4105 158.643L-2.90231 185.719L-10.0728 172.822L39.4105 158.643Z" fill="#FCCC42"/>
<path d="M64.8892 183.906L55.2516 213.965L46.476 206.822L64.8892 183.906Z" fill="#FCCC42"/>
<path d="M206.902 98.8208L270.654 78.8021L280.951 93.1072L206.902 98.8208Z" fill="#FCCC42"/>
<path d="M211.686 111.566L253.113 115.958L248.828 131.111L211.686 111.566Z" fill="#FCCC42"/>
<path d="M206.139 85.6504L228.04 63.095L232.803 73.473L206.139 85.6504Z" fill="#FCCC42"/>
<path d="M179.76 36.5621C179.363 36.6072 178.805 36.4031 178.496 36.0369C178.024 35.4214 178.198 34.5986 178.813 34.1271L193.389 23.5016C194.004 23.0301 194.826 23.2041 195.298 23.8196C195.769 24.4351 195.595 25.2578 194.98 25.7293L180.405 36.3549C180.288 36.502 180.024 36.5321 179.76 36.5621Z" fill="white"/>
<path d="M168.592 21.9081C168.328 21.9382 167.917 21.8512 167.623 21.617C167.035 21.1487 166.944 20.356 167.28 19.7824L173.071 11.8966C173.539 11.308 174.331 11.2178 174.905 11.554C175.493 12.0224 175.583 12.8151 175.247 13.3886L169.457 21.2744C169.37 21.6858 168.989 21.863 168.592 21.9081Z" fill="white"/>
<path d="M189.808 52.0127C189.148 52.0878 188.575 51.7516 188.367 51.1061C188.16 50.4605 188.598 49.6077 189.243 49.4005L198.688 46.5856C199.333 46.3783 200.186 46.8166 200.393 47.4621C200.6 48.1077 200.162 48.9605 199.517 49.1678L190.072 51.9826C189.94 51.9976 189.94 51.9976 189.808 52.0127Z" fill="white"/>
<path d="M179.211 133.22L169.861 144.977L171.942 146.633L181.292 134.876L179.211 133.22Z" fill="#373AE5"/>
<path d="M170.712 134.313L169.057 136.394L180.81 145.749L182.465 143.668L170.712 134.313Z" fill="#373AE5"/>
<path d="M157.444 232.241C157.18 232.271 157.048 232.286 156.901 232.169C156.622 232.067 156.327 231.833 156.15 231.452L128.451 171.439C128.112 170.808 128.418 169.97 129.048 169.631L141.508 163.93C141.889 163.753 142.153 163.723 142.58 163.942C142.859 164.044 143.153 164.278 143.33 164.659L171.014 224.54C171.354 225.171 171.048 226.009 170.418 226.348L157.957 232.049C157.693 232.079 157.576 232.226 157.444 232.241ZM131.416 171.636L158.023 229.097L168.064 224.475L141.458 167.014L131.416 171.636Z" fill="#7CA0FC"/>
<path d="M173.624 261.044L174.582 261.74L183.141 257.018C192.423 253.954 200.258 247.575 205.196 239.251L207.915 234.927L191.844 192.46L151.493 202.272L173.624 261.044Z" fill="white"/>
<path d="M152.183 239.957C152.478 229.619 145.313 224.388 138.657 216.447L134.799 211.935L146.763 201.874C151.406 198 153.958 192.222 153.663 186.1C153.554 183.971 151.378 182.479 149.325 183.248L123.99 193.359C114.137 197.291 108.353 207.585 110.217 218.079L113.823 238.01L152.908 339.284L182.027 270.187L174.686 262.499L184.871 255.049L177.768 241.345L152.183 239.957Z" fill="white"/>
<path d="M153.073 340.737C152.545 340.797 151.972 340.461 151.647 339.962L112.563 238.688C112.548 238.556 112.548 238.556 112.533 238.424L108.926 218.493C106.87 207.486 112.976 196.486 123.473 192.347L148.808 182.236C150.216 181.674 151.714 181.905 152.992 182.563C154.286 183.352 154.965 184.613 154.998 186.082C155.324 192.468 152.567 198.804 147.676 202.841L136.693 212.12L139.638 215.666C146.589 223.841 150.184 234.272 149.934 245.007C149.877 245.682 149.277 246.286 148.617 246.361C147.942 246.304 147.338 245.704 147.263 245.043C147.588 234.969 144.068 225.199 137.574 217.507L133.716 212.995C133.554 212.745 133.377 212.364 133.464 211.953C133.551 211.541 133.653 211.262 133.902 211.1L145.866 201.039C150.142 197.474 152.461 191.991 152.225 186.397C152.15 185.737 151.826 185.238 151.384 184.887C150.811 184.551 150.268 184.479 149.622 184.686L124.287 194.797C115.08 198.521 109.632 208.242 111.42 218.075L115.012 237.874L154.081 339.016C154.288 339.662 153.982 340.5 153.337 340.707C153.337 340.707 153.205 340.722 153.073 340.737Z" fill="#414141"/>
<path d="M231.517 331.808C231.121 331.853 230.695 331.633 230.385 331.267L173.616 262.653C173.322 262.419 173.261 261.89 173.363 261.611C173.45 261.199 173.684 260.905 174.065 260.728L182.624 256.007C182.756 255.991 182.756 255.991 182.873 255.844C191.907 252.942 199.493 246.726 204.182 238.564L206.564 234.813L191.085 194.018L151.907 203.564C151.262 203.771 150.542 203.318 150.319 202.54C150.112 201.894 150.565 201.174 151.343 200.951L191.694 191.139C192.339 190.931 193.059 191.385 193.251 191.898L209.322 234.365C209.499 234.747 209.412 235.158 209.193 235.585L206.475 239.909C201.435 248.512 193.351 255.053 183.819 258.279L176.77 262.16L232.612 329.675C233.083 330.291 233.042 331.099 232.426 331.57C232.045 331.747 231.781 331.777 231.517 331.808Z" fill="#414141"/>
<path d="M174.11 244.663L169.405 246.805C162.031 250.187 153.245 247.039 149.849 239.529L125.501 186.629L157.018 172.068L181.366 224.968C184.762 232.477 181.484 241.281 174.11 244.663Z" fill="#7CA0FC"/>
<path d="M133.219 170.778C153.473 160.087 155.147 123.464 136.957 88.9762C118.768 54.4887 87.6032 35.1972 67.3491 45.8874C47.095 56.5776 45.4213 93.2014 63.6109 127.689C81.8005 162.176 112.965 181.468 133.219 170.778Z" fill="#7CA0FC"/>
<path d="M124.298 174.8C104.093 177.1 78.1658 158.505 62.2902 128.328C43.8472 93.2234 45.873 55.789 66.6848 44.7211C87.4966 33.6533 119.562 53.2891 138.122 88.2463C156.565 123.351 154.671 160.77 133.727 171.853C130.825 173.388 127.599 174.424 124.298 174.8ZM76.5472 44.4014C73.5099 44.7472 70.5328 45.6214 67.8799 46.994C48.3285 57.383 46.9296 93.274 64.694 127.117C82.4583 160.961 112.981 179.969 132.532 169.58C152.084 159.191 153.63 123.417 135.733 89.5888C120.374 60.4232 95.6954 42.2217 76.5472 44.4014Z" fill="#7CA0FC"/>
<path d="M141.547 166.817C160.308 156.915 160.771 120.93 142.582 86.4427C124.392 51.9552 94.4378 32.0249 75.6768 41.9271C56.9158 51.8293 56.4526 87.8142 74.6421 122.302C92.8317 156.789 122.786 176.72 141.547 166.817Z" fill="white"/>
<path d="M133.823 170.558C125.9 171.46 116.616 168.636 107.073 162.362C94.1921 153.791 82.3093 139.888 73.4271 122.966C54.9841 87.8615 55.7495 51.1059 75.0519 40.879C84.637 35.7731 97.0452 37.8401 110.073 46.5279C122.954 55.0987 134.837 69.0022 143.719 85.9239C152.601 102.846 157.42 120.498 157.169 135.916C156.947 151.599 151.563 163.052 142.094 168.011C139.574 169.368 136.729 170.228 133.823 170.558ZM83.7558 40.9588C81.1147 41.2595 78.6507 41.9414 76.394 43.2689C58.3521 52.817 58.0816 88.0442 75.8309 121.755C84.5209 138.164 96.1095 151.833 108.564 160.185C120.725 168.302 132.311 170.195 140.899 165.738C149.473 161.149 154.42 150.549 154.629 135.938C154.794 120.93 150.152 103.66 141.462 87.2514C132.773 70.8432 121.184 57.1737 108.729 48.8222C99.7446 42.7521 91.151 40.117 83.7558 40.9588Z" fill="#7CA0FC"/>
<path d="M138.06 156.833C153.25 148.816 153.013 118.518 137.529 89.1612C122.046 59.8046 97.1799 42.506 81.9893 50.5237C66.7988 58.5414 67.0361 88.8392 82.5195 118.196C98.0029 147.552 122.869 164.851 138.06 156.833Z" fill="white"/>
<path d="M132.214 159.902C116.5 161.69 95.0687 144.993 81.259 118.863C65.4135 88.9495 65.4749 57.7609 81.3772 49.3932C89.2037 45.2904 99.5859 47.1866 110.483 54.7787C121.085 62.1367 131.158 74.2389 138.8 88.4914C154.645 118.405 154.584 149.593 138.682 157.961C136.659 158.994 134.459 159.646 132.214 159.902ZM88.2775 50.0798C86.2966 50.3053 84.3609 50.9271 82.7194 51.7831C68.0775 59.472 68.4959 89.0001 83.6629 117.652C96.956 142.771 117.138 159.075 131.797 157.406C133.777 157.181 135.713 156.559 137.487 155.688C151.996 148.014 151.578 118.486 136.411 89.834C129.048 75.6835 119.3 64.0797 108.992 56.9559C101.433 51.6603 94.22 49.4033 88.2775 50.0798Z" fill="#7CA0FC"/>
<path d="M148.722 246.112L148.591 246.127C147.919 246.071 147.319 245.474 147.244 244.817C147.568 234.801 144.067 225.088 137.592 217.31L133.755 212.824C133.593 212.576 133.417 212.197 133.504 211.788C133.59 211.379 133.692 211.101 133.94 210.94L145.827 200.805C150.081 197.261 152.388 191.809 152.154 186.248C152.08 185.591 151.757 185.096 151.318 184.746C150.748 184.412 150.207 184.341 149.566 184.547L124.361 194.601C115.201 198.304 109.781 207.969 111.559 217.745L115.421 238.613C115.487 240.112 114.785 239.065 114.143 239.272C113.354 239.361 112.769 238.896 112.563 238.254L108.962 218.307C106.917 207.363 112.977 196.296 123.42 192.18L148.625 182.126C150.025 181.567 151.5 181.665 152.655 182.465C153.942 183.25 154.617 184.504 154.666 186.095C154.989 192.445 152.246 198.744 147.395 202.889L136.469 212.116L139.398 215.641C146.312 223.768 149.888 234.138 149.639 244.811C149.86 245.584 149.379 246.038 148.722 246.112Z" fill="#414141"/>
<path d="M195.204 207.869C192.167 208.215 189.111 207.224 186.875 205.204C184.05 202.715 176.825 201.53 173.596 201.362C170.777 201.282 168.103 200.114 166.145 198.195C164.173 196.145 163.197 193.446 163.145 190.641C163.226 187.822 164.392 185.146 166.31 183.188C168.359 181.215 171.057 180.239 173.861 180.187C175.607 180.256 191.314 180.743 200.995 189.411C203.085 191.314 204.31 193.851 204.377 196.788C204.56 199.577 203.541 202.37 201.638 204.46C200.117 206.373 197.713 207.583 195.204 207.869ZM172.988 183.097C171.271 183.293 169.615 184.016 168.414 185.224C166.848 186.74 166.002 188.71 165.964 190.722C165.94 192.866 166.694 194.787 168.21 196.355C169.726 197.922 171.695 198.768 173.706 198.807C177.053 198.827 185.217 200.039 188.66 203.261C190.308 204.813 192.658 205.482 194.903 205.227C196.752 205.016 198.526 204.145 199.828 202.659C201.262 201.157 201.961 199.07 201.852 196.941C201.744 194.812 200.858 192.906 199.225 191.486C190.411 183.389 175.512 182.944 173.897 182.86C173.648 183.022 173.252 183.067 172.988 183.097Z" fill="#414141"/>
<path d="M198.112 225.203C195.074 225.549 192.019 224.558 189.782 222.538C186.942 219.917 179.453 218.762 176.503 218.696C170.734 218.55 166.039 213.731 166.185 207.96C166.33 202.189 171.146 197.492 176.915 197.638C178.662 197.707 194.368 198.194 203.918 206.877C206.007 208.78 207.232 211.317 207.299 214.254C207.483 217.043 206.463 219.836 204.561 221.926C202.892 223.722 200.621 224.917 198.112 225.203ZM175.763 200.446C171.934 200.882 168.831 204.179 168.739 208.071C168.692 212.359 172.048 215.991 176.481 216.156C179.168 216.252 187.698 217.154 191.435 220.61C193.084 222.162 195.434 222.831 197.679 222.576C199.528 222.365 201.301 221.494 202.603 220.008C204.038 218.506 204.736 216.419 204.628 214.29C204.519 212.161 203.633 210.255 202 208.835C193.186 200.738 178.287 200.293 176.673 200.209C176.424 200.371 176.159 200.401 175.763 200.446Z" fill="#414141"/>
<path d="M206.615 238.822C206.219 238.867 205.807 238.78 205.513 238.546C204.925 238.078 204.967 237.27 205.435 236.682C208.405 233.399 208.113 228.481 204.964 225.494C196.15 217.397 181.251 216.952 179.636 216.868C177.493 216.844 175.572 217.598 174.006 219.115C172.44 220.631 171.594 222.601 171.555 224.613C171.532 226.757 172.286 228.678 173.802 230.246C175.318 231.813 177.287 232.659 179.298 232.698C182.644 232.718 190.808 233.93 194.252 237.152C194.84 237.62 194.798 238.428 194.33 239.016C193.862 239.605 193.055 239.563 192.466 239.095C189.642 236.606 182.417 235.421 179.187 235.253C176.369 235.173 173.695 234.005 171.737 232.086C169.765 230.036 168.789 227.337 168.737 224.532C168.817 221.713 169.984 219.037 171.902 217.079C173.951 215.106 176.649 214.13 179.452 214.078C181.199 214.147 196.905 214.634 206.587 223.302C210.913 227.225 211.137 233.891 207.347 238.204C207.26 238.615 206.879 238.792 206.615 238.822Z" fill="#414141"/>
<path d="M118.609 45.9314C124.878 30.4969 142.485 23.0057 158.045 29.264C173.474 35.5373 180.964 53.1528 174.71 68.7195C170.54 79.0973 161.136 85.7886 150.865 87.2253L146.477 98.0295L118.426 86.6355L122.815 75.8313C116.393 67.5959 114.439 56.3092 118.609 45.9314Z" fill="#FCCC42"/>
<path d="M137.651 95.6883C137.387 95.7184 137.255 95.7334 137.108 95.6163C136.417 95.4272 136.063 94.6646 136.384 93.9589C136.69 93.1212 141.789 79.1581 146.894 67.6031C146.351 67.5311 145.94 67.4441 145.382 67.24C143.59 66.7748 141.9 66.0304 140.327 65.1389C136.203 75.913 129.594 90.7171 129.141 91.4378C128.82 92.1434 128.043 92.3657 127.337 92.0446C126.632 91.7234 126.41 90.9457 126.599 90.2551C126.716 90.1079 133.747 74.3189 137.856 63.4127C135.635 61.5243 133.911 59.3116 132.95 56.7445C131.797 53.6639 132.111 50.5501 133.852 48.2108C134.992 46.4751 137.882 46.0123 140.013 47.1079C141.16 47.7804 144.924 50.2961 142.45 57.9382C142.057 59.1873 141.562 60.7158 140.935 62.2592C142.229 63.0487 143.787 63.8082 145.711 64.2583C146.269 64.4624 146.945 64.5194 147.62 64.5763C150.086 59.2102 152.378 54.6668 154.016 52.6068C155.669 50.6788 159.88 50.0657 162.702 51.3504C165.523 52.6351 166.779 55.4364 166.128 59.1238C165.81 61.0335 164.406 62.7993 162.165 64.2589C158.662 66.3973 153.852 67.6141 149.271 67.3325C144.064 79.1667 138.542 94.1148 138.557 94.2469C138.677 95.3038 138.179 95.6282 137.651 95.6883ZM150.763 65.1554C154.373 65.1458 158.275 64.1664 161.015 62.3824C162.143 61.7187 163.475 60.4964 163.838 58.983C164.228 56.5298 163.636 54.8574 161.946 54.113C159.83 53.1494 157.102 53.8614 156.517 54.5972C154.995 56.5101 152.907 60.4949 150.763 65.1554ZM137.466 49.4053C136.937 49.4655 136.556 49.6427 136.322 49.937C135.167 51.5406 135.012 53.6995 135.81 56.0174C136.387 57.5577 137.39 59.3171 139.17 60.8542C139.695 59.59 140.088 58.3409 140.379 57.371C141.675 53.4763 141.227 50.717 139.243 49.7384C138.537 49.4172 137.994 49.3452 137.466 49.4053Z" fill="#080717"/>
<path d="M115.642 109.167L132.746 116.053C135.699 117.323 139.144 115.86 140.266 112.788L146.331 97.9121L118.428 86.6351L112.363 101.511C111.241 104.583 112.703 108.03 115.642 109.167Z" fill="#080717"/>
<path d="M114.71 91.6672L113.609 94.3774L143.903 106.688L145.003 103.978L114.71 91.6672Z" fill="#080717"/>
<path d="M117.237 85.9354L116.137 88.6456L146.43 100.957L147.531 98.2464L117.237 85.9354Z" fill="#080717"/>
<path d="M18.6486 103.623L14.8906 105.615L16.1354 107.965L19.8934 105.972L18.6486 103.623Z" fill="#373AE5"/>
<path d="M30.1174 97.5188L26.3594 99.511L27.6042 101.861L31.3622 99.8687L30.1174 97.5188Z" fill="#373AE5"/>
<path d="M21.4771 107.057L21.3242 111.309L23.9808 111.405L24.1337 107.153L21.4771 107.057Z" fill="#373AE5"/>
<path d="M21.956 93.9796L21.8027 98.2319L24.4593 98.3281L24.6127 94.0757L21.956 93.9796Z" fill="#373AE5"/>
<path d="M16.3198 96.9718L14.9082 99.225L18.512 101.485L19.9236 99.2317L16.3198 96.9718Z" fill="#373AE5"/>
<path d="M27.3706 103.86L25.959 106.114L29.5628 108.373L30.9744 106.12L27.3706 103.86Z" fill="#373AE5"/>
</svg>
