<svg width="286" height="258" viewBox="0 0 286 258" fill="none" xmlns="http://www.w3.org/2000/svg">
<path d="M-12.2786 249.35C-14.1276 249.214 -16.0493 248.489 -17.5901 247.326C-19.6744 245.656 -21.014 243.342 -21.4035 240.748L-43.0704 69.9595C-43.2886 68.1944 -42.9205 66.3559 -42.0003 64.908C-41.08 63.4602 -39.6163 62.5188 -37.9727 62.2904L243.286 23.4724C246.573 23.0155 249.736 25.8142 250.155 29.5764L271.929 200.489C272.575 205.901 268.839 210.872 263.437 211.639L-10.19 249.388C-10.8919 249.453 -11.5852 249.401 -12.2786 249.35ZM244.279 25.7611C244.047 25.7441 243.816 25.727 243.692 25.8344L-37.6817 64.6439C-38.6233 64.8076 -39.4751 65.3277 -40.1214 66.2128C-40.7762 67.2138 -40.9774 68.365 -40.8405 69.6577L-19.058 240.454C-18.7413 242.46 -17.7141 244.285 -16.1819 245.564C-14.5341 246.852 -12.5953 247.345 -10.481 247.034L263.146 209.285C267.251 208.772 270.208 204.91 269.699 200.791L247.925 29.8782C247.634 27.5247 246.012 25.8891 244.279 25.7611Z" fill="white"/>
<path d="M232.265 201.059L223.144 193.972L230.219 184.7L232.089 186.121L226.431 193.515L233.681 199.181L232.265 201.059Z" fill="#1D1D1B"/>
<path d="M248.221 198.971L246.466 197.559L252.125 190.165L244.759 184.491L246.175 182.613L255.403 189.824L248.221 198.971Z" fill="#1D1D1B"/>
<path d="M216.574 37.5417L214.275 37.8374L215.185 44.9886L217.484 44.6928L216.574 37.5417Z" fill="#1D1D1B"/>
<path d="M219.281 39.6408L212.154 40.5554L212.447 42.8622L219.574 41.9475L219.281 39.6408Z" fill="#1D1D1B"/>
<path d="M228.318 35.7765L225.502 36.1516L225.866 39.0935L228.682 38.7184L228.318 35.7765Z" fill="#1D1D1B"/>
<path d="M229.016 40.4919L226.084 40.8584L226.456 43.6843L229.388 43.3178L229.016 40.4919Z" fill="#1D1D1B"/>
<path d="M233.127 35.1979L230.195 35.5645L230.568 38.3904L233.5 38.0238L233.127 35.1979Z" fill="#1D1D1B"/>
<path d="M233.707 39.9054L230.776 40.272L231.148 43.0979L234.08 42.7314L233.707 39.9054Z" fill="#1D1D1B"/>
<path d="M148.806 162.132L121.033 177.922L121.907 153.5C122.198 146.409 125.476 139.771 130.921 135.276L149.355 120.079L148.806 162.132Z" fill="#414141"/>
<path d="M187.06 164.956L212.213 184.653L214.935 160.368C215.689 153.311 213.421 146.264 208.695 141.018L192.693 123.279L187.06 164.956Z" fill="#414141"/>
<path d="M178.544 20.6743C193.015 46.5787 202.041 67.5338 199.104 107.311C197.648 127.026 193.693 145.973 187.265 163.805C180.904 161.82 174.493 160.53 168.137 160.061C161.897 159.6 155.366 159.934 148.667 160.955C144.927 142.373 143.797 123.05 145.253 103.335C148.421 63.575 160.427 44.1727 178.544 20.6743ZM178.844 16.6154C158.937 42.3137 146.229 61.7808 143.173 103.182C141.606 124.404 143.121 144.805 146.968 163.512C153.799 162.267 160.801 161.851 167.966 162.38C175.131 162.909 181.987 164.465 188.57 166.583C195.238 148.652 199.617 128.687 201.184 107.465C204.356 66.0723 194.761 44.9586 178.844 16.6154Z" fill="#414141"/>
<path d="M170.612 128.062C167.492 127.832 164.761 130.196 164.53 133.327L161.019 180.874L172.344 181.71L175.855 134.163C176.086 131.032 173.732 128.293 170.612 128.062Z" fill="#414141"/>
<path d="M178.675 89.8536C184.658 87.3958 187.525 80.5369 185.079 74.5338C182.633 68.5308 175.8 65.6567 169.816 68.1145C163.833 70.5723 160.965 77.4312 163.411 83.4342C165.858 89.4373 172.691 92.3113 178.675 89.8536Z" fill="#414141"/>
<path d="M167.934 285.51C178.912 286.32 188.469 278.048 189.283 267.03C190.096 256.013 181.857 246.427 170.879 245.616L169.954 245.548C166.492 234.215 156.443 225.544 143.962 224.623C127.784 223.429 113.634 235.676 112.435 251.912L108.275 251.605C100.186 251.008 93.1107 257.132 92.5113 265.249C91.912 273.367 98.0109 280.464 106.1 281.061L110.145 281.36L167.925 285.626L167.934 285.51Z" fill="#FCCC42"/>
<path d="M165.508 285.33C154.53 284.52 146.291 274.933 147.104 263.916C147.918 252.899 157.475 244.626 168.453 245.437L169.378 245.505C174.467 234.804 185.681 227.703 198.161 228.624C214.34 229.819 226.538 244.012 225.339 260.247L229.499 260.555C237.588 261.152 243.687 268.248 243.088 276.366C242.489 284.484 235.414 290.608 227.324 290.011L223.28 289.712L165.5 285.446L165.508 285.33Z" fill="#FCCC42"/>
<path d="M169.417 255.204C181.995 252.817 190.269 240.652 187.897 228.031C185.525 215.411 173.406 207.114 160.829 209.501C148.251 211.888 139.977 224.053 142.349 236.674C144.721 249.294 156.84 257.59 169.417 255.204Z" fill="#FCCC42"/>
<path d="M166.403 185.119C161.665 184.769 157.569 188.315 157.218 193.07L155.531 215.915C155.18 220.67 158.711 224.779 163.449 225.129C168.187 225.478 172.283 221.933 172.634 217.178L174.321 194.332C174.556 189.569 171.025 185.46 166.403 185.119Z" fill="#FCCC42"/>
<path d="M85.4224 211.789L-24.9641 229.174C-31.3157 230.221 -37.1493 225.826 -38.1892 219.453L-54.3617 115.883C-55.4016 109.51 -51.0188 103.653 -44.6672 102.606L65.7193 85.2206C72.0708 84.1738 77.9044 88.5689 78.9444 94.9421L95.1083 198.628C96.0412 204.877 91.6498 210.849 85.4224 211.789Z" fill="#7CA0FC"/>
<path d="M79.4708 98.829L78.8289 94.9337C77.789 88.5605 71.9468 84.2813 65.6038 85.2122L-44.7827 102.598C-51.1343 103.645 -55.4016 109.51 -54.4772 115.875L-53.8352 119.77L79.4708 98.829Z" fill="#080717"/>
<path d="M-27.7725 171.249L-27.9266 170.189C-28.4786 166.65 -26.0347 163.449 -22.6235 162.884L58.4918 150.1C62.0186 149.544 65.2072 151.995 65.7678 155.418L65.9219 156.479C66.4739 160.018 64.03 163.219 60.6188 163.783L-20.4965 176.567C-24.0233 177.123 -27.2119 174.672 -27.7725 171.249Z" fill="white"/>
<path d="M32.4175 161.702L32.2635 160.641C31.7114 157.102 34.1553 153.901 37.5665 153.337L59.429 149.937C62.9557 149.381 66.1443 151.832 66.7049 155.255L66.859 156.316C67.4111 159.854 64.9671 163.055 61.5559 163.62L39.6849 167.135C36.1582 167.691 32.854 165.232 32.4175 161.702Z" fill="#080717"/>
<path d="M24.3733 138.523L3.99414 141.734L4.65706 145.984L25.0362 142.773L24.3733 138.523Z" fill="white"/>
<path d="M36.4399 125.872L-11.1875 133.371L-10.525 137.622L37.1024 130.122L36.4399 125.872Z" fill="white"/>
<path d="M54.424 155.227L40.3418 157.446L41.0047 161.696L55.087 159.477L54.424 155.227Z" fill="white"/>
<path d="M63.1514 119.258C76.4902 120.243 88.1047 110.19 89.093 96.8039C90.0813 83.4178 80.0692 71.768 66.7303 70.7832C53.3914 69.7983 41.777 79.8515 40.7887 93.2376C39.8004 106.624 49.8125 118.273 63.1514 119.258Z" fill="#FCCC42"/>
<path d="M58.9544 105.307L52.8555 98.21L54.5932 96.7059L59.1942 102.059L76.3488 86.8851L77.9623 88.6367L58.9544 105.307Z" fill="white"/>
<path d="M128.252 67.3358L122.723 72.1218L124.236 73.8825L129.765 69.0965L128.252 67.3358Z" fill="white"/>
<path d="M124.785 67.0883L123.029 68.6077L127.796 74.1539L129.551 72.6345L124.785 67.0883Z" fill="white"/>
<path d="M223.263 108.26L213.346 116.845L214.859 118.606L224.777 110.021L223.263 108.26Z" fill="white"/>
<path d="M215.623 107.792L213.867 109.312L222.417 119.259L224.172 117.74L215.623 107.792Z" fill="white"/>
</svg>
