<svg width="382" height="245" viewBox="0 0 382 245" fill="none" xmlns="http://www.w3.org/2000/svg">
<path d="M64.7798 41.7509C60.6941 41.3216 56.5946 38.6403 53.4398 35.308C49.9868 37.1959 44.2664 39.2206 37.7755 36.6632C34.895 35.4853 32.5748 33.7411 30.9125 31.6909C30.2415 32.1206 29.5705 32.5502 28.9124 32.8562C23.127 35.4994 20.8847 33.0131 20.663 32.7398L22.5913 31.0668C22.5913 31.0668 23.96 32.3359 28.032 30.5131C28.5532 30.3177 29.0875 29.9988 29.6347 29.5561C28.6763 27.955 28.1023 26.2692 28.0236 24.6354C27.7882 22.11 28.5043 20.0596 29.9832 19.0896C31.0516 18.4517 32.8629 17.8917 35.5936 19.3039C36.7797 19.9287 37.4057 21.1198 37.3866 22.4932C37.2635 24.8559 35.453 27.7917 33.0883 30.044C34.4182 31.6841 36.38 33.2656 38.9021 34.2808C44.1938 36.3372 48.9696 34.9634 51.8883 33.3945C51.1126 32.4377 50.4737 31.3703 49.9586 30.3159C48.0938 26.6189 47.9364 23.3514 49.7798 21.2944C51.6362 19.1138 54.1055 18.2479 56.7773 19.0287C59.56 19.9462 61.6655 22.5431 61.8619 25.4396C61.9995 27.7047 59.6417 31.0831 55.9741 33.8237L55.8372 33.9344C58.8813 37.13 63.0067 39.564 66.5384 39.3098C70.4414 39.0947 72.9368 37.9814 74.1481 35.9831C68.8694 33.803 68.1517 31.1019 68.1838 29.6048C68.2809 27.4894 70.2221 25.6927 72.4897 25.5558C75.1287 25.458 77.2671 28.9336 77.4375 32.0774C77.4963 32.7088 77.4054 33.5745 77.3274 34.3165C79.3932 34.9086 81.9672 35.4291 85.2971 35.904L85.0373 38.3774C81.5706 38.0132 78.7619 37.3431 76.5723 36.7379C75.322 39.1073 72.586 41.3206 66.7738 41.8353C65.8941 41.8679 65.3989 41.8159 64.7798 41.7509ZM55.0318 21.3461C53.7937 21.216 52.6144 21.7173 51.6048 22.9866C50.5952 24.256 50.7328 26.5211 52.0695 29.2873C52.5976 30.218 53.2365 31.2854 53.8884 32.2292C54.0252 32.1185 54.162 32.0078 54.2858 32.0208C57.5431 29.6122 59.2038 26.9109 59.184 25.9085C59.0074 24.0144 57.6906 22.2506 55.8724 21.6845C55.527 21.3981 55.2794 21.3721 55.0318 21.3461ZM72.4775 28.0553C71.3502 28.0619 70.5164 28.8496 70.4254 29.7153C70.4453 30.7176 71.4167 32.1951 74.6556 33.5357C74.6946 33.1646 74.7465 32.67 74.6617 32.2859C74.635 30.1575 73.3441 28.1463 72.4775 28.0553ZM32.5381 20.9835C32.0429 20.9315 31.6584 21.0161 31.261 21.2245C30.577 21.7778 30.1995 22.9885 30.415 24.5116C30.5457 25.6506 30.924 26.8157 31.5499 28.0068C33.4911 26.2101 34.7285 23.9644 34.7606 22.4674C34.8255 21.849 34.5909 21.6993 34.3563 21.5496C33.7632 21.2373 33.0333 21.0355 32.5381 20.9835Z" fill="white"/>
<path d="M342.268 87.283L344.997 61.312C346.53 46.7187 335.892 33.5975 321.282 32.0627C307.044 30.5669 294.224 40.5983 292.123 54.6319L252.876 50.5086L250.186 76.1086C250.134 76.6033 250.082 77.098 250.03 77.5927L342.268 87.283Z" fill="#FFAA02"/>
<path d="M306.043 32.9622C297.222 38.2873 290.631 48.5981 289.63 58.1208L281.339 132.272C279.741 147.483 266.048 158.674 250.696 157.061L117.848 143.104C126.669 137.779 133.26 127.468 134.26 117.945L141.874 45.4737C142.251 41.8872 143.247 38.3658 144.972 35.0461C144.972 35.0461 144.972 35.0461 144.985 34.9224C149.993 24.1952 161.309 17.7568 173.195 19.0055L174.433 19.1356L294.405 31.7395L306.043 32.9622ZM320.045 31.9325L294.664 29.2661L174.569 16.6491L173.331 16.5191C160.083 15.1273 147.92 22.477 142.587 33.9202C140.848 37.3636 139.703 41.1194 139.274 45.2006L131.673 117.549C130.322 130.41 117.601 145.454 103.734 143.997L250.325 159.397C267.039 161.153 281.951 149.091 283.705 132.395L291.983 58.3679C293.445 45.6428 306.179 30.4757 320.045 31.9325Z" fill="#FFAA02"/>
<path d="M223.398 133.312L226.607 102.765C228.14 88.1717 217.502 75.0505 202.892 73.5156C188.654 72.0198 175.834 82.0513 173.734 96.0848L134.486 91.9615L131.796 117.562C130.445 130.423 117.724 145.467 103.857 144.01L250.448 159.41C250.448 159.41 250.448 159.41 250.572 159.423C236.21 157.915 225.351 146.896 223.398 133.312Z" fill="#FFAA02"/>
<path d="M187.651 74.4152C178.83 79.7403 172.239 90.0511 171.239 99.5738L153.296 270.364L67.0004 261.298L37.9051 258.242L9.6467 223.389L24.1725 85.1237C25.7706 69.912 39.4638 58.7219 54.8162 60.3348L187.664 74.2915L187.651 74.4152ZM201.654 73.3855L55.0631 57.985C38.3488 56.2291 23.4373 68.2915 21.6833 84.9872L7.06657 224.118L36.6547 260.611L66.8643 263.785L153.903 272.929L155.636 273.111L173.839 99.8469C175.066 86.9721 187.787 71.9287 201.654 73.3855Z" fill="#FFAA02"/>
<path d="M106.358 98.7593L47.3008 92.5549L47.0409 95.0284L106.098 101.233L106.358 98.7593Z" fill="white"/>
<path d="M70.9142 112.041L45.5332 109.374L45.2733 111.848L70.6544 114.514L70.9142 112.041Z" fill="white"/>
<path d="M121.43 117.348L79.2109 112.912L78.9511 115.386L121.17 119.821L121.43 117.348Z" fill="white"/>
<path d="M137.478 136.164L103.678 132.613L103.418 135.086L137.218 138.637L137.478 136.164Z" fill="white"/>
<path d="M64.866 127.91L43.8184 125.699L43.5585 128.172L64.6062 130.384L64.866 127.91Z" fill="white"/>
<path d="M94.3328 131.006L73.2852 128.795L73.0253 131.268L94.073 133.479L94.3328 131.006Z" fill="white"/>
<path d="M197.356 38.0487L171.975 35.3822L171.715 37.8556L197.096 40.5221L197.356 38.0487Z" fill="white"/>
<path d="M247.87 43.3556L205.65 38.9202L205.391 41.3936L247.61 45.829L247.87 43.3556Z" fill="white"/>
<path d="M263.808 62.035L230.008 58.484L229.748 60.9574L263.548 64.5084L263.808 62.035Z" fill="white"/>
<path d="M191.307 53.9181L170.26 51.7069L170 54.1803L191.048 56.3916L191.307 53.9181Z" fill="white"/>
<path d="M220.774 57.0138L199.727 54.8026L199.467 57.276L220.514 59.4873L220.774 57.0138Z" fill="white"/>
<path d="M159.633 304.165L-1.31939 287.256C-8.25274 286.527 -13.3503 280.24 -12.6097 273.191L-1.91679 171.409C-1.61796 168.564 0.981292 166.462 3.82892 166.761L61.1529 172.783L61.4081 176.311C62.6638 190.572 74.7092 202.216 90.1854 203.842C105.662 205.468 119.851 196.705 124.056 182.893L125.039 179.495L180.505 185.322C182.858 185.569 184.631 187.756 184.384 190.106L173.6 292.754C172.86 299.803 166.567 304.893 159.633 304.165ZM6.15148 175.633L-4.19068 274.075C-4.43754 276.425 -2.77528 278.475 -0.422896 278.722L160.406 295.619C162.758 295.866 164.81 294.206 165.057 291.856L175.399 193.413L130.828 188.731C124.297 204.425 107.365 214.274 89.1651 212.362C70.9651 210.45 56.4366 197.42 53.323 180.588L6.15148 175.633Z" fill="#7CA0FC"/>
<path d="M172.629 228.133L5.60938 210.586L5.34952 213.059L172.369 230.606L172.629 228.133Z" fill="white"/>
<path d="M17.4185 176.816L-2.26728 174.748L1.47461 139.131L16.827 140.744L15.9435 149.153L9.01018 148.425L7.04829 167.099L18.315 168.283L17.4185 176.816Z" fill="#7CA0FC"/>
<path d="M179.353 194.23L164 192.617L164.897 184.084L171.83 184.812L173.792 166.138L166.859 165.41L167.742 157L183.095 158.613L179.353 194.23Z" fill="#7CA0FC"/>
<path d="M21.1158 226.219C17.2776 225.816 13.7338 228.569 13.318 232.527C12.9152 236.361 15.6727 239.901 19.6346 240.318C23.5965 240.734 27.0166 237.967 27.4323 234.01C27.8351 230.176 25.0777 226.635 21.1158 226.219Z" fill="white"/>
<path d="M46.6216 228.899C42.7835 228.495 39.2396 231.249 38.8239 235.206C38.4211 239.04 41.1785 242.581 45.1404 242.997C48.9786 243.4 52.5224 240.647 52.9382 236.689C53.341 232.855 50.5835 229.315 46.6216 228.899Z" fill="white"/>
<path d="M72.1255 231.578C68.2874 231.175 64.7435 233.928 64.3278 237.886C63.925 241.72 66.6824 245.26 70.6444 245.677C74.4825 246.08 78.0263 243.326 78.4421 239.369C78.8449 235.535 76.0874 231.994 72.1255 231.578Z" fill="white"/>
<path d="M97.6314 234.258C93.7933 233.854 90.2494 236.608 89.8336 240.565C89.4309 244.399 92.1883 247.94 96.1502 248.356C100.112 248.772 103.532 246.006 103.948 242.048C104.351 238.214 101.469 234.661 97.6314 234.258Z" fill="white"/>
<path d="M123.135 236.937C119.297 236.534 115.753 239.287 115.338 243.245C114.935 247.079 117.692 250.619 121.654 251.036C125.492 251.439 129.036 248.685 129.452 244.728C129.855 240.894 126.973 237.34 123.135 236.937Z" fill="white"/>
<path d="M148.641 239.617C144.803 239.213 141.259 241.967 140.843 245.924C140.441 249.758 143.198 253.299 147.16 253.715C150.998 254.118 154.542 251.365 154.958 247.407C155.36 243.573 152.479 240.02 148.641 239.617Z" fill="white"/>
<path d="M33.1763 242.49C29.3382 242.087 25.7943 244.841 25.3786 248.798C24.9758 252.632 27.7332 256.173 31.6951 256.589C35.5332 256.992 39.0771 254.239 39.4929 250.281C39.8957 246.447 37.0144 242.894 33.1763 242.49Z" fill="white"/>
<path d="M58.6802 245.17C54.8421 244.767 51.2982 247.52 50.8825 251.478C50.4797 255.312 53.2371 258.852 57.199 259.269C61.0371 259.672 64.581 256.918 64.9968 252.961C65.3996 249.127 62.5183 245.573 58.6802 245.17Z" fill="white"/>
<path d="M194.873 171.47L180.883 170L179.999 178.41L193.99 179.879L194.873 171.47Z" fill="#7CA0FC"/>
<path d="M200.46 161.884L192.041 161L189.001 189.939L197.42 190.824L200.46 161.884Z" fill="#7CA0FC"/>
<path d="M284.512 316.534L289.793 224.562L323.69 183.11C327.428 178.501 328.573 172.37 326.78 166.804L313.239 124.12L282.713 112.035C280.068 111.007 277.136 112.7 276.837 115.544L276.772 116.162C276.051 121.838 277.831 127.527 281.775 131.692L259.251 139.954C256.124 141.126 254.62 144.719 255.931 147.733L256.237 148.39C253.221 149.699 251.964 153.318 253.548 156.11L254.715 158.108L254.449 159.456C254.169 160.927 254.137 162.424 254.489 163.836C255.227 167.54 259.58 168.997 262.564 166.81L265.821 164.401L266.714 166.621L253.721 186.637C253.298 187.093 252.874 187.549 252.438 188.128C241.86 200.646 243.143 219.411 254.68 231.126L256.948 233.365L239.198 311.774L284.512 316.534Z" fill="white"/>
<path d="M262.845 106.947L272.438 113.332L296.068 142.197L300.451 152.91L290.857 146.526L267.227 117.66L262.845 106.947ZM257.525 100.386L265.103 118.813L289.3 148.238L305.92 159.236L298.342 140.81L274.145 111.385L257.525 100.386Z" fill="#414141"/>
<path d="M353.013 226.091L362.16 218.606L274.352 111.534L265.204 119.018L353.013 226.091Z" fill="#1D1D1B"/>
<path d="M253.379 213.734C252.76 213.669 252.193 213.109 252.271 212.367L252.738 207.915C253.485 199.616 257.92 191.955 264.695 187.04C272.415 181.474 277.338 172.739 278.326 163.34L280.639 141.326C281.028 137.616 283.125 134.335 286.331 132.421L287.399 131.783C292.481 128.691 298.88 129.738 302.785 134.275C304.903 136.748 305.816 139.97 305.478 143.185L301.113 184.739C301.035 185.481 300.488 185.924 299.745 185.846C299.002 185.768 298.559 185.221 298.637 184.479L303.002 142.925C303.262 140.452 302.532 137.874 300.856 135.948C297.851 132.381 292.69 131.464 288.677 133.918L287.609 134.556C285.074 136.04 283.414 138.742 283.115 141.586L280.789 163.723C279.724 173.864 274.364 183.179 266.097 189.188C259.869 193.66 255.883 200.618 255.202 208.299L254.734 212.751C254.669 213.37 254.122 213.812 253.379 213.734Z" fill="#1D1D1B"/>
<path d="M267.695 153.72C263.361 153.265 259.256 151.833 255.626 149.451L256.974 147.342C261.888 150.609 267.877 151.989 273.715 151.227L280.954 150.237L281.326 152.651L274.087 153.641C271.93 153.915 269.799 153.941 267.695 153.72Z" fill="#1D1D1B"/>
<path d="M254.722 159.234L254.735 156.735C261.101 156.904 265.897 156.532 269.524 151.787L271.499 153.245C267.259 159.051 261.336 159.429 254.722 159.234Z" fill="#1D1D1B"/>
<path d="M266.746 165.124L264.908 163.555C266.328 161.954 266.222 158.192 265.994 156.793L268.411 156.421C268.594 157.066 269.163 162.377 266.746 165.124Z" fill="#414141"/>
<path d="M238.944 312.997L238.82 312.984C238.214 312.796 237.784 312.125 237.849 311.507L255.535 233.717L253.723 231.901C241.618 219.626 240.674 200.021 251.415 187.145C251.838 186.689 252.261 186.234 252.685 185.778L264.193 167.982C262.317 169.16 259.789 169.394 257.39 168.392C255.103 167.527 253.649 165.874 253.238 163.83C253.01 162.43 252.931 160.797 253.237 159.078L253.341 158.089L252.382 156.488C251.437 154.763 251.26 152.869 251.827 151.053C252.354 149.608 253.227 148.449 254.445 147.577C253.871 145.891 253.929 144.147 254.606 142.467C255.42 140.677 256.814 139.323 258.638 138.64L279.474 130.951C276.039 126.714 274.617 121.188 275.312 115.759L275.377 115.141C275.559 113.409 276.595 111.893 278.061 111.046C279.526 110.2 281.299 110.011 282.98 110.688L313.505 122.772C313.864 122.935 314.085 123.208 314.17 123.592L327.711 166.277C329.577 172.35 328.393 178.852 324.368 183.806L290.758 224.913L285.392 316.502C285.314 317.244 284.767 317.686 284.024 317.608C283.281 317.53 282.838 316.983 282.915 316.241L288.197 224.269C288.223 224.022 288.249 223.774 288.522 223.553L322.419 182.101C325.871 177.837 326.964 172.2 325.268 166.896L311.923 124.732L282.003 112.836C281.163 112.498 280.159 112.517 279.228 113.044C278.42 113.585 277.834 114.398 277.743 115.264L277.678 115.883C276.995 121.187 278.691 126.492 282.4 130.508C282.745 130.794 282.817 131.302 282.655 131.66C282.616 132.031 282.329 132.376 281.808 132.571L259.284 140.833C258.118 141.211 257.147 142.109 256.646 143.307C256.145 144.504 256.139 145.754 256.641 146.932L256.947 147.59C257.045 147.85 257.13 148.234 256.967 148.592C256.804 148.95 256.654 149.184 256.27 149.269C255.091 149.77 254.244 150.682 253.879 151.769C253.515 152.856 253.633 154.118 254.148 155.173L255.315 157.171C255.412 157.431 255.51 157.692 255.484 157.939L255.218 159.286C254.938 160.757 254.932 162.007 255.186 163.159C255.441 164.311 256.34 165.281 257.787 165.808C259.345 166.472 261.241 166.296 262.322 165.534L264.204 163.106C264.491 162.761 264.889 162.553 265.384 162.605C265.879 162.657 266.224 162.943 266.309 163.327L267.203 165.547C267.411 165.944 267.372 166.315 267.086 166.66L254.093 186.676C254.08 186.8 253.956 186.787 253.943 186.911C253.519 187.366 253.096 187.822 252.673 188.278C242.668 200.105 243.644 218.213 254.836 229.642L257.104 231.881C257.45 232.167 257.522 232.675 257.483 233.046L239.732 311.455C240.097 312.743 239.563 313.062 238.944 312.997Z" fill="#1D1D1B"/>
</svg>
