<svg width="311" height="250" viewBox="0 0 311 250" fill="none" xmlns="http://www.w3.org/2000/svg">
<path d="M193.413 130.457L178.731 140.064C161.228 151.575 134.465 144.799 114.538 122.494C91.753 96.9191 86.6225 60.8462 103.116 41.6443L117.798 32.0372C101.304 51.239 106.457 87.4567 129.22 112.887C149.147 135.192 175.91 141.968 193.413 130.457Z" fill="#FFAB01"/>
<path d="M117.798 32.0371C134.292 12.8353 166.155 18.1041 188.774 43.5559C211.56 69.1306 216.69 105.204 200.196 124.405C183.703 143.607 151.861 138.483 129.22 112.887C106.435 87.3119 101.283 51.0943 117.798 32.0371Z" fill="#FFC910"/>
<path d="M128.668 44.3109C140.75 30.2117 164.12 34.0948 180.832 52.7406C197.567 71.5311 201.261 98.0541 189.178 112.153C177.095 126.252 153.726 122.369 137.013 103.724C120.423 84.9113 116.563 58.2654 128.668 44.3109Z" fill="#FFAB01"/>
<path d="M211.185 199.542L259.309 140.435C262.316 136.741 267.523 135.556 271.612 137.808C273.889 139.14 274.507 142.182 273.029 144.467L238.816 195.869C238.67 195.878 201.328 211.406 211.185 199.542Z" fill="#5C78BF"/>
<path d="M206.654 212.266L210.29 204.284L232.955 153.413C234.64 149.65 238.627 147.657 242.347 148.611C244.435 149.222 245.594 151.499 244.992 153.733L228.668 202.767C228.513 202.63 201.343 224.157 206.654 212.266Z" fill="#5C78BF"/>
<path d="M47.3845 200.498C47.651 200.042 57.6014 192.277 68.2565 184.03C85.3562 170.715 106.467 163.321 128.144 163.076L207.083 162.112C211.766 161.984 215.382 166.169 214.771 170.749C214.376 173.997 211.746 176.643 208.558 177.269L158.665 186.204C153.734 187.08 153.853 194.108 158.595 195.003L170.15 197.11C184.67 199.777 199.766 197.279 212.68 190.073L276.831 154.358C280.947 152.065 285.99 153.088 288.851 156.878C290.44 158.983 290.035 162.085 287.775 163.537L204.564 221.623L201.161 223.581C192.663 228.623 183.014 231.534 173.245 232.4L81.7695 239.523L35.2606 253.683L32.4343 205.478L47.3845 200.498Z" fill="#82A1F0"/>
<path d="M185.385 199.442C180.273 199.742 174.981 199.466 169.938 198.442L158.383 196.335C157.644 196.232 157.008 195.389 157.257 194.642C157.361 193.903 158.203 193.267 158.95 193.517L170.505 195.624C184.724 198.162 199.528 195.681 212.167 188.784L260.423 161.916C261.136 161.581 262.029 161.822 262.364 162.535C262.699 163.249 262.458 164.142 261.745 164.477L213.49 191.345C204.829 196.103 195.171 198.868 185.385 199.442Z" fill="#414141"/>
<path d="M229.221 182.214C228.929 182.231 228.628 182.102 228.328 181.973C227.709 181.423 227.512 180.555 228.062 179.937L241.485 161.414C241.889 160.804 242.903 160.598 243.521 161.148C244.14 161.698 244.337 162.566 243.787 163.184L230.364 181.707C230.089 182.016 229.659 182.188 229.221 182.214Z" fill="#414141"/>
<path d="M51.5804 287.025L34.2498 201.414L-42.8691 205.936L-37.1394 303.659L51.5804 287.025Z" fill="#FCCA3D"/>
<path d="M224.417 135.475L208.068 137.934L208.504 140.828L224.853 138.369L224.417 135.475Z" fill="white"/>
<path d="M79.564 33.9966L64.0859 39.8077L65.1146 42.5475L80.5926 36.7363L79.564 33.9966Z" fill="white"/>
<path d="M216.593 129.697L213.699 130.132L216.159 146.483L219.052 146.048L216.593 129.697Z" fill="white"/>
<path d="M70.7082 29.9751L67.9688 31.0037L73.7805 46.4833L76.52 45.4548L70.7082 29.9751Z" fill="white"/>
<path d="M99.0781 152.023C84.4652 154.221 70.8165 144.141 68.618 129.526C66.4196 114.912 76.4986 101.262 91.1115 99.064C105.724 96.8658 119.373 106.946 121.572 121.561C123.77 136.175 113.691 149.825 99.0781 152.023ZM91.5468 101.958C78.5255 103.917 69.5527 116.068 71.5117 129.091C73.4707 142.114 85.6214 151.088 98.6427 149.129C111.664 147.17 120.637 135.019 118.678 121.996C116.719 108.973 104.568 99.9992 91.5468 101.958Z" fill="white"/>
<path d="M58.3627 119.379L45.7754 121.273L46.2107 124.167L58.798 122.273L58.3627 119.379Z" fill="white"/>
<path d="M62.1783 129.015L52.1953 130.517L52.6306 133.411L62.6137 131.909L62.1783 129.015Z" fill="white"/>
<path d="M66.2858 138.608L48.7793 141.241L49.2146 144.135L66.7211 141.502L66.2858 138.608Z" fill="white"/>
<path d="M47.2767 131.257L42.2129 132.019L42.6482 134.912L47.7121 134.151L47.2767 131.257Z" fill="white"/>
<path d="M40.8549 122.013L35.791 122.775L36.2263 125.669L41.2902 124.907L40.8549 122.013Z" fill="white"/>
<path d="M43.8607 141.981L38.7969 142.743L39.2322 145.637L44.2961 144.875L43.8607 141.981Z" fill="white"/>
<path d="M92.2374 108.513L89.3438 108.948L90.1056 114.012L92.9992 113.577L92.2374 108.513Z" fill="white"/>
<path d="M96.7432 138.465L93.8496 138.9L94.6114 143.965L97.5051 143.529L96.7432 138.465Z" fill="white"/>
<path d="M94.8002 127.512L92.3406 127.882C88.1448 128.513 84.1501 125.562 83.5189 121.366C82.8876 117.17 85.8376 113.175 90.0334 112.544L92.4929 112.174C96.6887 111.543 100.683 114.493 101.315 118.689L98.4211 119.124C98.0293 116.52 95.5325 114.676 92.9283 115.068L90.4687 115.438C87.8644 115.829 86.0207 118.326 86.4125 120.931C86.8043 123.535 89.301 125.379 91.9053 124.988L94.3649 124.618L94.8002 127.512Z" fill="white"/>
<path d="M96.6713 139.956L94.2117 140.326C90.0159 140.957 86.0212 138.006 85.39 133.81L88.2836 133.375C88.6754 135.979 91.1721 137.823 93.7764 137.432L96.236 137.062C98.8402 136.67 100.684 134.173 100.292 131.568C99.9004 128.964 97.4036 127.12 94.7994 127.512L92.3398 127.882L91.9044 124.988L94.364 124.618C98.5598 123.987 102.555 126.937 103.186 131.133C103.983 135.452 101.012 139.303 96.6713 139.956Z" fill="white"/>
</svg>
