<svg width="341" height="271" viewBox="0 0 341 271" fill="none" xmlns="http://www.w3.org/2000/svg">
<path d="M5.2376 118.49C5.12566 118.472 4.90179 118.437 4.80731 118.308C4.28253 117.997 4.1634 117.29 4.47455 116.765L18.953 95.9742C19.2642 95.4493 19.9707 95.3301 20.4955 95.6413C21.0203 95.9525 21.1394 96.6591 20.8283 97.1839L6.34977 117.975C6.05608 118.388 5.68535 118.56 5.2376 118.49Z" fill="#080717"/>
<path d="M-3.37371 176.661L-17.5639 132.364C-19.8921 125.236 -19.3767 117.518 -16.3566 110.65L10.3038 50.7067C11.5586 47.8062 15.6931 47.7629 17.0652 50.7289C18.9692 54.6953 19.4078 59.2358 18.2967 63.42L5.37058 116.905C3.81591 123.199 5.41294 129.869 9.9511 134.59C17.4459 142.41 29.9962 142.074 37.1014 134.008L55.4556 113.362C60.8685 107.326 68.8078 104.207 76.8251 104.998C79.4171 105.287 80.9186 108.159 79.5271 110.465L69.7273 126.252C62.0706 138.589 57.8214 152.604 57.1716 167.066C56.4213 184.379 49.2905 200.697 37.0516 213.008C24.3229 224.784 -3.37371 176.661 -3.37371 176.661Z" fill="#7CA0FC"/>
<path d="M16.7523 140.238C16.6403 140.22 16.6403 140.22 16.5284 140.203C14.0411 139.242 11.7356 137.85 9.74123 135.934C4.75532 131.143 2.66843 123.937 4.29292 117.196L13.4844 78.8383C13.5716 78.2785 14.2186 77.8061 14.8728 78.0227C15.5444 78.1275 15.9049 78.757 15.6882 79.4113L6.49675 117.769C5.10639 123.744 6.86772 130.096 11.2518 134.335C12.9453 135.975 15.0269 137.331 17.1959 138.128C17.7381 138.328 18.0986 138.957 17.8819 139.611C17.8295 139.947 17.3119 140.325 16.7523 140.238Z" fill="#080717"/>
<path d="M7.67164 132.286C7.44777 132.251 7.33583 132.233 7.12941 132.087C6.62209 131.663 6.50295 130.957 6.92604 130.449L16.461 117.832C16.8841 117.324 17.5906 117.205 18.0979 117.628C18.6052 118.051 18.7244 118.758 18.3013 119.265L8.76636 131.883C8.49012 132.184 8.00745 132.338 7.67164 132.286Z" fill="#080717"/>
<path d="M116.176 22.4935L100.049 15.6213L94.4683 23.4662C92.0057 23.0822 89.5256 22.8101 86.8987 22.7445L83.7304 13.6502L66.413 15.8808L65.4438 26.5087C63.3663 27.3315 61.2714 28.2662 59.4003 29.2358L51.4126 22.3715L37.3858 32.9127L42.2054 43.1819C40.9362 44.704 39.7614 46.3556 38.5866 48.0071L27.6691 45.9607L20.7971 62.0898L30.1979 68.7158C29.9011 70.6189 29.5869 72.634 29.3846 74.6665L18.8431 78.2976L20.9436 95.7111L32.1475 96.6554C32.8582 98.7156 33.5864 100.664 34.4439 102.518L27.4506 110.601L37.9904 124.629L47.3879 120.246C49.0813 121.886 50.9216 123.32 52.8913 124.659L51.0369 134.346L67.1641 141.218L72.5975 133.58C75.1372 134.205 77.8237 134.624 80.5451 134.819L83.3704 143.172L100.782 141.071L101.514 132.699C104.393 131.887 107.212 130.721 109.824 129.408L115.783 134.58L129.809 124.039L126.533 117.106C128.726 114.811 130.617 112.239 132.415 109.538L139.544 110.879L146.416 94.7496L140.318 90.4733C141.03 87.3736 141.424 84.1097 141.465 80.9053L148.258 78.5243L146.157 61.1109L138.458 60.4837C137.422 57.5701 136.144 54.7334 134.737 51.9913L139.762 46.2386L129.222 32.2107L121.437 35.8129C119.313 33.9911 116.931 32.3582 114.531 30.8373L116.176 22.4935ZM109.434 76.0254C111.043 89.2341 101.708 101.31 88.5002 102.92C75.2927 104.53 63.2187 95.1934 61.6093 81.9846C59.9998 68.7759 69.3355 56.7005 82.543 55.0905C95.7505 53.4804 107.824 62.8167 109.434 76.0254Z" fill="#FCCC42"/>
<path d="M79.5553 116.891C62.9886 114.308 49.5703 101.092 47.3579 83.6616C46.0781 73.4857 48.8979 63.4904 55.2022 55.4144C61.5064 47.3385 70.5609 42.2141 80.7358 40.9339C90.9108 39.6537 100.905 42.4734 108.98 48.778C117.055 55.0827 122.179 64.1378 123.458 74.3137C124.738 84.4896 121.918 94.4849 115.614 102.561C109.31 110.637 100.255 115.761 90.0805 117.041C86.5652 117.525 83.0254 117.432 79.5553 116.891ZM91.1358 43.3582C87.8896 42.852 84.4616 42.7762 81.0758 43.1656C71.4955 44.3092 62.9411 49.1676 57.06 56.7361C51.1788 64.3047 48.5582 73.7578 49.7014 83.339C52.1243 103.096 70.2266 117.156 89.9818 114.733C99.5622 113.589 108.117 108.731 113.998 101.162C119.879 93.5936 122.499 84.1405 121.356 74.5593C120.213 64.9781 115.355 56.423 107.788 50.5415C102.774 46.6637 97.0684 44.2833 91.1358 43.3582Z" fill="white"/>
<path d="M55.6796 113.397L37.3254 134.043C35.5211 136.055 33.4508 137.566 31.1146 138.578C24.4041 168.378 26.8467 195.363 37.8456 212.329C49.6018 200.172 56.5857 184.061 57.2837 167.084C57.9335 152.622 62.2946 138.624 69.8393 126.269L79.6392 110.482C81.0132 108.288 79.6411 105.322 76.9372 105.015C68.9024 104.336 60.9806 107.343 55.6796 113.397Z" fill="#7CA0FC"/>
<path d="M254.07 133.782C257.032 130.23 295.306 153.17 295.306 153.17C295.306 153.17 305.114 166.739 307.141 173.592C309.169 180.444 310.783 187.003 309.761 194.297C308.738 201.591 306.295 220.933 306.295 220.933L276.929 168.078L264.65 153.435C264.668 153.323 248.588 140.266 254.07 133.782Z" fill="#7CA0FC"/>
<path d="M308.947 180.409C308.499 180.34 308.198 180.063 308.044 179.581C305.316 169.867 297.761 158.024 297.666 157.895C297.288 157.377 297.505 156.723 298.022 156.345C298.54 155.967 299.194 156.184 299.572 156.702C299.838 157.202 307.523 168.95 310.31 179.017C310.447 179.611 310.118 180.248 309.524 180.385C309.17 180.444 309.058 180.427 308.947 180.409Z" fill="#080717"/>
<path d="M307.5 213.209C307.538 211.495 307.688 209.798 307.674 208.42C307.882 203.407 305.981 197.95 304.003 192.252C299.704 180.115 295.581 170.528 292.648 164.337C290.152 159.017 285.121 155.251 279.412 154.361L240.363 148.157C240.363 148.157 233.188 156.671 241.301 161.261C244.768 163.293 270.061 173.887 270.061 173.887C270.061 173.887 278.622 191.047 272.238 200.372C265.983 209.602 262.192 201.557 259.487 197.581C257.615 194.881 234.836 214.492 242.667 234.863C245.631 242.321 258.366 261.392 270.834 279.964C276.777 288.917 288.117 290.456 296.346 284.744L307.5 213.209Z" fill="#7CA0FC"/>
<path d="M300.632 185.191C300.296 185.138 299.978 184.974 299.806 184.603C299.386 183.62 288.519 161.4 287.241 158.563C286.09 157.122 273.581 154.254 262.499 152.526C261.827 152.422 261.449 151.904 261.554 151.232C261.659 150.561 262.176 150.183 262.848 150.287C272.251 151.753 288.076 154.68 289.319 157.74C290.484 160.559 301.6 183.392 301.789 183.651C302.038 184.263 301.821 184.917 301.321 185.183C301.08 185.26 300.856 185.225 300.632 185.191Z" fill="#080717"/>
<path d="M161.98 242.005C161.868 241.988 161.644 241.953 161.55 241.824C161.137 241.53 160.965 241.159 161.035 240.711L163.88 222.464L83.0617 209.862C79.2558 209.268 76.6103 205.645 77.2038 201.839L94.6248 90.1141C95.2183 86.3079 98.8413 83.6621 102.647 84.2555L262.27 109.145C266.076 109.738 268.721 113.362 268.128 117.168L250.707 228.893C250.427 230.684 249.476 232.37 247.924 233.504C246.371 234.638 244.587 235.048 242.684 234.751L184.701 225.71L162.704 241.774C162.557 241.981 162.316 242.058 161.98 242.005ZM102.41 86.5119C99.8354 86.1105 97.3769 87.9059 96.9754 90.4807L79.5545 202.205C79.153 204.78 80.9481 207.239 83.5227 207.64L165.461 220.417C165.797 220.469 166.003 220.616 166.192 220.875C166.381 221.134 166.458 221.375 166.406 221.711L163.822 238.279L184.007 223.538C184.266 223.349 184.508 223.272 184.843 223.324L243.275 232.435C244.506 232.627 245.807 232.372 246.73 231.598C247.765 230.842 248.388 229.793 248.58 228.561L266.001 116.836C266.402 114.262 264.607 111.803 262.032 111.401L102.41 86.5119Z" fill="#414141"/>
<path d="M126.276 108.466C125.525 113.279 120.979 116.699 116.054 115.931C111.24 115.18 107.822 110.634 108.59 105.708C109.34 100.894 113.887 97.4749 118.812 98.2429C123.737 99.0109 127.044 103.54 126.276 108.466Z" fill="#86A8FC"/>
<path d="M201.001 122.64L133.615 112.133L133.022 115.939L200.408 126.447L201.001 122.64Z" fill="#7CA0FC" fill-opacity="0.92"/>
<path d="M172.941 109.206L134.994 103.289L134.401 107.095L172.347 113.012L172.941 109.206Z" fill="#7CA0FC" fill-opacity="0.92"/>
<path d="M248.586 145.426L106.426 123.259L95.0969 195.914L237.257 218.081L248.586 145.426Z" fill="#FCCC42"/>
<path d="M178.903 171.714L169.257 175.484L159.499 179.238L161.105 168.938L162.711 158.639L170.863 165.185L178.903 171.714Z" fill="white"/>
<path d="M259.452 197.805C257.95 194.933 247.528 177.942 243.368 173.739C241.391 171.71 237.676 169.067 234.139 167.483C235.447 167.917 229.629 165.519 232.848 166.938C229.577 165.855 226.821 165.884 225.842 168.483C223.798 174.242 232.493 184.657 233.808 194.609C235.122 204.561 234.295 221.632 245.35 240.442C248.441 245.625 256.289 253.385 264.193 262.989C271.41 263.77 277.485 262.309 281.653 258.372C292.424 248.126 261.047 200.806 259.452 197.805Z" fill="#7CA0FC"/>
<path d="M31.541 280.697L47.9583 175.409L3.18416 166.216L-39.875 269.561C-39.875 269.561 31.8589 278.658 31.541 280.697Z" fill="#7CA0FC"/>
<path d="M298.968 313.655L307.115 215.672L284.594 210.096L232.238 304.677C232.238 304.677 309.304 313.655 298.968 313.655Z" fill="#7CA0FC"/>
</svg>
