<svg width="306" height="244" viewBox="0 0 306 244" fill="none" xmlns="http://www.w3.org/2000/svg">
<path d="M178.48 253.307L-6.79916 266.263C-7.45462 266.309 -7.92291 265.891 -7.96986 265.22L-18.4404 115.484C-18.6596 112.35 -17.5599 109.237 -15.2974 107.055C-13.0349 104.872 -10.0386 103.763 -6.94065 104.109L161.536 120.892C166.624 121.436 170.651 125.652 171.019 130.912L179.502 252.223C179.541 252.783 179.135 253.261 178.48 253.307ZM-5.86322 263.948L177.231 251.145L168.826 130.953C168.537 126.812 165.337 123.438 161.357 123.041L-7.22111 106.377C-9.6558 106.098 -12.0044 107.049 -13.8612 108.753C-15.4996 110.442 -16.4277 112.869 -16.2555 115.331L-5.86322 263.948Z" fill="#080717"/>
<path d="M1.23525 255.58L-8.66406 114.013L161.139 130.928L169.035 243.846L1.23525 255.58Z" fill="#7CA0FC"/>
<path d="M287.088 259.558L7.20362 279.13C-0.661987 279.68 -7.45206 273.632 -8.01549 265.575C-8.06245 264.903 -7.65677 264.425 -7.0013 264.379L299.102 242.974C299.758 242.928 300.226 243.345 300.273 244.017C300.836 252.074 294.954 259.008 287.088 259.558ZM-5.74452 266.653C-4.76007 272.882 0.718751 277.447 6.94569 277.011L286.94 257.432C293.167 256.997 297.957 251.714 298.065 245.408L-5.74452 266.653Z" fill="#080717"/>
<path d="M180.645 81.7697L93.2488 87.881C87.7866 88.2629 82.222 84.0413 80.8475 78.5145L80.707 78.0745L80.3789 76.523C79.0045 70.9963 73.4399 66.7746 67.9776 67.1566L53.0111 68.2031L43.0699 68.8983L28.1034 69.9449C22.6411 70.3268 18.483 75.2283 18.8742 80.8239L26.9815 196.763C27.3728 202.359 32.5004 206.611 37.9626 206.229L188.392 195.71C193.855 195.328 198.341 190.403 197.949 184.808C197.949 184.808 195.883 155.264 195.829 154.48L191.399 91.1388C190.907 85.6629 186.107 81.3877 180.645 81.7697Z" fill="#FFAB01"/>
<path d="M95.2237 49.8375L68.4588 51.7091C62.0134 52.1598 56.5033 47.1471 56.0494 40.6563L55.212 28.6819C54.6489 22.1987 59.517 16.4603 65.9625 16.0096L92.7274 14.138C99.1728 13.6873 104.683 18.7 105.137 25.1908L105.974 37.1652C106.545 43.7603 101.669 49.3868 95.2237 49.8375Z" fill="#FFAB01"/>
<path d="M147.444 93.6502L120.679 95.5218C114.233 95.9725 108.686 90.4239 108.187 83.2854L107.266 70.1161C106.758 62.8546 111.597 56.7033 117.933 56.2602L144.698 54.3886C151.144 53.9379 156.691 59.4866 157.191 66.625L158.111 79.7943C158.728 87.0482 153.889 93.1995 147.444 93.6502Z" fill="#587BE1"/>
<path d="M123.471 73.7688L116.091 84.406L132.259 83.2755L123.471 73.7688Z" fill="white"/>
<path d="M137.584 66.8216L125.922 83.7185L151.594 81.9233L137.584 66.8216Z" fill="white"/>
<path d="M129.049 67.1934C129.182 69.0959 127.864 70.65 126.007 70.7799C124.149 70.9098 122.628 69.5542 122.495 67.6517C122.361 65.7493 123.68 64.1951 125.537 64.0653C127.285 63.943 128.916 65.2909 129.049 67.1934Z" fill="white"/>
<path d="M79.9625 23.2538L83.4752 29.5307L90.5373 30.049L85.8642 35.4364L87.4497 42.4103L81.0972 39.4808L75.105 43.2736L75.8137 36.1392L70.327 31.4622L77.2483 29.9661L79.9625 23.2538Z" fill="white"/>
<path d="M152.112 138.419C150.414 115.709 158.783 94.0944 175.175 78.8909C204.252 52.0045 249.332 54.5875 275.807 84.6742L269.308 90.6391C246.057 64.263 206.486 61.9695 181.021 85.567C166.689 98.827 159.342 117.784 160.844 137.696L152.112 138.419Z" fill="white"/>
<path d="M277.338 94.0136L250.12 92.5431L250.587 83.5139L268.995 84.5883L269.873 65.7464L278.581 66.262L277.338 94.0136Z" fill="white"/>
<path d="M230.916 213.541C221.302 214.213 211.439 212.879 201.981 209.492L204.905 201.078C220.677 206.835 237.742 205.979 252.817 198.627C267.891 191.275 279.18 178.453 284.756 162.431C291.136 143.767 288.728 123.468 278.112 106.667L285.454 101.768C297.546 120.827 300.266 144.028 292.982 165.455C286.688 183.776 273.776 198.511 256.572 206.799C248.496 210.625 239.765 212.922 230.916 213.541Z" fill="white"/>
<path d="M209.773 226.715L197.915 201.567L222.446 189.73L226.194 197.79L209.637 205.92L217.631 222.905L209.773 226.715Z" fill="white"/>
<path d="M194.403 195.29L35.124 206.428C35.1083 206.204 76.0666 121.583 76.0666 121.583C78.8434 115.766 85.5142 110.689 90.9765 110.307L239.658 99.9097C245.121 99.5278 247.299 103.986 244.522 109.803L209.203 184.021C206.543 189.942 199.756 194.915 194.403 195.29Z" fill="#FCCC42"/>
<path d="M129.264 139.792C148.928 138.417 166.021 153.641 167.429 173.785L167.437 173.897L167.445 174.008C167.523 175.128 168.468 176.074 169.568 176.109C180.141 176.607 188.758 185.226 189.517 196.081C190.339 207.832 181.617 218.113 170.146 218.915L131.364 221.627L120.003 222.422L109.843 223.132L87.2294 224.713L66.9099 226.134C66.8006 226.142 66.5821 226.157 66.4729 226.165C66.3637 226.172 66.3637 226.172 66.2544 226.18C65.9267 226.203 65.7082 226.218 65.4897 226.233C60.246 226.6 55.571 222.541 55.1875 217.058C54.8119 211.686 58.5566 207.151 63.7847 206.56C64.4401 206.514 64.9629 206.14 65.3686 205.662C65.7742 205.184 65.8365 204.505 65.7974 203.945C65.6177 202.946 65.4381 201.946 65.3754 201.051C64.4442 187.734 74.2819 176.137 87.282 175.228C89.3576 175.083 91.566 175.266 93.6808 175.68C93.8992 175.665 94.1256 175.762 94.2348 175.754C94.6718 175.724 95.1009 175.581 95.413 175.334C95.9358 174.96 96.2244 174.378 96.2867 173.699C97.3209 155.521 111.567 141.03 129.264 139.792ZM129.108 137.554C109.99 138.891 95.2762 154.539 94.0783 173.516C91.8464 172.997 89.4196 172.83 87.0162 172.998C72.8144 173.991 62.064 186.663 63.0813 201.211C63.1517 202.219 63.3392 203.33 63.5189 204.33C57.1984 204.996 52.4317 210.615 52.8934 217.218C53.3629 223.933 58.9823 228.938 65.537 228.479C65.8647 228.456 66.1924 228.433 66.5202 228.411L87.2766 226.959L110 225.37L120.159 224.66L131.521 223.865L170.303 221.153C183.084 220.26 192.618 209.022 191.702 195.928C190.857 183.842 181.194 174.397 169.63 173.856C169.622 173.744 169.614 173.632 169.614 173.632C168.112 152.145 149.974 136.095 129.108 137.554Z" fill="white"/>
<path d="M124.136 168.49L121.951 168.643L125.833 224.15L128.018 223.998L124.136 168.49Z" fill="white"/>
<path d="M103.282 192.103L101.643 190.643L122.13 166.494C122.536 166.015 123.191 165.97 123.659 166.387L147.308 187.45L145.888 189.123L123.059 168.79L103.282 192.103Z" fill="white"/>
</svg>
