<svg width="215" height="58" viewBox="0 0 215 58" fill="none" xmlns="http://www.w3.org/2000/svg">
<path d="M28.6428 9.15625H45.8043L17.7608 49.0828H0.339844L28.6428 9.15625Z" fill="#575AFF"/>
<path d="M56.7717 9.00506L73.9278 8.98633L45.8897 48.9316H28.4688L56.7717 9.00506Z" fill="#FFBE11"/>
<path d="M28.4688 33.4873L45.8897 8.90137V24.5855L28.4688 48.9833V33.4873Z" fill="url(#paint0_linear_2027_303)"/>
<path d="M56.5117 33.4873L73.9327 8.90137V48.7476H56.5117V33.4873Z" fill="url(#paint1_linear_2027_303)"/>
<path d="M84.1471 24.1616C83.9602 24.1616 83.8072 24.1022 83.6882 23.9835C83.5693 23.8649 83.5098 23.7122 83.5098 23.5257V11.5719C83.5098 11.3854 83.5693 11.2328 83.6882 11.1141C83.8072 10.9954 83.9602 10.936 84.1471 10.936H86.926C87.1129 10.936 87.2659 10.9954 87.3849 11.1141C87.5038 11.2328 87.5633 11.3854 87.5633 11.5719V12.4366C87.9032 11.9788 88.3791 11.5804 88.991 11.2412C89.6029 10.8852 90.3252 10.6986 91.158 10.6817C93.1125 10.6478 94.4552 11.3854 95.1861 12.8944C95.577 12.2501 96.1378 11.7245 96.8687 11.3175C97.5995 10.8936 98.3983 10.6817 99.2651 10.6817C100.149 10.6817 100.939 10.8852 101.636 11.2921C102.35 11.6821 102.919 12.2925 103.344 13.1233C103.769 13.9372 103.982 14.997 103.982 16.3026V23.5257C103.982 23.7122 103.914 23.8649 103.778 23.9835C103.659 24.1022 103.514 24.1616 103.344 24.1616H100.387C100.2 24.1616 100.038 24.1022 99.9025 23.9835C99.7835 23.8649 99.724 23.7122 99.724 23.5257V16.4806C99.724 15.8871 99.639 15.4208 99.4691 15.0817C99.2991 14.7257 99.0696 14.4713 98.7807 14.3187C98.4918 14.1661 98.1604 14.0898 97.7864 14.0898C97.4805 14.0898 97.1746 14.1661 96.8687 14.3187C96.5797 14.4713 96.3418 14.7257 96.1548 15.0817C95.9849 15.4208 95.8999 15.8871 95.8999 16.4806V23.5257C95.8999 23.7122 95.8404 23.8649 95.7214 23.9835C95.6025 24.1022 95.4495 24.1616 95.2625 24.1616H92.3052C92.1183 24.1616 91.9653 24.1022 91.8463 23.9835C91.7274 23.8649 91.6679 23.7122 91.6679 23.5257V16.4806C91.6679 15.8871 91.5744 15.4208 91.3874 15.0817C91.2005 14.7257 90.9625 14.4713 90.6736 14.3187C90.3847 14.1661 90.0617 14.0898 89.7048 14.0898C89.3989 14.0898 89.093 14.1661 88.787 14.3187C88.4981 14.4713 88.2602 14.7257 88.0732 15.0817C87.9032 15.4208 87.8183 15.8787 87.8183 16.4552V23.5257C87.8183 23.7122 87.7503 23.8649 87.6143 23.9835C87.4953 24.1022 87.3424 24.1616 87.1554 24.1616H84.1471ZM110.815 24.4159C109.897 24.4159 109.073 24.2464 108.342 23.9072C107.628 23.5512 107.059 23.0764 106.634 22.483C106.209 21.8895 105.996 21.2197 105.996 20.4737C105.996 19.2698 106.489 18.3203 107.475 17.6251C108.461 16.913 109.77 16.4297 111.401 16.1754L114.588 15.6921V15.3361C114.588 14.7257 114.46 14.2594 114.205 13.9372C113.951 13.6151 113.483 13.454 112.803 13.454C112.327 13.454 111.937 13.5472 111.631 13.7337C111.342 13.9203 111.112 14.1746 110.942 14.4968C110.789 14.7172 110.577 14.8274 110.305 14.8274H107.45C107.263 14.8274 107.118 14.7765 107.016 14.6748C106.914 14.5561 106.872 14.4205 106.889 14.2679C106.889 13.9626 106.999 13.6151 107.22 13.2251C107.458 12.8181 107.815 12.4197 108.291 12.0297C108.767 11.6397 109.379 11.3175 110.126 11.0632C110.874 10.8089 111.775 10.6817 112.829 10.6817C113.934 10.6817 114.877 10.8089 115.659 11.0632C116.44 11.3175 117.069 11.6736 117.545 12.1314C118.038 12.5892 118.403 13.1318 118.641 13.7592C118.879 14.3696 118.998 15.0478 118.998 15.7939V23.5257C118.998 23.7122 118.93 23.8649 118.794 23.9835C118.675 24.1022 118.531 24.1616 118.361 24.1616H115.404C115.217 24.1616 115.064 24.1022 114.945 23.9835C114.826 23.8649 114.766 23.7122 114.766 23.5257V22.6356C114.545 22.9577 114.248 23.2544 113.874 23.5257C113.5 23.797 113.058 24.009 112.548 24.1616C112.055 24.3311 111.478 24.4159 110.815 24.4159ZM112.013 21.5165C112.506 21.5165 112.948 21.4147 113.339 21.2113C113.747 20.9908 114.061 20.6602 114.282 20.2193C114.52 19.7615 114.639 19.1935 114.639 18.5153V18.1592L112.472 18.5407C111.673 18.6764 111.087 18.8883 110.713 19.1766C110.356 19.4479 110.177 19.77 110.177 20.143C110.177 20.4313 110.262 20.6772 110.432 20.8806C110.602 21.0841 110.823 21.2452 111.095 21.3639C111.367 21.4656 111.673 21.5165 112.013 21.5165ZM122.512 24.1616C122.325 24.1616 122.172 24.1022 122.053 23.9835C121.934 23.8649 121.875 23.7122 121.875 23.5257V11.5719C121.875 11.4023 121.934 11.2582 122.053 11.1395C122.172 11.0039 122.325 10.936 122.512 10.936H125.444C125.631 10.936 125.784 11.0039 125.903 11.1395C126.022 11.2582 126.081 11.4023 126.081 11.5719V12.5892C126.54 12.0636 127.084 11.6567 127.713 11.3684C128.359 11.0802 129.081 10.936 129.88 10.936H131.002C131.172 10.936 131.316 10.9954 131.435 11.1141C131.571 11.2328 131.639 11.3854 131.639 11.5719V14.1915C131.639 14.3611 131.571 14.5137 131.435 14.6494C131.316 14.768 131.172 14.8274 131.002 14.8274H128.529C127.832 14.8274 127.288 15.0224 126.897 15.4124C126.523 15.7854 126.336 16.3195 126.336 17.0147V23.5257C126.336 23.7122 126.268 23.8649 126.132 23.9835C126.013 24.1022 125.861 24.1616 125.674 24.1616H122.512ZM134.09 24.1616C133.903 24.1616 133.75 24.1022 133.631 23.9835C133.512 23.8649 133.453 23.7122 133.453 23.5257V6.73946C133.453 6.55295 133.512 6.40034 133.631 6.28165C133.75 6.16296 133.903 6.10362 134.09 6.10362H137.047C137.217 6.10362 137.362 6.16296 137.481 6.28165C137.617 6.40034 137.685 6.55295 137.685 6.73946V15.2598L141.228 11.3684C141.33 11.2497 141.441 11.148 141.56 11.0632C141.679 10.9784 141.849 10.936 142.07 10.936H145.486C145.639 10.936 145.766 10.9954 145.868 11.1141C145.987 11.2158 146.047 11.343 146.047 11.4956C146.047 11.5634 146.03 11.6397 145.996 11.7245C145.962 11.8093 145.911 11.8771 145.843 11.9279L141.254 16.8621L146.48 23.1951C146.616 23.3307 146.684 23.4664 146.684 23.602C146.684 23.7546 146.625 23.8903 146.506 24.009C146.404 24.1107 146.268 24.1616 146.098 24.1616H142.605C142.35 24.1616 142.163 24.1192 142.044 24.0344C141.925 23.9327 141.815 23.8309 141.713 23.7292L137.685 18.8968V23.5257C137.685 23.7122 137.617 23.8649 137.481 23.9835C137.362 24.1022 137.217 24.1616 137.047 24.1616H134.09ZM153.862 24.4159C151.856 24.4159 150.258 23.8733 149.069 22.7882C147.879 21.703 147.259 20.0922 147.208 17.9557C147.208 17.8371 147.208 17.6845 147.208 17.4979C147.208 17.3114 147.208 17.1673 147.208 17.0656C147.259 15.7261 147.556 14.5815 148.1 13.632C148.661 12.6655 149.426 11.9364 150.394 11.4447C151.38 10.936 152.527 10.6817 153.836 10.6817C155.332 10.6817 156.564 10.9784 157.533 11.5719C158.518 12.1653 159.258 12.9707 159.751 13.9881C160.244 15.0054 160.49 16.1669 160.49 17.4725V18.0829C160.49 18.2694 160.422 18.422 160.286 18.5407C160.167 18.6594 160.023 18.7188 159.853 18.7188H151.695C151.695 18.7357 151.695 18.7611 151.695 18.7951C151.695 18.829 151.695 18.8629 151.695 18.8968C151.712 19.3885 151.796 19.8378 151.949 20.2448C152.102 20.6517 152.34 20.9739 152.663 21.2113C152.986 21.4486 153.377 21.5673 153.836 21.5673C154.176 21.5673 154.456 21.5165 154.677 21.4147C154.915 21.296 155.111 21.1689 155.264 21.0332C155.417 20.8806 155.536 20.7535 155.621 20.6517C155.774 20.4822 155.893 20.3804 155.978 20.3465C156.079 20.2956 156.232 20.2702 156.436 20.2702H159.598C159.768 20.2702 159.904 20.3211 160.006 20.4228C160.125 20.5076 160.176 20.6348 160.159 20.8043C160.142 21.0926 159.997 21.4402 159.725 21.8471C159.453 22.254 159.054 22.661 158.527 23.0679C158.017 23.4579 157.371 23.7801 156.589 24.0344C155.808 24.2887 154.898 24.4159 153.862 24.4159ZM151.695 16.2008H156.003V16.1499C156.003 15.6074 155.918 15.1326 155.748 14.7257C155.595 14.3187 155.349 14.005 155.009 13.7846C154.686 13.5642 154.295 13.454 153.836 13.454C153.377 13.454 152.986 13.5642 152.663 13.7846C152.357 14.005 152.119 14.3187 151.949 14.7257C151.779 15.1326 151.695 15.6074 151.695 16.1499V16.2008ZM169.636 24.1616C168.549 24.1616 167.605 23.992 166.807 23.6529C166.025 23.2968 165.421 22.7542 164.996 22.0251C164.572 21.2791 164.359 20.3211 164.359 19.1511V14.2679H162.371C162.184 14.2679 162.022 14.2085 161.886 14.0898C161.767 13.9711 161.708 13.8185 161.708 13.632V11.5719C161.708 11.3854 161.767 11.2328 161.886 11.1141C162.022 10.9954 162.184 10.936 162.371 10.936H164.359V6.73946C164.359 6.55295 164.419 6.40034 164.538 6.28165C164.674 6.16296 164.827 6.10362 164.996 6.10362H167.954C168.141 6.10362 168.294 6.16296 168.413 6.28165C168.532 6.40034 168.591 6.55295 168.591 6.73946V10.936H171.778C171.965 10.936 172.118 10.9954 172.237 11.1141C172.356 11.2328 172.415 11.3854 172.415 11.5719V13.632C172.415 13.8185 172.356 13.9711 172.237 14.0898C172.118 14.2085 171.965 14.2679 171.778 14.2679H168.591V18.7951C168.591 19.3716 168.702 19.8294 168.923 20.1685C169.144 20.5076 169.517 20.6772 170.044 20.6772H172.007C172.194 20.6772 172.347 20.7365 172.466 20.8552C172.585 20.9739 172.645 21.1265 172.645 21.313V23.5257C172.645 23.7122 172.585 23.8649 172.466 23.9835C172.347 24.1022 172.194 24.1616 172.007 24.1616H169.636ZM175.393 24.1616C175.206 24.1616 175.053 24.1022 174.934 23.9835C174.815 23.8649 174.756 23.7122 174.756 23.5257V11.5719C174.756 11.3854 174.815 11.2328 174.934 11.1141C175.053 10.9954 175.206 10.936 175.393 10.936H178.401C178.571 10.936 178.716 10.9954 178.835 11.1141C178.971 11.2328 179.039 11.3854 179.039 11.5719V23.5257C179.039 23.7122 178.971 23.8649 178.835 23.9835C178.716 24.1022 178.571 24.1616 178.401 24.1616H175.393ZM175.367 9.0285C175.181 9.0285 175.028 8.96915 174.909 8.85046C174.79 8.73177 174.73 8.57917 174.73 8.39265V6.12905C174.73 5.94254 174.79 5.78993 174.909 5.67124C175.028 5.5356 175.181 5.46777 175.367 5.46777H178.401C178.588 5.46777 178.741 5.5356 178.86 5.67124C178.996 5.78993 179.064 5.94254 179.064 6.12905V8.39265C179.064 8.57917 178.996 8.73177 178.86 8.85046C178.741 8.96915 178.588 9.0285 178.401 9.0285H175.367ZM183.459 24.1616C183.272 24.1616 183.119 24.1022 183 23.9835C182.881 23.8649 182.822 23.7122 182.822 23.5257V11.5719C182.822 11.3854 182.881 11.2328 183 11.1141C183.119 10.9954 183.272 10.936 183.459 10.936H186.391C186.578 10.936 186.731 10.9954 186.85 11.1141C186.969 11.2328 187.028 11.3854 187.028 11.5719V12.5384C187.47 12.0127 188.048 11.5719 188.762 11.2158C189.476 10.8597 190.317 10.6817 191.286 10.6817C192.272 10.6817 193.139 10.9021 193.886 11.343C194.651 11.7838 195.246 12.4366 195.671 13.3014C196.113 14.1492 196.334 15.1919 196.334 16.4297V23.5257C196.334 23.7122 196.266 23.8649 196.13 23.9835C196.011 24.1022 195.866 24.1616 195.696 24.1616H192.484C192.314 24.1616 192.161 24.1022 192.025 23.9835C191.906 23.8649 191.847 23.7122 191.847 23.5257V16.5823C191.847 15.7854 191.651 15.175 191.26 14.7511C190.887 14.3102 190.326 14.0898 189.578 14.0898C188.881 14.0898 188.32 14.3102 187.895 14.7511C187.487 15.175 187.283 15.7854 187.283 16.5823V23.5257C187.283 23.7122 187.215 23.8649 187.079 23.9835C186.96 24.1022 186.816 24.1616 186.646 24.1616H183.459ZM205.68 29.757C204.371 29.757 203.283 29.5874 202.417 29.2483C201.567 28.9092 200.887 28.5023 200.377 28.0275C199.884 27.5527 199.527 27.078 199.306 26.6032C199.085 26.1454 198.966 25.7809 198.949 25.5096C198.932 25.3231 198.992 25.1704 199.128 25.0518C199.264 24.9331 199.425 24.8737 199.612 24.8737H202.85C203.003 24.8737 203.131 24.9076 203.232 24.9755C203.351 25.0602 203.445 25.1959 203.513 25.3824C203.598 25.5689 203.708 25.7639 203.844 25.9674C203.997 26.1708 204.201 26.3319 204.456 26.4506C204.728 26.5863 205.094 26.6541 205.552 26.6541C206.062 26.6541 206.487 26.5693 206.827 26.3997C207.167 26.2471 207.422 25.9843 207.592 25.6113C207.762 25.2552 207.847 24.772 207.847 24.1616V22.4575C207.456 22.8814 206.955 23.229 206.343 23.5003C205.731 23.7546 204.992 23.8818 204.125 23.8818C203.258 23.8818 202.493 23.7546 201.83 23.5003C201.167 23.246 200.615 22.8645 200.173 22.3558C199.731 21.8471 199.383 21.2282 199.128 20.4991C198.89 19.77 198.746 18.9307 198.695 17.9812C198.678 17.5403 198.678 17.0995 198.695 16.6586C198.746 15.743 198.89 14.9206 199.128 14.1915C199.366 13.4624 199.706 12.8351 200.148 12.3095C200.607 11.7838 201.167 11.3854 201.83 11.1141C202.493 10.8258 203.258 10.6817 204.125 10.6817C205.043 10.6817 205.824 10.8597 206.47 11.2158C207.133 11.5549 207.677 11.9873 208.102 12.5129V11.5719C208.102 11.4023 208.161 11.2582 208.28 11.1395C208.399 11.0039 208.552 10.936 208.739 10.936H211.671C211.858 10.936 212.011 11.0039 212.13 11.1395C212.266 11.2582 212.334 11.4023 212.334 11.5719V23.8055C212.334 25.0942 212.07 26.1793 211.544 27.061C211.017 27.9427 210.26 28.6125 209.275 29.0703C208.289 29.5281 207.091 29.757 205.68 29.757ZM205.501 20.5754C206.045 20.5754 206.487 20.4567 206.827 20.2193C207.167 19.982 207.414 19.6768 207.566 19.3037C207.736 18.9307 207.83 18.5322 207.847 18.1083C207.864 17.9218 207.872 17.659 207.872 17.3199C207.872 16.9808 207.864 16.7264 207.847 16.5569C207.83 16.116 207.736 15.7091 207.566 15.3361C207.414 14.963 207.167 14.6663 206.827 14.4459C206.487 14.2085 206.045 14.0898 205.501 14.0898C204.941 14.0898 204.49 14.2085 204.15 14.4459C203.827 14.6833 203.589 15.0054 203.436 15.4124C203.3 15.8193 203.215 16.2686 203.181 16.7604C203.164 17.1334 203.164 17.5149 203.181 17.9049C203.215 18.3966 203.3 18.8459 203.436 19.2529C203.589 19.6598 203.827 19.982 204.15 20.2193C204.49 20.4567 204.941 20.5754 205.501 20.5754Z" fill="#575AFF"/>
<path d="M84.1471 47.0521C83.9602 47.0521 83.8072 46.9928 83.6882 46.8741C83.5693 46.7554 83.5098 46.6028 83.5098 46.4163V29.63C83.5098 29.4435 83.5693 29.2909 83.6882 29.1722C83.8072 29.0535 83.9602 28.9941 84.1471 28.9941H87.1554C87.3424 28.9941 87.4953 29.0535 87.6143 29.1722C87.7333 29.2909 87.7928 29.4435 87.7928 29.63V46.4163C87.7928 46.6028 87.7333 46.7554 87.6143 46.8741C87.4953 46.9928 87.3424 47.0521 87.1554 47.0521H84.1471ZM96.923 47.3064C94.9175 47.3064 93.3199 46.7639 92.1302 45.6787C90.9404 44.5935 90.3201 42.9827 90.2691 40.8463C90.2691 40.7276 90.2691 40.575 90.2691 40.3885C90.2691 40.2019 90.2691 40.0578 90.2691 39.9561C90.3201 38.6166 90.6175 37.4721 91.1614 36.5225C91.7223 35.5561 92.4871 34.8269 93.4559 34.3352C94.4416 33.8266 95.5889 33.5722 96.8976 33.5722C98.3932 33.5722 99.6254 33.8689 100.594 34.4624C101.58 35.0559 102.319 35.8613 102.812 36.8786C103.305 37.896 103.552 39.0574 103.552 40.363V40.9734C103.552 41.16 103.484 41.3126 103.348 41.4312C103.229 41.5499 103.084 41.6093 102.914 41.6093H94.7561C94.7561 41.6262 94.7561 41.6517 94.7561 41.6856C94.7561 41.7195 94.7561 41.7534 94.7561 41.7873C94.773 42.279 94.858 42.7284 95.011 43.1353C95.164 43.5422 95.4019 43.8644 95.7248 44.1018C96.0478 44.3392 96.4387 44.4579 96.8976 44.4579C97.2375 44.4579 97.5179 44.407 97.7389 44.3053C97.9768 44.1866 98.1723 44.0594 98.3252 43.9238C98.4782 43.7712 98.5972 43.644 98.6821 43.5422C98.8351 43.3727 98.9541 43.271 99.0391 43.237C99.141 43.1862 99.294 43.1607 99.4979 43.1607H102.659C102.829 43.1607 102.965 43.2116 103.067 43.3133C103.186 43.3981 103.237 43.5253 103.22 43.6949C103.203 43.9831 103.059 44.3307 102.787 44.7376C102.515 45.1446 102.115 45.5515 101.588 45.9585C101.079 46.3484 100.433 46.6706 99.6509 46.9249C98.8691 47.1793 97.9598 47.3064 96.923 47.3064ZM94.7561 39.0913H99.0645V39.0405C99.0645 38.4979 98.9796 38.0231 98.8096 37.6162C98.6566 37.2092 98.4102 36.8956 98.0703 36.6751C97.7474 36.4547 97.3565 36.3445 96.8976 36.3445C96.4387 36.3445 96.0478 36.4547 95.7248 36.6751C95.4189 36.8956 95.181 37.2092 95.011 37.6162C94.841 38.0231 94.7561 38.4979 94.7561 39.0405V39.0913ZM109.918 47.3064C109 47.3064 108.176 47.1369 107.445 46.7978C106.731 46.4417 106.162 45.9669 105.737 45.3735C105.312 44.78 105.1 44.1103 105.1 43.3642C105.1 42.1603 105.593 41.2108 106.579 40.5156C107.564 39.8035 108.873 39.3202 110.505 39.0659L113.691 38.5827V38.2266C113.691 37.6162 113.564 37.1499 113.309 36.8277C113.054 36.5056 112.587 36.3445 111.907 36.3445C111.431 36.3445 111.04 36.4378 110.734 36.6243C110.445 36.8108 110.216 37.0651 110.046 37.3873C109.893 37.6077 109.68 37.7179 109.408 37.7179H106.553C106.366 37.7179 106.222 37.6671 106.12 37.5653C106.018 37.4466 105.975 37.311 105.992 37.1584C105.992 36.8532 106.103 36.5056 106.324 36.1156C106.562 35.7087 106.918 35.3102 107.394 34.9202C107.87 34.5302 108.482 34.2081 109.23 33.9537C109.978 33.6994 110.879 33.5722 111.932 33.5722C113.037 33.5722 113.98 33.6994 114.762 33.9537C115.544 34.2081 116.173 34.5641 116.649 35.0219C117.142 35.4797 117.507 36.0223 117.745 36.6497C117.983 37.2601 118.102 37.9383 118.102 38.6844V46.4163C118.102 46.6028 118.034 46.7554 117.898 46.8741C117.779 46.9928 117.634 47.0521 117.464 47.0521H114.507C114.32 47.0521 114.167 46.9928 114.048 46.8741C113.929 46.7554 113.87 46.6028 113.87 46.4163V45.5261C113.649 45.8482 113.351 46.145 112.978 46.4163C112.604 46.6876 112.162 46.8995 111.652 47.0521C111.159 47.2217 110.581 47.3064 109.918 47.3064ZM111.116 44.407C111.609 44.407 112.051 44.3053 112.442 44.1018C112.85 43.8814 113.164 43.5507 113.385 43.1099C113.623 42.6521 113.742 42.084 113.742 41.4058V41.0497L111.575 41.4312C110.777 41.5669 110.19 41.7788 109.816 42.0671C109.459 42.3384 109.281 42.6605 109.281 43.0336C109.281 43.3218 109.366 43.5677 109.536 43.7712C109.706 43.9746 109.927 44.1357 110.199 44.2544C110.471 44.3561 110.777 44.407 111.116 44.407ZM125.925 47.3064C125.109 47.3064 124.37 47.1793 123.707 46.9249C123.061 46.6536 122.5 46.2637 122.025 45.755C121.566 45.2294 121.209 44.602 120.954 43.8729C120.699 43.1268 120.554 42.279 120.52 41.3295C120.503 40.9904 120.495 40.6937 120.495 40.4393C120.495 40.168 120.503 39.8713 120.52 39.5492C120.554 38.6335 120.699 37.8112 120.954 37.0821C121.209 36.353 121.566 35.7256 122.025 35.2C122.483 34.6743 123.044 34.2759 123.707 34.0046C124.37 33.7163 125.109 33.5722 125.925 33.5722C126.775 33.5722 127.506 33.7163 128.118 34.0046C128.729 34.2759 129.248 34.632 129.673 35.0728V29.63C129.673 29.4435 129.732 29.2909 129.851 29.1722C129.97 29.0535 130.123 28.9941 130.31 28.9941H133.42C133.59 28.9941 133.735 29.0535 133.854 29.1722C133.99 29.2909 134.058 29.4435 134.058 29.63V46.4163C134.058 46.6028 133.99 46.7554 133.854 46.8741C133.735 46.9928 133.59 47.0521 133.42 47.0521H130.54C130.353 47.0521 130.2 46.9928 130.081 46.8741C129.962 46.7554 129.902 46.6028 129.902 46.4163V45.6024C129.494 46.0941 128.967 46.501 128.322 46.8232C127.676 47.1454 126.877 47.3064 125.925 47.3064ZM127.302 43.8983C127.88 43.8983 128.33 43.7796 128.653 43.5422C128.993 43.2879 129.239 42.9658 129.392 42.5758C129.562 42.1858 129.656 41.7619 129.673 41.3041C129.69 40.965 129.698 40.6428 129.698 40.3376C129.698 40.0324 129.69 39.7187 129.673 39.3965C129.656 38.9727 129.562 38.5827 129.392 38.2266C129.222 37.8536 128.967 37.5568 128.627 37.3364C128.288 37.099 127.846 36.9803 127.302 36.9803C126.741 36.9803 126.291 37.099 125.951 37.3364C125.628 37.5738 125.398 37.896 125.262 38.3029C125.126 38.7098 125.041 39.1592 125.007 39.6509C124.956 40.1765 124.956 40.7021 125.007 41.2278C125.041 41.7195 125.126 42.1688 125.262 42.5758C125.398 42.9827 125.628 43.3049 125.951 43.5422C126.291 43.7796 126.741 43.8983 127.302 43.8983ZM142.518 47.3064C141.414 47.3064 140.47 47.1878 139.689 46.9504C138.924 46.696 138.295 46.3908 137.802 46.0348C137.326 45.6787 136.969 45.3141 136.731 44.9411C136.493 44.5511 136.366 44.2205 136.349 43.9492C136.332 43.7627 136.391 43.6101 136.527 43.4914C136.663 43.3557 136.808 43.2879 136.961 43.2879H139.867C139.918 43.2879 139.96 43.2964 139.994 43.3133C140.028 43.3303 140.079 43.3642 140.147 43.4151C140.368 43.5338 140.589 43.6864 140.81 43.8729C141.031 44.0424 141.286 44.195 141.575 44.3307C141.864 44.4663 142.212 44.5342 142.62 44.5342C143.096 44.5342 143.496 44.4409 143.819 44.2544C144.141 44.0679 144.303 43.7881 144.303 43.4151C144.303 43.1438 144.226 42.9234 144.073 42.7538C143.921 42.5673 143.606 42.3893 143.13 42.2197C142.671 42.0501 141.974 41.8806 141.04 41.711C140.156 41.5075 139.383 41.2447 138.72 40.9226C138.057 40.5835 137.547 40.1511 137.19 39.6255C136.833 39.0829 136.655 38.4301 136.655 37.6671C136.655 36.9888 136.876 36.336 137.318 35.7087C137.759 35.0813 138.405 34.5726 139.255 34.1826C140.105 33.7757 141.15 33.5722 142.391 33.5722C143.377 33.5722 144.226 33.6909 144.94 33.9283C145.671 34.1487 146.283 34.437 146.776 34.793C147.286 35.1491 147.668 35.5137 147.923 35.8867C148.178 36.2597 148.314 36.5988 148.331 36.904C148.348 37.0736 148.297 37.2262 148.178 37.3618C148.059 37.4805 147.923 37.5399 147.77 37.5399H145.119C145.051 37.5399 144.983 37.5314 144.915 37.5144C144.847 37.4805 144.787 37.4466 144.736 37.4127C144.532 37.311 144.328 37.1753 144.124 37.0058C143.921 36.8362 143.683 36.6836 143.411 36.548C143.139 36.4123 142.799 36.3445 142.391 36.3445C141.932 36.3445 141.575 36.4462 141.32 36.6497C141.065 36.8532 140.938 37.116 140.938 37.4381C140.938 37.6586 141.006 37.862 141.142 38.0486C141.295 38.2351 141.592 38.4046 142.034 38.5572C142.493 38.7098 143.198 38.8794 144.15 39.0659C145.323 39.2524 146.257 39.5576 146.954 39.9815C147.651 40.3885 148.144 40.8717 148.433 41.4312C148.722 41.9738 148.866 42.5503 148.866 43.1607C148.866 43.9746 148.62 44.6952 148.127 45.3226C147.651 45.95 146.937 46.4417 145.986 46.7978C145.034 47.1369 143.878 47.3064 142.518 47.3064Z" fill="#FFBE11"/>
<defs>
<linearGradient id="paint0_linear_2027_303" x1="31.868" y1="8.90137" x2="51.0798" y2="36.5541" gradientUnits="userSpaceOnUse">
<stop offset="0.533154" stop-color="#3A3DBD"/>
<stop offset="0.583154" stop-color="#575AFF"/>
</linearGradient>
<linearGradient id="paint1_linear_2027_303" x1="59.9109" y1="8.90137" x2="78.9703" y2="36.4969" gradientUnits="userSpaceOnUse">
<stop offset="0.533154" stop-color="#AF8D2B"/>
<stop offset="0.583154" stop-color="#FFBE11"/>
</linearGradient>
</defs>
</svg>
