<svg width="71" height="75" viewBox="0 0 71 75" fill="none" xmlns="http://www.w3.org/2000/svg">
<g filter="url(#filter0_d_4102_921)">
<path d="M21.0575 20.6837C20.768 23.7712 20.5649 29.2352 22.388 31.561C22.388 31.561 21.5298 25.5587 29.2231 18.0278C32.3208 14.9962 33.0368 10.8727 31.9552 7.78014C31.3407 6.02819 30.2184 4.58092 29.2434 3.57037C28.6747 2.97623 29.1114 1.99616 29.9391 2.0317C34.9462 2.25514 43.061 3.64654 46.5091 12.2997C48.0223 16.0981 48.1341 20.0235 47.413 24.0149C46.9559 26.5641 45.3309 32.2313 49.038 32.927C51.6837 33.4247 52.9634 31.3223 53.5372 29.809C53.7759 29.1794 54.6036 29.0219 55.0505 29.5247C59.5192 34.6079 59.9001 40.595 58.9759 45.7493C57.1884 55.7126 47.0981 62.9641 37.0739 62.9641C24.5512 62.9641 14.5829 55.7989 11.9981 42.8294C10.9571 37.5938 11.4852 27.2344 19.5595 19.9219C20.1587 19.3735 21.1387 19.861 21.0575 20.6837Z" fill="#FFBE11"/>
</g>
<path d="M41.6504 39.3155C37.0344 33.3741 39.1012 26.5948 40.2336 23.8933C40.386 23.5378 39.9797 23.2026 39.6598 23.421C37.6743 24.7718 33.6067 27.9507 31.7126 32.4245C29.1481 38.4726 29.3309 41.4331 30.8493 45.0487C31.7633 47.2272 30.702 47.6894 30.1688 47.7706C29.6508 47.8519 29.1735 47.5065 28.7926 47.146C27.6972 46.0939 26.9164 44.7575 26.5379 43.2866C26.4567 42.9718 26.0454 42.8854 25.8575 43.1444C24.4356 45.1097 23.6993 48.2632 23.6637 50.4925C23.552 57.3835 29.2446 62.9694 36.1305 62.9694C44.809 62.9694 51.1313 53.3718 46.1446 45.3483C44.6973 43.0124 43.3364 41.4839 41.6504 39.3155Z" fill="white"/>
<defs>
<filter id="filter0_d_4102_921" x="0.201563" y="-8.36924" width="70.5832" height="83.7336" filterUnits="userSpaceOnUse" color-interpolation-filters="sRGB">
<feFlood flood-opacity="0" result="BackgroundImageFix"/>
<feColorMatrix in="SourceAlpha" type="matrix" values="0 0 0 0 0 0 0 0 0 0 0 0 0 0 0 0 0 0 127 0" result="hardAlpha"/>
<feOffset dy="1"/>
<feGaussianBlur stdDeviation="5.7"/>
<feComposite in2="hardAlpha" operator="out"/>
<feColorMatrix type="matrix" values="0 0 0 0 0.595833 0 0 0 0 0.452769 0 0 0 0 0.0719965 0 0 0 0.54 0"/>
<feBlend mode="normal" in2="BackgroundImageFix" result="effect1_dropShadow_4102_921"/>
<feBlend mode="normal" in="SourceGraphic" in2="effect1_dropShadow_4102_921" result="shape"/>
</filter>
</defs>
</svg>
