<svg width="129" height="141" viewBox="0 0 129 141" fill="none" xmlns="http://www.w3.org/2000/svg">
<g clip-path="url(#clip0_370_623)" filter="url(#filter0_d_370_623)">
<g filter="url(#filter1_d_370_623)">
<path d="M50.0575 48.6837C49.768 51.7712 49.5649 57.2352 51.388 59.561C51.388 59.561 50.5298 53.5587 58.2231 46.0278C61.3208 42.9962 62.0368 38.8727 60.9552 35.7801C60.3407 34.0282 59.2184 32.5809 58.2434 31.5704C57.6747 30.9762 58.1114 29.9962 58.9391 30.0317C63.9462 30.2551 72.061 31.6465 75.5091 40.2997C77.0223 44.0981 77.1341 48.0235 76.413 52.0149C75.9559 54.5641 74.3309 60.2313 78.038 60.927C80.6837 61.4247 81.9634 59.3223 82.5372 57.809C82.7759 57.1794 83.6036 57.0219 84.0505 57.5247C88.5192 62.6079 88.9001 68.595 87.9759 73.7493C86.1884 83.7126 76.0981 90.9641 66.0739 90.9641C53.5512 90.9641 43.5829 83.7989 40.9981 70.8294C39.9571 65.5938 40.4852 55.2344 48.5595 47.9219C49.1587 47.3735 50.1387 47.861 50.0575 48.6837Z" fill="#FFBE11"/>
</g>
<path d="M70.6504 67.3155C66.0344 61.3741 68.1012 54.5948 69.2336 51.8933C69.386 51.5378 68.9797 51.2026 68.6598 51.421C66.6743 52.7718 62.6067 55.9507 60.7126 60.4245C58.1481 66.4726 58.3309 69.4331 59.8493 73.0487C60.7633 75.2272 59.702 75.6894 59.1688 75.7706C58.6508 75.8519 58.1735 75.5065 57.7926 75.146C56.6972 74.0939 55.9164 72.7575 55.5379 71.2866C55.4567 70.9718 55.0454 70.8854 54.8575 71.1444C53.4356 73.1097 52.6993 76.2632 52.6637 78.4925C52.552 85.3835 58.2446 90.9694 65.1305 90.9694C73.809 90.9694 80.1313 81.3718 75.1446 73.3483C73.6973 71.0124 72.3364 69.4839 70.6504 67.3155Z" fill="white"/>
</g>
<defs>
<filter id="filter0_d_370_623" x="-20" y="-2" width="165" height="155" filterUnits="userSpaceOnUse" color-interpolation-filters="sRGB">
<feFlood flood-opacity="0" result="BackgroundImageFix"/>
<feColorMatrix in="SourceAlpha" type="matrix" values="0 0 0 0 0 0 0 0 0 0 0 0 0 0 0 0 0 0 127 0" result="hardAlpha"/>
<feMorphology radius="10" operator="dilate" in="SourceAlpha" result="effect1_dropShadow_370_623"/>
<feOffset dy="10"/>
<feGaussianBlur stdDeviation="15"/>
<feComposite in2="hardAlpha" operator="out"/>
<feColorMatrix type="matrix" values="0 0 0 0 0 0 0 0 0 0 0 0 0 0 0 0 0 0 0.13 0"/>
<feBlend mode="normal" in2="BackgroundImageFix" result="effect1_dropShadow_370_623"/>
<feBlend mode="normal" in="SourceGraphic" in2="effect1_dropShadow_370_623" result="shape"/>
</filter>
<filter id="filter1_d_370_623" x="29.2016" y="19.6308" width="70.5832" height="83.7336" filterUnits="userSpaceOnUse" color-interpolation-filters="sRGB">
<feFlood flood-opacity="0" result="BackgroundImageFix"/>
<feColorMatrix in="SourceAlpha" type="matrix" values="0 0 0 0 0 0 0 0 0 0 0 0 0 0 0 0 0 0 127 0" result="hardAlpha"/>
<feOffset dy="1"/>
<feGaussianBlur stdDeviation="5.7"/>
<feComposite in2="hardAlpha" operator="out"/>
<feColorMatrix type="matrix" values="0 0 0 0 0.595833 0 0 0 0 0.452769 0 0 0 0 0.0719965 0 0 0 0.54 0"/>
<feBlend mode="normal" in2="BackgroundImageFix" result="effect1_dropShadow_370_623"/>
<feBlend mode="normal" in="SourceGraphic" in2="effect1_dropShadow_370_623" result="shape"/>
</filter>
<clipPath id="clip0_370_623">
<rect width="85" height="75" fill="white" transform="translate(20 28)"/>
</clipPath>
</defs>
</svg>
