<svg width="592" height="431" viewBox="0 0 592 431" fill="none" xmlns="http://www.w3.org/2000/svg">
<path d="M510.967 422.113C519.44 423.847 527.478 418.428 529.216 409.974L591.566 110.622C592.652 105.203 589.828 99.7841 585.049 98.9171L88.4206 0.506056C83.6411 -0.577765 78.8616 3.10723 77.7754 8.7431L15.4253 307.878C13.6873 316.332 19.1185 324.569 27.5912 326.303L510.967 422.113Z" fill="#FFBE11"/>
<path d="M464.041 388.298L452.744 370.956L470.124 359.468L472.514 363.153L458.827 372.257L467.734 385.913L464.041 388.298Z" fill="#1D1D1B"/>
<path d="M492.501 394.15L490.111 390.465L503.798 381.578L494.674 367.705L498.367 365.321L509.881 382.662L492.501 394.15Z" fill="#1D1D1B"/>
<path d="M528.029 104.03L525.414 116.551L529.668 117.435L532.283 104.915L528.029 104.03Z" fill="#1D1D1B"/>
<path d="M523.119 107.214L522.234 111.459L534.784 114.061L535.668 109.816L523.119 107.214Z" fill="#1D1D1B"/>
<path d="M548.334 107.804L547.248 112.79L552.245 113.874L553.331 108.888L548.334 107.804Z" fill="#1D1D1B"/>
<path d="M546.596 116.041L545.51 121.027L550.506 122.111L551.593 117.125L546.596 116.041Z" fill="#1D1D1B"/>
<path d="M556.59 109.539L555.504 114.524L560.501 115.608L561.587 110.622L556.59 109.539Z" fill="#1D1D1B"/>
<path d="M554.852 117.776L553.766 122.761L558.762 123.845L559.849 118.859L554.852 117.776Z" fill="#1D1D1B"/>
<path d="M500.322 272.329H349.117V276.664H500.322V272.329Z" fill="#080717"/>
<path d="M526.174 287.069H349.117V291.404H526.174V287.069Z" fill="#080717"/>
<path d="M450.137 301.809H349.117V306.144H450.137V301.809Z" fill="#080717"/>
<path d="M460.348 210.334H349.117V223.34H460.348V210.334Z" fill="#080717"/>
<path d="M503.363 234.395H349.117V247.401H503.363V234.395Z" fill="#080717"/>
<path d="M174.45 183.889C178.143 190.175 163.588 205.565 142.08 218.354C120.573 231.143 99.934 236.346 96.2408 230.06C92.5476 223.773 107.103 208.383 128.611 195.594C150.118 182.805 170.757 177.603 174.45 183.889Z" fill="black"/>
<path d="M212.034 133.383C211.599 133.383 211.165 133.383 210.73 133.383L177.057 132.732C176.84 132.732 176.622 132.516 176.405 132.299C176.188 132.082 176.188 131.865 176.405 131.432L189.44 97.8332C189.657 97.6165 189.874 97.3997 190.092 97.3997L210.296 95.4488C224.2 94.1482 236.366 86.5615 243.969 74.8562L257.873 52.963C256.135 49.0612 255.049 44.726 255.266 40.3907L255.701 26.9513C255.701 25.8675 256.352 24.7836 257.439 24.3501C258.525 23.9166 259.828 24.1334 260.697 24.7836L260.914 25.0004C263.521 27.168 265.042 30.2028 265.477 33.671L265.259 40.6074C265.259 40.8242 265.259 40.8242 265.477 40.8242H265.694L266.346 39.9571L267.432 36.0554L271.342 17.8472C271.56 16.5466 272.429 15.246 273.732 14.5957C275.036 13.9454 276.339 13.7287 277.86 14.1622C280.25 14.8125 281.553 17.1969 281.336 19.5813L280.901 24.7836L282.422 19.7981C282.857 18.4975 283.943 17.4137 285.029 16.7634C286.332 16.1131 287.853 16.1131 289.157 16.7634C291.329 17.6304 292.633 20.0148 292.198 22.3992L291.329 26.9513L291.981 25.4339C292.633 24.1334 293.719 23.2663 295.24 22.8328C296.543 22.3992 298.064 22.616 299.367 23.4831C301.323 24.7836 302.192 27.3848 301.323 29.5525L300.454 31.5033C301.323 30.853 302.192 30.6363 303.278 30.4195C304.581 30.4195 306.102 30.853 307.188 31.9369C308.926 33.671 309.143 36.2722 307.84 38.223L291.546 64.885L281.553 88.2956C268.953 115.608 242.231 133.383 212.034 133.383ZM178.578 130.998L210.948 131.432C240.71 131.865 267.649 114.524 279.381 87.2118L289.374 64.018V63.8012L305.668 36.9224C306.536 35.6219 306.319 33.8877 305.233 32.5872C304.581 31.9369 303.712 31.5033 302.626 31.5033C301.757 31.5033 300.888 31.9369 300.236 32.8039L297.847 35.6219C297.629 35.8386 297.195 36.0554 296.76 35.8386C296.326 35.6219 296.326 35.1883 296.326 34.7548L298.933 28.2519C299.585 26.7345 298.933 25.0004 297.629 24.1334C296.76 23.6998 295.891 23.4831 295.022 23.6998C294.153 23.9166 293.284 24.5669 292.85 25.4339L289.374 32.1536C289.157 32.5872 288.722 32.5872 288.288 32.5872C287.853 32.3704 287.636 31.9369 287.853 31.7201L290.026 21.3154C290.243 19.7981 289.591 18.064 288.07 17.6304C287.201 17.1969 286.115 17.1969 285.246 17.6304C284.377 18.064 283.725 18.7142 283.508 19.5813L279.598 32.1536C279.381 32.5872 279.163 32.8039 278.729 32.8039C278.294 32.8039 278.077 32.3704 278.077 31.9369L279.381 18.7142C279.598 17.1969 278.512 15.6795 276.991 15.246C276.122 15.0293 275.036 15.0293 274.384 15.4628C273.515 15.8963 273.08 16.7634 272.863 17.6304L268.953 36.0554L267.866 40.1739V40.3907L266.997 41.6913C266.997 41.908 266.78 41.908 266.563 42.1248C265.911 42.3416 265.042 42.3416 264.608 41.908C263.956 41.4745 263.739 40.8242 263.739 40.1739L263.956 33.4542C263.521 30.6363 262.218 28.0351 260.045 26.0842L259.828 25.8675C259.394 25.4339 258.959 25.4339 258.308 25.6507C257.873 25.8675 257.439 26.301 257.439 26.9513L257.004 40.3907C256.787 44.5092 257.873 48.8445 259.611 52.7462C259.828 52.963 259.828 53.3965 259.611 53.6133L245.49 75.5065C237.669 87.6453 225.069 95.4488 210.73 96.9662L190.961 98.917L178.578 130.998Z" fill="black"/>
<path d="M33.0216 285.118C31.0664 285.118 29.1111 284.034 28.4594 282.083L27.5904 280.132C27.3731 281.216 26.9387 282.083 26.2869 282.733C25.4179 283.817 23.8972 284.467 22.5937 284.467C20.204 284.467 18.0315 282.733 17.597 280.566L10.4278 246.967L3.25866 223.34C-5.6485 194.293 3.9104 163.079 27.5904 143.787L53.6601 122.544C53.8774 122.328 54.0946 122.328 54.5291 122.328C54.7464 122.328 54.9636 122.544 55.1809 122.761L67.1295 156.793C67.1295 157.01 67.1295 157.443 66.9122 157.66L52.7911 172.183C43.015 182.155 38.4528 195.811 40.408 209.684L44.1012 235.479C47.3599 236.996 50.4014 238.947 52.7911 241.548L62.1328 251.086C63.0018 251.953 63.219 253.253 62.7845 254.337C62.35 255.421 61.2638 256.288 60.1776 256.288H59.9603C56.4843 256.505 53.2256 255.638 50.6187 253.47L45.622 249.135L45.8392 251.086L47.3599 253.47L57.7878 269.077C58.6568 270.161 58.8741 271.678 58.4396 273.196C58.0051 274.496 57.1361 275.797 56.0498 276.447C53.8774 277.531 51.2704 277.097 49.7497 275.146L46.2737 271.028L48.6634 275.58C49.3152 276.881 49.5324 278.398 48.8807 279.699C48.4462 280.999 47.3599 282.083 46.0565 282.733C43.884 283.6 41.277 282.95 39.9735 280.999L37.3665 277.097L37.801 278.615C38.2355 279.915 38.0183 281.433 37.3665 282.733C36.7148 284.034 35.4113 284.901 34.1078 285.118C33.6733 285.118 33.4561 285.118 33.0216 285.118ZM26.2869 274.496C26.7214 274.496 26.9387 274.713 27.1559 274.93L29.9801 281.216C30.6319 282.733 32.1526 283.384 33.8906 283.167C34.7596 282.95 35.6286 282.3 36.0631 281.649C36.4976 280.782 36.7148 279.915 36.2803 279.048L33.8906 271.895C33.6733 271.461 33.8906 271.028 34.3251 270.811C34.7596 270.594 35.1941 270.811 35.4113 271.028L41.277 279.699C42.146 280.999 43.884 281.433 45.4047 280.999C46.2737 280.566 46.9254 279.915 47.3599 279.048C47.7944 278.181 47.5772 277.097 47.1427 276.23L41.0598 264.525C40.8425 264.092 41.0598 263.658 41.277 263.441C41.7115 263.224 42.146 263.224 42.3632 263.658L50.8359 273.846C51.9221 275.146 53.6601 275.363 54.9636 274.713C55.8326 274.279 56.4843 273.412 56.7016 272.545C56.9188 271.678 56.7016 270.594 56.2671 269.944L45.8392 254.337L44.3185 251.736V251.519L43.884 248.268C43.884 247.834 44.1012 247.617 44.3185 247.401C45.1875 246.967 46.0564 247.184 46.7082 247.834L51.4876 252.82C53.6601 254.554 56.7016 255.421 59.5258 255.204H59.7431C60.1776 255.204 60.612 254.771 60.8293 254.337C61.0465 253.904 60.8293 253.253 60.612 252.82L51.2704 243.282C48.8807 240.681 45.8392 238.73 42.5805 237.429C42.3632 237.213 42.146 236.996 42.146 236.779L38.4528 210.117C36.4976 195.811 41.0598 181.721 51.2704 171.316L65.1742 157.227L53.8774 124.712L28.6766 145.088C5.43113 163.946 -3.69327 194.51 4.77939 222.906L11.9486 246.534L19.1177 280.132C19.5522 281.649 20.8557 282.733 22.3765 282.733C23.2454 282.733 24.1144 282.3 24.7662 281.649C25.4179 280.999 25.6352 279.915 25.6352 279.048L25.2007 275.363C25.4179 275.146 25.8524 274.713 26.2869 274.496Z" fill="black"/>
<path d="M80.8163 416.694C80.599 416.694 80.599 416.694 80.3818 416.694C80.1645 416.477 79.9473 416.26 79.9473 415.827L86.682 365.971C86.682 365.754 86.8992 365.537 87.1164 365.321L105.582 354.916C105.8 354.916 106.017 354.699 106.234 354.916C106.451 354.916 106.669 355.133 106.669 355.349L120.138 380.277C120.355 380.711 120.355 380.928 119.921 381.361L101.672 398.919L81.2508 416.694C81.2508 416.694 81.0335 416.694 80.8163 416.694ZM88.4199 366.621L81.9025 413.876L100.586 397.618L118.4 380.494L105.8 356.867L88.4199 366.621Z" fill="black"/>
<path d="M156.853 248.701C139.691 248.701 123.18 241.115 112.1 227.242L103.627 216.837C103.41 216.62 103.41 216.403 103.41 216.187C103.41 215.97 103.627 215.753 103.845 215.536L158.591 177.603C161.198 176.302 219.42 150.073 222.027 148.99C309.578 116.475 401.257 110.839 486.852 132.516L506.405 137.501C506.839 137.501 507.056 137.935 507.056 138.368L501.842 173.484C501.842 173.918 501.408 174.134 500.973 174.134L436.234 173.918C435.799 173.918 435.147 173.918 434.713 173.918C363.021 173.918 291.112 190.392 226.59 221.389L177.709 244.799C170.974 247.401 163.805 248.701 156.853 248.701ZM105.583 216.403L113.404 226.158C128.611 245.233 154.246 251.953 177.057 243.282L225.503 219.872C290.243 188.658 362.587 172.183 434.496 172.183C435.147 172.183 435.582 172.183 436.234 172.183L500.322 172.4L505.318 138.802L486.635 134.033C401.257 112.357 310.013 117.992 222.896 150.507C220.289 151.591 160.329 178.686 159.677 178.903L105.583 216.403Z" fill="black"/>
<path d="M113.404 106.07C113.187 106.07 112.969 106.07 112.969 105.853C112.752 105.637 112.535 105.42 112.752 105.203L117.966 64.2347C117.966 63.8012 118.401 63.3677 118.835 63.5845L145.774 65.9689C146.208 65.9689 146.643 66.4024 146.643 66.8359L144.253 95.8823C144.253 96.3159 144.036 96.5326 143.601 96.5326L113.621 106.07H113.404ZM119.27 65.1018L114.49 103.903L142.298 94.7985L144.688 67.2694L119.27 65.1018Z" fill="black"/>
<path d="M131.436 28.9022C131.436 28.9022 143.819 40.3907 147.077 39.3069C150.553 38.223 159.026 33.671 157.288 27.3848C155.55 21.0987 153.378 23.0495 150.553 23.6998C147.729 24.1334 147.295 17.4137 145.339 17.4137C143.601 17.4137 141.646 18.4975 138.17 21.3154C135.129 23.6998 131.436 28.9022 131.436 28.9022Z" fill="black"/>
<path d="M124.483 76.1568H124.266C117.748 73.5556 112.534 68.5701 109.493 62.2839C103.193 48.6277 108.624 33.0207 121.659 26.5178C129.48 22.616 136.866 22.1825 143.601 25.2172C150.987 28.4687 155.549 35.1884 156.418 38.0063C156.636 38.8733 156.853 39.9572 157.287 40.8242C157.939 42.1248 158.374 43.6422 158.808 45.3763C160.112 48.6277 161.415 50.3619 162.936 51.0121C165.108 51.8792 164.891 57.0816 163.588 61.4168C162.501 65.3186 157.722 77.8909 143.818 75.7233C143.384 75.7233 142.949 75.2898 143.166 74.8562C143.166 74.4227 143.601 74.2059 144.035 74.2059C154.68 75.94 159.243 68.1365 161.198 63.5845C163.37 58.1654 162.936 53.1798 162.284 52.7463C160.112 51.8792 158.591 49.9283 157.287 46.0266C156.853 44.5092 156.418 42.9919 155.767 41.6913C155.549 40.6075 155.115 39.7404 154.898 38.8734C154.246 36.9225 150.335 30.2028 142.949 26.9513C136.649 24.1334 129.697 24.5669 122.311 28.2519C109.927 34.3213 104.931 49.0613 110.796 61.6336C113.621 67.703 118.617 72.2551 124.7 74.6395C125.135 74.8562 125.352 75.2898 125.135 75.7233C125.135 75.94 124.917 76.1568 124.483 76.1568Z" fill="black"/>
<path d="M117.748 22.616C126.221 18.7143 135.78 19.5813 143.383 24.1334C140.994 24.5669 138.387 25.2172 135.997 26.5178C119.921 34.1045 113.62 54.9139 122.093 72.9053C122.528 73.9892 123.179 74.8562 123.614 75.7233C115.576 73.7724 108.407 68.1365 104.713 59.8995C98.1959 45.8098 104.062 29.119 117.748 22.616Z" fill="black"/>
<path d="M113.186 39.0901L115.141 69.6539L117.096 76.8071L124.917 76.5903C127.524 76.5903 129.696 74.8562 130.348 72.255L134.041 59.4659C133.824 59.4659 133.824 59.6827 133.607 59.6827C130.565 61.2001 126.872 59.8995 125.569 56.8648C124.048 53.8301 125.351 50.1451 128.393 48.8445C131.434 47.3271 135.128 48.6277 136.431 51.6624C137.3 51.4457 139.255 50.5786 138.604 49.0613C137.952 47.1104 138.821 41.908 138.169 38.0063C137.517 34.1045 132.521 34.3213 135.997 32.5872C142.514 29.3357 145.121 22.1825 145.121 22.1825C130.348 17.4137 113.186 39.0901 113.186 39.0901Z" fill="black"/>
<path d="M145.555 74.4227L144.686 83.7435C140.776 81.7927 137.517 78.5412 135.562 74.4227C134.693 72.6886 134.258 70.9545 134.041 69.2203C137.3 72.0383 141.427 73.9892 145.555 74.4227Z" fill="black"/>
<path d="M136.648 90.68L115.358 86.995L105.582 105.42C116.879 111.706 130.348 113.874 143.818 110.839C149.249 109.539 154.463 107.371 159.025 104.77C153.811 97.3997 145.773 92.1974 136.648 90.68Z" fill="black"/>
<path d="M116.661 406.072C116.444 405.855 116.444 406.072 116.661 406.072C116.227 406.072 116.009 405.855 116.009 405.639L92.7638 358.601C92.5466 358.167 92.7638 357.734 92.9811 357.517L211.816 278.181L165.759 263.658C140.124 255.638 118.182 238.947 103.626 216.62C103.409 216.403 103.409 216.187 103.626 215.97C103.626 215.753 103.843 215.536 104.061 215.536L178.359 189.525C178.577 189.525 178.794 189.525 179.011 189.525L259.827 231.36C273.731 238.513 282.421 252.169 283.507 267.56C284.594 282.95 277.207 297.473 264.39 306.361L117.096 406.072C116.878 405.855 116.661 406.072 116.661 406.072ZM94.5018 358.384L117.096 403.905L263.738 304.843C276.121 296.389 283.073 282.516 282.204 267.56C281.335 252.603 272.862 239.597 259.61 232.661L179.011 191.042L105.581 216.62C119.92 238.08 141.427 254.12 165.976 261.924L213.771 277.097C213.988 277.097 214.205 277.531 214.423 277.748C214.423 277.964 214.423 278.398 213.988 278.615L94.5018 358.384Z" fill="black"/>
<path d="M520.309 174.351L519.223 114.091C519.223 111.489 516.833 109.322 514.009 109.539L512.922 109.755C508.143 110.406 504.233 113.224 502.277 117.559L493.805 134.683C493.805 134.683 495.108 138.368 501.843 139.235L504.233 138.151L500.974 173.701L520.309 174.351Z" fill="#373AE5"/>
<path d="M70.8223 363.37L71.2568 426.448C71.2568 429.266 73.8637 431.434 76.688 431L77.7742 430.783C82.7709 430.133 86.8986 427.098 89.0711 422.546L101.237 398.269L99.9335 398.052C96.4575 397.835 92.9815 398.269 89.7228 399.786L87.1158 400.87L91.0263 363.586L70.8223 363.37Z" fill="#373AE5"/>
<path d="M177.491 245.016C177.273 245.016 176.839 244.799 176.839 244.583C176.622 244.149 176.839 243.716 177.273 243.499L225.72 220.088C290.46 188.874 362.803 172.4 434.712 172.4C435.364 172.4 435.798 172.4 436.45 172.4L470.992 172.617C472.296 159.611 474.468 145.955 477.075 132.082C475.555 131.649 474.034 131.432 472.513 130.998C373.014 109.105 268.083 123.845 176.622 172.183L169.67 175.868L106.016 216.62L113.837 226.375C114.054 226.808 114.054 227.242 113.62 227.458C113.185 227.675 112.751 227.675 112.534 227.242L104.061 216.837C103.844 216.62 103.844 216.403 103.844 216.187C103.844 215.97 104.061 215.753 104.278 215.536L168.801 174.351L175.753 170.666C267.649 122.111 373.014 107.371 472.948 129.264C474.686 129.698 476.641 130.131 478.379 130.565C478.813 130.565 479.031 130.998 479.031 131.649C476.206 146.172 474.034 160.261 472.73 173.701C472.73 174.134 472.296 174.351 471.861 174.351L436.667 174.134C436.233 174.134 435.581 174.134 435.147 174.134C363.455 174.134 291.546 190.608 227.023 221.606L177.708 244.799L177.491 245.016Z" fill="black"/>
<path d="M157.071 248.701C154.898 248.701 152.726 248.485 150.553 248.268C150.119 248.268 149.684 247.834 149.902 247.401C149.902 246.967 150.336 246.534 150.771 246.75C159.678 247.834 168.802 246.534 177.275 243.282L225.721 219.872C227.459 219.005 229.197 218.138 231.152 217.27C231.587 217.054 232.021 217.27 232.238 217.704C232.456 218.138 232.238 218.571 231.804 218.788C230.066 219.655 228.328 220.522 226.373 221.389L177.709 244.8C171.192 247.401 164.023 248.701 157.071 248.701Z" fill="black"/>
<path d="M95.8065 228.976L94.2858 226.375C82.3372 205.999 77.5577 182.371 81.0337 158.961L56.7019 181.721L29.9805 137.718L81.2509 91.3303L110.797 90.4633L111.231 80.9257L117.749 81.3592C126.438 82.0095 135.128 83.7436 143.384 86.3448L145.773 87.2118L205.951 91.9806L204.865 139.452L172.712 138.585L168.15 175.652L95.8065 228.976Z" fill="#373AE5"/>
<path d="M81.0329 159.828C80.5984 159.828 80.1639 159.394 80.1639 158.961C78.2087 138.368 86.2469 108.455 86.2469 108.238C86.4641 107.804 86.8986 107.588 87.3331 107.588C87.7676 107.804 87.9849 108.238 87.9849 108.671C87.9849 108.888 79.9467 138.368 81.9019 158.961C81.9019 159.394 81.4674 159.828 81.0329 159.828Z" fill="black"/>
<path d="M142.948 146.605C142.731 146.605 142.297 146.389 142.079 146.172C141.862 145.738 142.079 145.305 142.514 145.088C143.166 144.654 160.98 137.068 172.494 137.935C172.929 137.935 173.363 138.368 173.363 138.802C173.363 139.235 172.929 139.669 172.494 139.669C161.414 138.585 143.383 146.388 143.166 146.605H142.948Z" fill="black"/>
<path d="M291.33 44.0757C291.112 44.0757 290.895 44.0757 290.895 43.8589C290.461 43.6421 290.461 42.9919 290.678 42.7751L296.761 34.9716C296.978 34.538 297.63 34.538 297.847 34.7548C298.282 34.9716 298.282 35.6219 298.064 35.8386L291.981 43.6422C291.764 43.8589 291.547 44.0757 291.33 44.0757Z" fill="#23285C"/>
<path d="M284.812 40.1739C284.594 40.1739 284.594 40.1739 284.377 40.1739C283.943 39.9571 283.725 39.5236 283.943 39.0901L288.07 31.7201C288.288 31.2866 288.722 31.0698 289.157 31.2866C289.591 31.5033 289.808 31.9369 289.591 32.3704L285.463 39.7404C285.463 40.1739 285.029 40.1739 284.812 40.1739Z" fill="#23285C"/>
<path d="M277.859 37.356C277.207 37.1392 276.99 36.7057 276.99 36.2722L277.859 31.9369C277.859 31.5034 278.294 31.2866 278.945 31.2866C279.38 31.2866 279.597 31.7201 279.597 32.3704L278.728 36.7057C278.728 36.9225 278.294 37.356 277.859 37.356Z" fill="#23285C"/>
<path d="M26.2876 276.23C25.8531 276.23 25.6359 276.014 25.4186 275.58L21.9426 264.742C21.7254 264.308 21.9426 263.875 22.3771 263.658C22.8116 263.441 23.2461 263.658 23.4634 264.092L26.9393 274.93C27.1566 275.363 26.9393 275.797 26.5048 276.014C26.5048 276.23 26.5049 276.23 26.2876 276.23Z" fill="#23285C"/>
<path d="M34.7586 272.545C34.5414 272.545 34.1069 272.329 33.8896 272.112L29.3274 261.49C29.1102 261.057 29.3274 260.623 29.7619 260.407C30.1964 260.19 30.6309 260.407 30.8481 260.84L35.4103 271.462C35.6276 271.895 35.4104 272.329 34.9759 272.545H34.7586Z" fill="#23285C"/>
<path d="M41.7112 265.392C41.494 265.392 41.0595 265.175 41.0595 264.959L36.9318 257.805C36.7145 257.372 36.9318 256.938 37.149 256.722C37.5835 256.505 38.018 256.722 38.2353 256.938L42.363 264.092C42.5802 264.525 42.363 264.959 42.1457 265.175C41.9285 265.175 41.9285 265.392 41.7112 265.392Z" fill="#23285C"/>
<path d="M500.81 45.5387C501.29 52.3668 495.907 58.2975 489.065 58.7843C482.223 59.271 476.287 53.9049 475.807 47.0768C475.327 40.2487 480.71 34.3181 487.552 33.8313C494.66 33.4976 500.54 38.6544 500.81 45.5387Z" fill="white"/>
<path d="M537.607 45.5387C538.087 52.3668 532.704 58.2975 525.862 58.7843C519.02 59.271 513.084 53.9049 512.604 47.0768C512.124 40.2487 517.507 34.3181 524.349 33.8313C531.191 33.3445 537.127 38.7106 537.607 45.5387Z" fill="white"/>
<path d="M574.138 45.5387C574.618 52.3668 569.235 58.2975 562.393 58.7843C555.552 59.271 549.615 53.9049 549.135 47.0768C548.655 40.2487 554.038 34.3181 560.88 33.8313C567.988 33.4976 573.868 38.6544 574.138 45.5387Z" fill="white"/>
</svg>
