<svg width="74" height="73" viewBox="0 0 74 73" fill="none" xmlns="http://www.w3.org/2000/svg">
<path d="M36.7737 72.3715H37.0623C51.4342 72.3715 59.7762 70.9246 65.6854 65.1878C71.7104 59.1025 73.1017 50.704 73.1017 36.3882V35.9833C73.1017 21.6718 71.7104 13.3296 65.6854 7.18374C59.7806 1.44709 51.3782 0 37.0666 0H36.778C22.4062 0 14.0596 1.44709 8.1507 7.18374C2.12547 13.2693 0.734375 21.6718 0.734375 35.9833V36.3882C0.734375 50.6997 2.12547 59.0421 8.1507 65.1878C14.0037 70.9246 22.4062 72.3715 36.7737 72.3715Z" fill="#363637"/>
<path d="M14.4348 33.8626C14.4348 33.8626 34.7891 25.2295 41.8483 22.1895C44.5544 20.9737 53.7315 17.0825 53.7315 17.0825C53.7315 17.0825 57.9671 15.3803 57.6141 19.5144C57.4963 21.2168 56.5552 27.1749 55.614 33.6195C54.202 42.7391 52.6725 52.7098 52.6725 52.7098C52.6725 52.7098 52.4372 55.5066 50.4371 55.9929C48.437 56.4793 45.1426 54.2907 44.5544 53.8042C44.0837 53.4395 35.7303 47.9676 32.6713 45.2925C31.8477 44.563 30.9065 43.104 32.7888 41.4016C37.0245 37.3889 42.0836 32.4036 45.1426 29.2421C46.5545 27.7829 47.9663 24.3783 42.0836 28.5124C33.7302 34.4706 25.4943 40.064 25.4943 40.064C25.4943 40.064 23.6118 41.2799 20.0822 40.1855C16.5525 39.0913 12.4345 37.6321 12.4345 37.6321C12.4345 37.6321 9.61099 35.8082 14.4348 33.8626Z" fill="white"/>
</svg>
