<svg width="73" height="73" viewBox="0 0 73 73" fill="none" xmlns="http://www.w3.org/2000/svg">
<path d="M36.0393 72.3715H36.3279C50.6998 72.3715 59.0419 70.9246 64.951 65.1878C70.976 59.1025 72.3673 50.704 72.3673 36.3882V35.9833C72.3673 21.6718 70.976 13.3296 64.951 7.18374C59.0462 1.44709 50.6438 0 36.3322 0H36.0436C21.6718 0 13.3252 1.44709 7.41632 7.18374C1.3911 13.2693 0 21.6718 0 35.9833V36.3882C0 50.6997 1.3911 59.0421 7.41632 65.1878C13.2693 70.9246 21.6718 72.3715 36.0393 72.3715Z" fill="#363637"/>
<path fill-rule="evenodd" clip-rule="evenodd" d="M60.7499 23.7389C61.1047 22.5958 60.7499 21.7559 59.0612 21.7559H53.4772C52.0574 21.7559 51.4028 22.4815 51.0478 23.2816C51.0478 23.2816 48.2081 29.9688 44.1853 34.3125C42.8839 35.5699 42.2922 35.97 41.5823 35.97C41.2274 35.97 40.7136 35.5699 40.7136 34.4269V23.739C40.7136 22.3672 40.3015 21.7559 39.1182 21.7559H30.3433C29.456 21.7559 28.9224 22.3925 28.9224 22.9959C28.9224 24.2963 30.9337 24.5962 31.141 28.2542V36.1987C31.141 37.9405 30.8154 38.2563 30.1055 38.2563C28.2125 38.2563 23.6077 31.5393 20.8767 23.8532C20.3414 22.3593 19.8046 21.7559 18.3775 21.7559H12.7935C11.198 21.7559 10.8789 22.4815 10.8789 23.2816C10.8789 24.7105 12.772 31.7978 19.6936 41.1712C24.3079 47.5724 30.8092 51.0424 36.7251 51.0424C40.2746 51.0424 40.7137 50.2717 40.7137 48.9442V44.1061C40.7137 42.5647 41.0499 42.2571 42.1739 42.2571C43.0021 42.2571 44.422 42.6572 47.7349 45.7435C51.521 49.4014 52.1452 51.0424 54.2749 51.0424H59.8589C61.4544 51.0424 62.2521 50.2717 61.7919 48.7508C61.2883 47.2349 59.4806 45.0356 57.082 42.4285C55.7805 40.9425 53.8283 39.3423 53.2366 38.5419C52.4084 37.5133 52.6451 37.0559 53.2366 36.1415C53.2366 36.1415 60.04 26.8824 60.7499 23.7389Z" fill="white"/>
</svg>
