<svg width="73" height="73" viewBox="0 0 73 73" fill="none" xmlns="http://www.w3.org/2000/svg">
<path d="M36.4065 72.3715H36.6951C51.067 72.3715 59.4091 70.9246 65.3182 65.1878C71.3432 59.1025 72.7345 50.704 72.7345 36.3882V35.9833C72.7345 21.6718 71.3432 13.3296 65.3182 7.18374C59.4134 1.44709 51.011 0 36.6994 0H36.4108C22.039 0 13.6924 1.44709 7.78351 7.18374C1.75829 13.2693 0.367188 21.6718 0.367188 35.9833V36.3882C0.367188 50.6997 1.75829 59.0421 7.78351 65.1878C13.6365 70.9246 22.039 72.3715 36.4065 72.3715Z" fill="#363637"/>
<path d="M62.129 35.4679C62.129 35.2086 61.9182 34.9938 61.6588 34.9817C52.3519 34.6291 46.6877 33.4419 42.7251 29.4789C38.7542 25.5079 37.5711 19.839 37.2186 10.511C37.2105 10.2517 36.9957 10.041 36.7323 10.041H35.6465C35.3872 10.041 35.1724 10.2517 35.1603 10.511C34.8078 19.8349 33.6246 25.5079 29.6539 29.4789C25.6873 33.4459 20.0269 34.6291 10.72 34.9817C10.4607 34.9898 10.25 35.2045 10.25 35.4679V36.5539C10.25 36.8132 10.4607 37.028 10.72 37.0401C20.0269 37.3927 25.6913 38.5799 29.6539 42.5429C33.6165 46.5059 34.7997 52.1587 35.1562 61.4498C35.1643 61.7092 35.3791 61.92 35.6424 61.92H36.7323C36.9917 61.92 37.2064 61.7092 37.2186 61.4498C37.5751 52.1587 38.7583 46.5059 42.721 42.5429C46.6877 38.5759 52.3478 37.3927 61.6548 37.0401C61.9142 37.032 62.1249 36.8173 62.1249 36.5539V35.4679H62.129Z" fill="white"/>
</svg>
